SplineFontDB: 2.0
FontName: Arial-Black
FullName: Arial Black
FamilyName: Arial Black
Weight: Book
Copyright: Digitized data copyright The Monotype Corporation 1991-1995. All rights reserved. Arial® is a trademark of The Monotype Corporation which may be registered in certain jurisdictions.
Version: 2.35
ItalicAngle: 0
UnderlinePosition: -317
UnderlineWidth: 123
Ascent: 1638
Descent: 410
Order2: 1
NeedsXUIDChange: 1
XUID: [1021 385 1920542938 5226113]
FSType: 0
OS2Version: 1
OS2_WeightWidthSlopeOnly: 0
OS2_UseTypoMetrics: 1
CreationTime: 690753652
ModificationTime: 1198803577
PfmFamily: 17
TTFWeight: 400
TTFWidth: 5
LineGap: 0
VLineGap: 0
Panose: 2 11 10 4 2 1 2 2 2 4
OS2TypoAscent: -172
OS2TypoAOffset: 1
OS2TypoDescent: 844
OS2TypoDOffset: 1
OS2TypoLinegap: 291
OS2WinAscent: 35
OS2WinAOffset: 1
OS2WinDescent: 6
OS2WinDOffset: 1
HheadAscent: 35
HheadAOffset: 1
HheadDescent: -6
HheadDOffset: 1
OS2SubXSize: 1434
OS2SubYSize: 1331
OS2SubXOff: 0
OS2SubYOff: 130
OS2SupXSize: 1434
OS2SupYSize: 1331
OS2SupXOff: 0
OS2SupYOff: 439
OS2StrikeYSize: 102
OS2StrikeYPos: 530
OS2FamilyClass: 2053
OS2Vendor: 'MONO'
OS2CodePages: 2000009f.dfd70000
OS2UnicodeRanges: 00000287.00000000.00000000.00000000
Lookup: 258 0 0 "'kern' Horizontal Kerning in Latin lookup 0"  {"'kern' Horizontal Kerning in Latin lookup 0 subtable"  } ['kern' ('DFLT' <'dflt' > 'latn' <'dflt' > ) ]
DEI: 0
TtfTable: prep 718
5TUtk(*.T7*-N):FVYm;()_0/cYh'I!fq5LDZXkn\-N("*?As7()Is,D\j@2Ck$7&Ci:2,DAF1,
DLZ[FC)"/`!'pQ)An_qo*+in")inS3An`,oBG;C.[nsPa\$3@"[fmjb!G,quE>k64qB;1mqB;%i
qB:tgqB:hcqB:baqB:\_qB:V]qB:P[qB:JYqB:DWqB:>UqB:8SqB7V?H"8#!KeaaJYRDVWYVI<*
YVI:2YQ:_Y1*;U/1*;R.1*;%V!Lm=.+.6@J+.$7F+-g+D+-TqA+-Be?+16eP+1?YK+,s>-+,a2:
+,O&8+,<r7+,*f5++mZ3++SciIt3(PJQEF*Iod4(I9."&cWK(,!b5XN+(AXj+#7,+&Kb7^&Kb+U
&g(1U&g'>=!F\t;+(/(X+#7&#%3JVN%3Iif)`JKK2AHra'bW><%l4q/1)1*M'a??,""tAh/eooh
%k9(>-n,ZR-OqCJ%jE5.+<_7:*tB50*=Wi')@[Ds(C^uj'FbQa&I]'W%L`XN$Od4E#Rge<"UkA3

StartChar: .notdef
Encoding: 65536 -1 0
Width: 1536
Flags: W
Fore
0 0 m 1,0,-1
 0 1280 l 1,1,-1
 1024 1280 l 1,2,-1
 1024 0 l 1,3,-1
 0 0 l 1,0,-1
32 32 m 1,4,-1
 992 32 l 1,5,-1
 992 1248 l 1,6,-1
 32 1248 l 1,7,-1
 32 32 l 1,4,-1
EndSplineSet
EndChar
StartChar: exclam
Encoding: 33 33 4
Width: 682
Flags: W
Fore
124 1466 m 1,0,-1
 559 1466 l 1,1,-1
 559 1132 l 1,2,-1
 475 461 l 1,3,-1
 206 461 l 1,4,-1
 124 1132 l 1,5,-1
 124 1466 l 1,0,-1
139 359 m 1,6,-1
 545 359 l 1,7,-1
 545 0 l 1,8,-1
 139 0 l 1,9,-1
 139 359 l 1,6,-1
EndSplineSet
EndChar
StartChar: numbersign
Encoding: 35 35 6
Width: 1352
Flags: W
Fore
253 604 m 1,0,-1
 305 857 l 1,1,-1
 60 857 l 1,2,-1
 60 1133 l 1,3,-1
 360 1133 l 1,4,-1
 431 1491 l 1,5,-1
 716 1491 l 1,6,-1
 643 1133 l 1,7,-1
 862 1133 l 1,8,-1
 934 1491 l 1,9,-1
 1218 1491 l 1,10,-1
 1148 1133 l 1,11,-1
 1285 1133 l 1,12,-1
 1285 857 l 1,13,-1
 1092 857 l 1,14,-1
 1041 604 l 1,15,-1
 1285 604 l 1,16,-1
 1285 328 l 1,17,-1
 986 328 l 1,18,-1
 915 -24 l 1,19,-1
 630 -24 l 1,20,-1
 700 328 l 1,21,-1
 482 328 l 1,22,-1
 410 -24 l 1,23,-1
 127 -24 l 1,24,-1
 200 328 l 1,25,-1
 60 328 l 1,26,-1
 60 604 l 1,27,-1
 253 604 l 1,0,-1
537 604 m 1,28,-1
 756 604 l 1,29,-1
 808 857 l 1,30,-1
 590 857 l 1,31,-1
 537 604 l 1,28,-1
EndSplineSet
EndChar
StartChar: dollar
Encoding: 36 36 7
Width: 1366
Flags: W
Fore
1250 1121 m 1,0,-1
 878 1062 l 1,1,2
 850 1133 850 1133 827.5 1160.5 c 128,-1,3
 805 1188 805 1188 753 1216 c 1,4,-1
 753 927 l 1,5,6
 1057 846 1057 846 1159 756 c 0,7,8
 1294 635 1294 635 1294 449 c 0,9,10
 1294 340 1294 340 1245.5 249 c 128,-1,11
 1197 158 1197 158 1121.5 97 c 128,-1,12
 1046 36 1046 36 961 8.5 c 128,-1,13
 876 -19 876 -19 753 -24 c 1,14,-1
 753 -213 l 1,15,-1
 607 -213 l 1,16,-1
 607 -24 l 1,17,18
 460 -11 460 -11 368.5 23.5 c 128,-1,19
 277 58 277 58 210.5 119 c 128,-1,20
 144 180 144 180 108 250.5 c 128,-1,21
 72 321 72 321 54 421 c 1,22,-1
 458 468 l 1,23,24
 476 369 476 369 506.5 325 c 128,-1,25
 537 281 537 281 607 247 c 1,26,-1
 607 600 l 1,27,28
 405 656 405 656 320.5 697 c 128,-1,29
 236 738 236 738 174 828.5 c 128,-1,30
 112 919 112 919 112 1049 c 0,31,32
 112 1227 112 1227 236.5 1346.5 c 128,-1,33
 361 1466 361 1466 607 1479 c 1,34,-1
 607 1578 l 1,35,-1
 753 1578 l 1,36,-1
 753 1479 l 1,37,38
 977 1465 977 1465 1095.5 1373 c 128,-1,39
 1214 1281 1214 1281 1250 1121 c 1,0,-1
607 1221 m 1,40,41
 543 1200 543 1200 518 1169 c 128,-1,42
 493 1138 493 1138 493 1096 c 0,43,44
 493 1052 493 1052 518.5 1019.5 c 128,-1,45
 544 987 544 987 607 965 c 1,46,-1
 607 1221 l 1,40,41
753 237 m 1,47,48
 838 256 838 256 877.5 299.5 c 128,-1,49
 917 343 917 343 917 397 c 0,50,51
 917 444 917 444 883.5 483.5 c 128,-1,52
 850 523 850 523 753 557 c 1,53,-1
 753 237 l 1,47,48
EndSplineSet
EndChar
StartChar: percent
Encoding: 37 37 8
Width: 2048
Flags: W
Fore
1344 1491 m 1,0,-1
 1555 1491 l 1,1,-1
 708 -75 l 1,2,-1
 499 -75 l 1,3,-1
 1344 1491 l 1,0,-1
99 1106 m 0,4,5
 99 1208 99 1208 143.5 1300 c 128,-1,6
 188 1392 188 1392 279.5 1441.5 c 128,-1,7
 371 1491 371 1491 496 1491 c 0,8,9
 680 1491 680 1491 786 1386 c 128,-1,10
 892 1281 892 1281 892 1106 c 0,11,12
 892 930 892 930 786 825 c 128,-1,13
 680 720 680 720 496 720 c 0,14,15
 371 720 371 720 279.5 769.5 c 128,-1,16
 188 819 188 819 143.5 911 c 128,-1,17
 99 1003 99 1003 99 1106 c 0,4,5
380 1104 m 256,18,19
 380 980 380 980 420 924 c 0,20,21
 446 887 446 887 496 887 c 256,22,23
 546 887 546 887 571 924 c 0,24,25
 611 980 611 980 611 1104 c 0,26,27
 611 1227 611 1227 571 1284 c 0,28,29
 546 1320 546 1320 496 1320 c 256,30,31
 446 1320 446 1320 420 1284 c 0,32,33
 380 1228 380 1228 380 1104 c 256,18,19
1156 313 m 256,34,35
 1156 416 1156 416 1200 507.5 c 128,-1,36
 1244 599 1244 599 1336 649 c 128,-1,37
 1428 699 1428 699 1552 699 c 0,38,39
 1737 699 1737 699 1843 593.5 c 128,-1,40
 1949 488 1949 488 1949 313 c 256,41,42
 1949 138 1949 138 1843 32.5 c 128,-1,43
 1737 -73 1737 -73 1552 -73 c 0,44,45
 1428 -73 1428 -73 1336 -23 c 128,-1,46
 1244 27 1244 27 1200 118.5 c 128,-1,47
 1156 210 1156 210 1156 313 c 256,34,35
1437 311 m 256,48,49
 1437 187 1437 187 1477 131 c 0,50,51
 1502 95 1502 95 1552 95 c 256,52,53
 1602 95 1602 95 1628 131 c 0,54,55
 1668 187 1668 187 1668 311 c 256,56,57
 1668 435 1668 435 1628 492 c 0,58,59
 1602 528 1602 528 1552 528 c 256,60,61
 1502 528 1502 528 1477 491 c 0,62,63
 1437 435 1437 435 1437 311 c 256,48,49
EndSplineSet
EndChar
StartChar: ampersand
Encoding: 38 38 9
Width: 1821
Flags: W
Fore
1307 713 m 1,0,-1
 1625 642 l 1,1,2
 1600 554 1600 554 1577 501 c 128,-1,3
 1554 448 1554 448 1512 376 c 1,4,-1
 1665 271 l 2,5,6
 1693 253 1693 253 1737 228 c 1,7,-1
 1518 -24 l 1,8,9
 1458 8 1458 8 1393.5 50 c 128,-1,10
 1329 92 1329 92 1278 122 c 1,11,12
 1172 52 1172 52 1066 20 c 0,13,14
 919 -24 919 -24 732 -24 c 0,15,16
 439 -24 439 -24 296 98 c 128,-1,17
 153 220 153 220 153 394 c 0,18,19
 153 519 153 519 237 630.5 c 128,-1,20
 321 742 321 742 512 819 c 1,21,22
 432 916 432 916 402 987.5 c 128,-1,23
 372 1059 372 1059 372 1133 c 0,24,25
 372 1289 372 1289 491 1390 c 128,-1,26
 610 1491 610 1491 852 1491 c 0,27,28
 1099 1491 1099 1491 1215 1395 c 128,-1,29
 1331 1299 1331 1299 1331 1165 c 0,30,31
 1331 1090 1331 1090 1295.5 1021 c 128,-1,32
 1260 952 1260 952 1210 909 c 128,-1,33
 1160 866 1160 866 1031 781 c 1,34,35
 1138 674 1138 674 1254 582 c 1,36,37
 1285 644 1285 644 1307 713 c 1,0,-1
839 970 m 1,38,39
 918 1013 918 1013 961 1063.5 c 128,-1,40
 1004 1114 1004 1114 1004 1159 c 0,41,42
 1004 1206 1004 1206 968 1238.5 c 128,-1,43
 932 1271 932 1271 869 1271 c 0,44,45
 807 1271 807 1271 768 1235 c 128,-1,46
 729 1199 729 1199 729 1150 c 0,47,48
 729 1088 729 1088 839 970 c 1,38,39
694 614 m 1,49,50
 610 555 610 555 582.5 513 c 128,-1,51
 555 471 555 471 555 424 c 0,52,53
 555 351 555 351 618 294 c 128,-1,54
 681 237 681 237 782 237 c 0,55,56
 891 237 891 237 1027 322 c 1,57,58
 897 422 897 422 694 614 c 1,49,50
EndSplineSet
EndChar
StartChar: quotesingle
Encoding: 39 39 10
Width: 569
Flags: W
Fore
85 1466 m 1,0,-1
 491 1466 l 1,1,-1
 491 1224 l 1,2,-1
 427 927 l 1,3,-1
 151 927 l 1,4,-1
 85 1224 l 1,5,-1
 85 1466 l 1,0,-1
EndSplineSet
EndChar
StartChar: parenleft
Encoding: 40 40 11
Width: 797
Flags: W
Fore
463 1491 m 1,0,-1
 717 1491 l 1,1,2
 586 1201 586 1201 528 955 c 0,3,4
 479 746 479 746 479 509 c 0,5,6
 479 52 479 52 717 -431 c 1,7,-1
 463 -431 l 1,8,9
 269 -156 269 -156 190.5 66.5 c 128,-1,10
 112 289 112 289 112 533 c 0,11,12
 112 786 112 786 194.5 1014 c 128,-1,13
 277 1242 277 1242 463 1491 c 1,0,-1
EndSplineSet
EndChar
StartChar: asterisk
Encoding: 42 42 13
Width: 1139
Flags: W
Fore
453 1491 m 1,0,-1
 674 1491 l 1,1,-1
 656 1340 l 2,2,3
 650 1285 650 1285 631 1215 c 1,4,5
 669 1234 669 1234 681 1241 c 0,6,7
 723 1264 723 1264 745 1274 c 2,8,-1
 884 1340 l 1,9,-1
 953 1129 l 1,10,-1
 799 1097 l 2,11,12
 757 1089 757 1089 674 1086 c 1,13,14
 730 1042 730 1042 763 1006 c 2,15,-1
 867 893 l 1,16,-1
 687 758 l 1,17,-1
 613 893 l 2,18,19
 597 922 597 922 561 1006 c 1,20,21
 522 914 522 914 509 893 c 2,22,-1
 434 758 l 1,23,-1
 249 893 l 1,24,-1
 361 1006 l 2,25,26
 408 1053 408 1053 453 1086 c 1,27,28
 407 1090 407 1090 332 1104 c 2,29,-1
 177 1129 l 1,30,-1
 249 1340 l 1,31,-1
 388 1277 l 2,32,33
 410 1267 410 1267 497 1215 c 1,34,35
 478 1299 478 1299 473 1340 c 2,36,-1
 453 1491 l 1,0,-1
EndSplineSet
EndChar
StartChar: plus
Encoding: 43 43 14
Width: 1352
Flags: W
Fore
127 894 m 1,0,-1
 510 894 l 1,1,-1
 510 1279 l 1,2,-1
 833 1279 l 1,3,-1
 833 894 l 1,4,-1
 1218 894 l 1,5,-1
 1218 570 l 1,6,-1
 833 570 l 1,7,-1
 833 187 l 1,8,-1
 510 187 l 1,9,-1
 510 570 l 1,10,-1
 127 570 l 1,11,-1
 127 894 l 1,0,-1
EndSplineSet
EndChar
StartChar: comma
Encoding: 44 44 15
Width: 682
Flags: W
Fore
124 404 m 1,0,-1
 559 404 l 1,1,-1
 559 69 l 2,2,3
 559 -116 559 -116 482 -223 c 128,-1,4
 405 -330 405 -330 219 -412 c 1,5,-1
 124 -234 l 1,6,7
 240 -180 240 -180 283.5 -126.5 c 128,-1,8
 327 -73 327 -73 332 0 c 1,9,-1
 124 0 l 1,10,-1
 124 404 l 1,0,-1
EndSplineSet
EndChar
StartChar: hyphen
Encoding: 45 45 16
AltUni2: 0000ad.ffffffff.0
Width: 682
Flags: W
Fore
45 692 m 1,0,-1
 637 692 l 1,1,-1
 637 377 l 1,2,-1
 45 377 l 1,3,-1
 45 692 l 1,0,-1
EndSplineSet
EndChar
StartChar: period
Encoding: 46 46 17
Width: 682
Flags: W
Fore
124 408 m 1,0,-1
 559 408 l 1,1,-1
 559 0 l 1,2,-1
 124 0 l 1,3,-1
 124 408 l 1,0,-1
EndSplineSet
EndChar
StartChar: slash
Encoding: 47 47 18
Width: 569
Flags: W
Fore
367 1491 m 1,0,-1
 575 1491 l 1,1,-1
 207 -24 l 1,2,-1
 1 -24 l 1,3,-1
 367 1491 l 1,0,-1
EndSplineSet
EndChar
StartChar: zero
Encoding: 48 48 19
Width: 2081
Flags: HW
Fore
439 739 m 0,0,1
 439 1157 439 1157 589.5 1324 c 128,-1,2
 740 1491 740 1491 1048 1491 c 0,3,4
 1196 1491 1196 1491 1291 1454.5 c 128,-1,5
 1386 1418 1386 1418 1446 1359.5 c 128,-1,6
 1506 1301 1506 1301 1540.5 1236.5 c 128,-1,7
 1575 1172 1575 1172 1596 1086 c 0,8,9
 1637 922 1637 922 1637 744 c 0,10,11
 1637 345 1637 345 1502 160 c 128,-1,12
 1367 -25 1367 -25 1037 -25 c 0,13,14
 852 -25 852 -25 738 34 c 128,-1,15
 624 93 624 93 551 207 c 0,16,17
 498 288 498 288 468.5 428.5 c 128,-1,18
 439 569 439 569 439 739 c 0,0,1
843 738 m 0,19,20
 843 458 843 458 892.5 355.5 c 128,-1,21
 942 253 942 253 1036 253 c 0,22,23
 1098 253 1098 253 1143.5 296.5 c 128,-1,24
 1189 340 1189 340 1210.5 434 c 128,-1,25
 1232 528 1232 528 1232 727 c 0,26,27
 1232 1019 1232 1019 1182.5 1119.5 c 128,-1,28
 1133 1220 1133 1220 1034 1220 c 0,29,30
 933 1220 933 1220 888 1117.5 c 128,-1,31
 843 1015 843 1015 843 738 c 0,19,20
EndSplineSet
EndChar
StartChar: one
Encoding: 49 49 20
Width: 1731
Flags: HW
Fore
1265 1491 m 1,0,-1
 1265 0 l 1,1,-1
 853 0 l 1,2,-1
 853 977 l 1,3,4
 753 901 753 901 659.5 854 c 128,-1,5
 566 807 566 807 425 764 c 1,6,-1
 425 1098 l 1,7,8
 633 1165 633 1165 748 1259 c 128,-1,9
 863 1353 863 1353 928 1491 c 1,10,-1
 1265 1491 l 1,0,-1
EndSplineSet
EndChar
StartChar: two
Encoding: 50 50 21
Width: 2109
Flags: HW
Fore
1655 0 m 1,0,-1
 433 0 l 1,1,2
 454 181 454 181 560.5 340.5 c 128,-1,3
 667 500 667 500 960 717 c 0,4,5
 1139 850 1139 850 1189 919 c 128,-1,6
 1239 988 1239 988 1239 1050 c 0,7,8
 1239 1117 1239 1117 1189.5 1164.5 c 128,-1,9
 1140 1212 1140 1212 1065 1212 c 0,10,11
 987 1212 987 1212 937.5 1163 c 128,-1,12
 888 1114 888 1114 871 990 c 1,13,-1
 463 1023 l 1,14,15
 487 1195 487 1195 551 1291.5 c 128,-1,16
 615 1388 615 1388 731.5 1439.5 c 128,-1,17
 848 1491 848 1491 1054 1491 c 0,18,19
 1269 1491 1269 1491 1388.5 1442 c 128,-1,20
 1508 1393 1508 1393 1576.5 1291.5 c 128,-1,21
 1645 1190 1645 1190 1645 1064 c 0,22,23
 1645 930 1645 930 1566.5 808 c 128,-1,24
 1488 686 1488 686 1281 540 c 0,25,26
 1158 455 1158 455 1116.5 421 c 128,-1,27
 1075 387 1075 387 1019 332 c 1,28,-1
 1655 332 l 1,29,-1
 1655 0 l 1,0,-1
EndSplineSet
EndChar
StartChar: three
Encoding: 51 51 22
Width: 2090
Flags: HW
Fore
849 1042 m 1,0,-1
 464 1111 l 1,1,2
 512 1295 512 1295 648.5 1393 c 128,-1,3
 785 1491 785 1491 1035 1491 c 0,4,5
 1322 1491 1322 1491 1450 1384 c 128,-1,6
 1578 1277 1578 1277 1578 1115 c 0,7,8
 1578 1020 1578 1020 1526 943 c 128,-1,9
 1474 866 1474 866 1369 808 c 1,10,11
 1454 787 1454 787 1499 759 c 0,12,13
 1572 714 1572 714 1612.5 640.5 c 128,-1,14
 1653 567 1653 567 1653 465 c 0,15,16
 1653 337 1653 337 1586 219.5 c 128,-1,17
 1519 102 1519 102 1393 38.5 c 128,-1,18
 1267 -25 1267 -25 1062 -25 c 0,19,20
 862 -25 862 -25 746.5 22 c 128,-1,21
 631 69 631 69 556.5 159.5 c 128,-1,22
 482 250 482 250 442 387 c 1,23,-1
 849 441 l 1,24,25
 873 318 873 318 923.5 270.5 c 128,-1,26
 974 223 974 223 1052 223 c 0,27,28
 1134 223 1134 223 1188.5 283 c 128,-1,29
 1243 343 1243 343 1243 443 c 0,30,31
 1243 545 1243 545 1190.5 601 c 128,-1,32
 1138 657 1138 657 1048 657 c 0,33,34
 1000 657 1000 657 916 633 c 1,35,-1
 937 924 l 1,36,37
 971 919 971 919 990 919 c 0,38,39
 1070 919 1070 919 1123.5 970 c 128,-1,40
 1177 1021 1177 1021 1177 1091 c 0,41,42
 1177 1158 1177 1158 1137 1198 c 128,-1,43
 1097 1238 1097 1238 1027 1238 c 0,44,45
 955 1238 955 1238 910 1194.5 c 128,-1,46
 865 1151 865 1151 849 1042 c 1,0,-1
EndSplineSet
EndChar
StartChar: four
Encoding: 52 52 23
Width: 2122
Flags: HW
Fore
1155 274 m 1,0,-1
 413 274 l 1,1,-1
 413 609 l 1,2,-1
 1155 1491 l 1,3,-1
 1510 1491 l 1,4,-1
 1510 590 l 1,5,-1
 1694 590 l 1,6,-1
 1694 274 l 1,7,-1
 1510 274 l 1,8,-1
 1510 0 l 1,9,-1
 1155 0 l 1,10,-1
 1155 274 l 1,0,-1
1155 590 m 1,11,-1
 1155 1051 l 1,12,-1
 763 590 l 1,13,-1
 1155 590 l 1,11,-1
EndSplineSet
EndChar
StartChar: five
Encoding: 53 53 24
Width: 2083
Flags: HW
Fore
607 1466 m 1,0,-1
 1574 1466 l 1,1,-1
 1574 1141 l 1,2,-1
 919 1141 l 1,3,-1
 884 921 l 1,4,5
 952 953 952 953 1018.5 969 c 128,-1,6
 1085 985 1085 985 1150 985 c 0,7,8
 1370 985 1370 985 1507 852 c 128,-1,9
 1644 719 1644 719 1644 517 c 0,10,11
 1644 375 1644 375 1573.5 244 c 128,-1,12
 1503 113 1503 113 1373.5 44 c 128,-1,13
 1244 -25 1244 -25 1042 -25 c 0,14,15
 897 -25 897 -25 793.5 2.5 c 128,-1,16
 690 30 690 30 617.5 84.5 c 128,-1,17
 545 139 545 139 500 208 c 128,-1,18
 455 277 455 277 425 380 c 1,19,-1
 837 425 l 1,20,21
 852 326 852 326 907 274.5 c 128,-1,22
 962 223 962 223 1038 223 c 0,23,24
 1123 223 1123 223 1178.5 287.5 c 128,-1,25
 1234 352 1234 352 1234 480 c 0,26,27
 1234 611 1234 611 1178 672 c 128,-1,28
 1122 733 1122 733 1029 733 c 0,29,30
 970 733 970 733 915 704 c 0,31,32
 874 683 874 683 825 628 c 1,33,-1
 478 678 l 1,34,-1
 607 1466 l 1,0,-1
EndSplineSet
EndChar
StartChar: six
Encoding: 54 54 25
Width: 2089
Flags: HW
Fore
1613 1136 m 1,0,-1
 1208 1086 l 1,1,2
 1192 1171 1192 1171 1154.5 1206 c 128,-1,3
 1117 1241 1117 1241 1062 1241 c 0,4,5
 963 1241 963 1241 908 1141 c 0,6,7
 868 1069 868 1069 849 833 c 1,8,9
 922 907 922 907 999 942.5 c 128,-1,10
 1076 978 1076 978 1177 978 c 0,11,12
 1373 978 1373 978 1508.5 838 c 128,-1,13
 1644 698 1644 698 1644 483 c 0,14,15
 1644 338 1644 338 1575.5 218 c 128,-1,16
 1507 98 1507 98 1385.5 36.5 c 128,-1,17
 1264 -25 1264 -25 1081 -25 c 0,18,19
 861 -25 861 -25 728 50 c 128,-1,20
 595 125 595 125 515.5 289.5 c 128,-1,21
 436 454 436 454 436 725 c 0,22,23
 436 1122 436 1122 603 1306.5 c 128,-1,24
 770 1491 770 1491 1066 1491 c 0,25,26
 1241 1491 1241 1491 1342.5 1450.5 c 128,-1,27
 1444 1410 1444 1410 1511 1332 c 128,-1,28
 1578 1254 1578 1254 1613 1136 c 1,0,-1
863 483 m 0,29,30
 863 364 863 364 923 296.5 c 128,-1,31
 983 229 983 229 1070 229 c 0,32,33
 1150 229 1150 229 1204 290 c 128,-1,34
 1258 351 1258 351 1258 472 c 0,35,36
 1258 596 1258 596 1202 661 c 128,-1,37
 1146 726 1146 726 1063 726 c 0,38,39
 978 726 978 726 920.5 663 c 128,-1,40
 863 600 863 600 863 483 c 0,29,30
EndSplineSet
EndChar
StartChar: seven
Encoding: 55 55 26
Width: 1971
Flags: HW
Fore
401 1466 m 1,0,-1
 1590 1466 l 1,1,-1
 1590 1191 l 1,2,3
 1435 1051 1435 1051 1331 888 c 0,4,5
 1205 690 1205 690 1132 447 c 0,6,7
 1074 258 1074 258 1054 0 c 1,8,-1
 648 0 l 1,9,10
 696 359 696 359 799 602 c 128,-1,11
 902 845 902 845 1125 1122 c 1,12,-1
 401 1122 l 1,13,-1
 401 1466 l 1,0,-1
EndSplineSet
EndChar
StartChar: eight
Encoding: 56 56 27
Width: 2081
Flags: HW
Fore
686 788 m 1,0,1
 590 839 590 839 546 902 c 0,2,3
 486 988 486 988 486 1100 c 0,4,5
 486 1284 486 1284 659 1401 c 0,6,7
 794 1491 794 1491 1016 1491 c 0,8,9
 1310 1491 1310 1491 1450.5 1379 c 128,-1,10
 1591 1267 1591 1267 1591 1097 c 0,11,12
 1591 998 1591 998 1535 912 c 0,13,14
 1493 848 1493 848 1403 788 c 1,15,16
 1522 731 1522 731 1580.5 637 c 128,-1,17
 1639 543 1639 543 1639 429 c 0,18,19
 1639 319 1639 319 1588.5 223.5 c 128,-1,20
 1538 128 1538 128 1464.5 76 c 128,-1,21
 1391 24 1391 24 1281.5 -0.5 c 128,-1,22
 1172 -25 1172 -25 1048 -25 c 0,23,24
 815 -25 815 -25 692 30 c 128,-1,25
 569 85 569 85 505 192 c 128,-1,26
 441 299 441 299 441 431 c 0,27,28
 441 560 441 560 501 649.5 c 128,-1,29
 561 739 561 739 686 788 c 1,0,1
869 1076 m 0,30,31
 869 1000 869 1000 916.5 953.5 c 128,-1,32
 964 907 964 907 1043 907 c 0,33,34
 1113 907 1113 907 1158 953 c 128,-1,35
 1203 999 1203 999 1203 1072 c 0,36,37
 1203 1148 1203 1148 1156 1195.5 c 128,-1,38
 1109 1243 1109 1243 1036 1243 c 0,39,40
 962 1243 962 1243 915.5 1196.5 c 128,-1,41
 869 1150 869 1150 869 1076 c 0,30,31
847 445 m 0,42,43
 847 348 847 348 906 286.5 c 128,-1,44
 965 225 965 225 1041 225 c 0,45,46
 1114 225 1114 225 1172 287.5 c 128,-1,47
 1230 350 1230 350 1230 446 c 0,48,49
 1230 543 1230 543 1171.5 605 c 128,-1,50
 1113 667 1113 667 1036 667 c 0,51,52
 960 667 960 667 903.5 607 c 128,-1,53
 847 547 847 547 847 445 c 0,42,43
EndSplineSet
EndChar
StartChar: nine
Encoding: 57 57 28
Width: 2086
Flags: HW
Fore
467 329 m 1,0,-1
 872 380 l 1,1,2
 888 295 888 295 926 260 c 128,-1,3
 964 225 964 225 1019 225 c 0,4,5
 1117 225 1117 225 1172 324 c 0,6,7
 1212 397 1212 397 1232 633 c 1,8,9
 1159 558 1159 558 1082 523 c 128,-1,10
 1005 488 1005 488 904 488 c 0,11,12
 707 488 707 488 571.5 628 c 128,-1,13
 436 768 436 768 436 982 c 0,14,15
 436 1128 436 1128 505 1248 c 128,-1,16
 574 1368 574 1368 695 1429.5 c 128,-1,17
 816 1491 816 1491 999 1491 c 0,18,19
 1219 1491 1219 1491 1352 1415.5 c 128,-1,20
 1485 1340 1485 1340 1564.5 1175.5 c 128,-1,21
 1644 1011 1644 1011 1644 741 c 0,22,23
 1644 344 1644 344 1477 159.5 c 128,-1,24
 1310 -25 1310 -25 1014 -25 c 0,25,26
 839 -25 839 -25 738 15.5 c 128,-1,27
 637 56 637 56 570 134 c 128,-1,28
 503 212 503 212 467 329 c 1,0,-1
1217 983 m 0,29,30
 1217 1102 1217 1102 1157 1169.5 c 128,-1,31
 1097 1237 1097 1237 1011 1237 c 0,32,33
 930 1237 930 1237 876.5 1176 c 128,-1,34
 823 1115 823 1115 823 993 c 0,35,36
 823 870 823 870 878.5 805 c 128,-1,37
 934 740 934 740 1017 740 c 0,38,39
 1103 740 1103 740 1160 803 c 128,-1,40
 1217 866 1217 866 1217 983 c 0,29,30
EndSplineSet
EndChar
StartChar: colon
Encoding: 58 58 29
Width: 682
Flags: W
Fore
124 1062 m 1,0,-1
 559 1062 l 1,1,-1
 559 654 l 1,2,-1
 124 654 l 1,3,-1
 124 1062 l 1,0,-1
124 408 m 1,4,-1
 559 408 l 1,5,-1
 559 0 l 1,6,-1
 124 0 l 1,7,-1
 124 408 l 1,4,-1
EndSplineSet
EndChar
StartChar: semicolon
Encoding: 59 59 30
AltUni2: 00037e.ffffffff.0
Width: 682
Flags: W
Fore
124 1062 m 1,0,-1
 559 1062 l 1,1,-1
 559 654 l 1,2,-1
 124 654 l 1,3,-1
 124 1062 l 1,0,-1
124 404 m 1,4,-1
 559 404 l 1,5,-1
 559 69 l 2,6,7
 559 -116 559 -116 482 -223 c 128,-1,8
 405 -330 405 -330 219 -412 c 1,9,-1
 124 -234 l 1,10,11
 240 -180 240 -180 283.5 -126.5 c 128,-1,12
 327 -73 327 -73 332 0 c 1,13,-1
 124 0 l 1,14,-1
 124 404 l 1,4,-1
EndSplineSet
EndChar
StartChar: less
Encoding: 60 60 31
Width: 1352
Flags: W
Fore
1244 112 m 1,0,-1
 107 585 l 1,1,-1
 107 881 l 1,2,-1
 1244 1353 l 1,3,-1
 1244 998 l 1,4,-1
 553 732 l 1,5,-1
 1244 465 l 1,6,-1
 1244 112 l 1,0,-1
EndSplineSet
EndChar
StartChar: equal
Encoding: 61 61 32
Width: 1352
Flags: W
Fore
126 1141 m 1,0,-1
 1218 1141 l 1,1,-1
 1218 816 l 1,2,-1
 126 816 l 1,3,-1
 126 1141 l 1,0,-1
126 649 m 1,4,-1
 1218 649 l 1,5,-1
 1218 325 l 1,6,-1
 126 325 l 1,7,-1
 126 649 l 1,4,-1
EndSplineSet
EndChar
StartChar: question
Encoding: 63 63 34
Width: 1251
Flags: W
Fore
785 460 m 1,0,-1
 405 460 l 1,1,-1
 405 498 l 2,2,3
 405 595 405 595 427 655.5 c 128,-1,4
 449 716 449 716 492.5 766 c 128,-1,5
 536 816 536 816 688 942 c 0,6,7
 769 1008 769 1008 769 1063 c 256,8,9
 769 1118 769 1118 736.5 1148.5 c 128,-1,10
 704 1179 704 1179 638 1179 c 0,11,12
 567 1179 567 1179 520.5 1132 c 128,-1,13
 474 1085 474 1085 461 968 c 1,14,-1
 73 1016 l 1,15,16
 93 1230 93 1230 228.5 1360.5 c 128,-1,17
 364 1491 364 1491 644 1491 c 0,18,19
 862 1491 862 1491 996 1400 c 0,20,21
 1178 1277 1178 1277 1178 1072 c 0,22,23
 1178 987 1178 987 1131 908 c 128,-1,24
 1084 829 1084 829 939 715 c 0,25,26
 838 635 838 635 811.5 586.5 c 128,-1,27
 785 538 785 538 785 460 c 1,0,-1
392 359 m 1,28,-1
 799 359 l 1,29,-1
 799 0 l 1,30,-1
 392 0 l 1,31,-1
 392 359 l 1,28,-1
EndSplineSet
EndChar
StartChar: at
Encoding: 64 64 35
Width: 1516
Flags: W
Fore
1156 1148 m 1,0,-1
 1031 357 l 2,1,2
 1027 333 1027 333 1027 322 c 0,3,4
 1027 304 1027 304 1037 294 c 128,-1,5
 1047 284 1047 284 1067 284 c 0,6,7
 1113 284 1113 284 1171 325 c 0,8,9
 1257 385 1257 385 1312.5 498.5 c 128,-1,10
 1368 612 1368 612 1368 773 c 0,11,12
 1368 1037 1368 1037 1216.5 1190 c 128,-1,13
 1065 1343 1065 1343 810 1343 c 0,14,15
 622 1343 622 1343 467.5 1253 c 128,-1,16
 313 1163 313 1163 229.5 992 c 128,-1,17
 146 821 146 821 146 614 c 0,18,19
 146 292 146 292 327.5 103.5 c 128,-1,20
 509 -85 509 -85 796 -85 c 0,21,22
 936 -85 936 -85 1065.5 -38 c 128,-1,23
 1195 9 1195 9 1314 102 c 1,24,-1
 1519 102 l 1,25,26
 1437 5 1437 5 1363 -50 c 0,27,28
 1254 -131 1254 -131 1110 -182 c 128,-1,29
 966 -233 966 -233 800 -233 c 0,30,31
 569 -233 569 -233 385 -126 c 128,-1,32
 201 -19 201 -19 97.5 179 c 128,-1,33
 -6 377 -6 377 -6 615 c 0,34,35
 -6 865 -6 865 101.5 1069.5 c 128,-1,36
 209 1274 209 1274 387 1383 c 128,-1,37
 565 1492 565 1492 809 1492 c 0,38,39
 1124 1492 1124 1492 1321.5 1292 c 128,-1,40
 1519 1092 1519 1092 1519 775 c 0,41,42
 1519 587 1519 587 1442 431 c 128,-1,43
 1365 275 1365 275 1216 184 c 0,44,45
 1101 114 1101 114 1000 114 c 0,46,47
 940 114 940 114 902 142 c 128,-1,48
 864 170 864 170 846 231 c 1,49,50
 779 166 779 166 724 139.5 c 128,-1,51
 669 113 669 113 605 113 c 0,52,53
 472 113 472 113 376 224 c 128,-1,54
 280 335 280 335 280 542 c 0,55,56
 280 787 280 787 403 985 c 128,-1,57
 526 1183 526 1183 708 1183 c 0,58,59
 779 1183 779 1183 833.5 1150 c 128,-1,60
 888 1117 888 1117 943 1035 c 1,61,-1
 961 1148 l 1,62,-1
 1156 1148 l 1,0,-1
490 493 m 0,63,64
 490 374 490 374 541 308 c 0,65,66
 579 259 579 259 638 259 c 0,67,68
 702 259 702 259 754 313.5 c 128,-1,69
 806 368 806 368 845 531 c 128,-1,70
 884 694 884 694 884 824 c 0,71,72
 884 922 884 922 842 972 c 128,-1,73
 800 1022 800 1022 742 1022 c 0,74,75
 676 1022 676 1022 626 972 c 0,76,77
 559 905 559 905 524.5 759.5 c 128,-1,78
 490 614 490 614 490 493 c 0,63,64
EndSplineSet
EndChar
StartChar: A
Encoding: 65 65 36
Width: 2313
Flags: HW
Fore
1407 242 m 1,0,-1
 891 242 l 1,1,-1
 820 0 l 1,2,-1
 357 0 l 1,3,-1
 908 1466 l 1,4,-1
 1402 1466 l 1,5,-1
 1953 0 l 1,6,-1
 1479 0 l 1,7,-1
 1407 242 l 1,0,-1
1312 559 m 1,8,-1
 1150 1086 l 1,9,-1
 989 559 l 1,10,-1
 1312 559 l 1,8,-1
EndSplineSet
EndChar
StartChar: B
Encoding: 66 66 37
Width: 2262
Flags: HW
Fore
468 1466 m 1,0,-1
 1316 1466 l 2,1,2
 1528 1466 1528 1466 1641.5 1361 c 128,-1,3
 1755 1256 1755 1256 1755 1101 c 0,4,5
 1755 971 1755 971 1674 878 c 0,6,7
 1620 816 1620 816 1516 780 c 1,8,9
 1674 742 1674 742 1748.5 649.5 c 128,-1,10
 1823 557 1823 557 1823 417 c 0,11,12
 1823 303 1823 303 1770 212 c 128,-1,13
 1717 121 1717 121 1625 68 c 0,14,15
 1568 35 1568 35 1453 20 c 0,16,17
 1300 0 1300 0 1250 0 c 2,18,-1
 468 0 l 1,19,-1
 468 1466 l 1,0,-1
925 891 m 1,20,-1
 1122 891 l 2,21,22
 1228 891 1228 891 1269.5 927.5 c 128,-1,23
 1311 964 1311 964 1311 1033 c 0,24,25
 1311 1097 1311 1097 1269.5 1133 c 128,-1,26
 1228 1169 1228 1169 1125 1169 c 2,27,-1
 925 1169 l 1,28,-1
 925 891 l 1,20,-1
925 315 m 1,29,-1
 1156 315 l 2,30,31
 1273 315 1273 315 1321 356.5 c 128,-1,32
 1369 398 1369 398 1369 468 c 0,33,34
 1369 533 1369 533 1321.5 572.5 c 128,-1,35
 1274 612 1274 612 1155 612 c 2,36,-1
 925 612 l 1,37,-1
 925 315 l 1,29,-1
EndSplineSet
EndChar
StartChar: C
Encoding: 67 67 38
Width: 2301
Flags: HW
Fore
1461 599 m 1,0,-1
 1858 479 l 1,1,2
 1818 312 1818 312 1732 200 c 128,-1,3
 1646 88 1646 88 1518.5 31 c 128,-1,4
 1391 -26 1391 -26 1194 -26 c 0,5,6
 955 -26 955 -26 803.5 43.5 c 128,-1,7
 652 113 652 113 542 288 c 128,-1,8
 432 463 432 463 432 736 c 0,9,10
 432 1100 432 1100 625.5 1295.5 c 128,-1,11
 819 1491 819 1491 1173 1491 c 0,12,13
 1450 1491 1450 1491 1608.5 1379 c 128,-1,14
 1767 1267 1767 1267 1844 1035 c 1,15,-1
 1444 946 l 1,16,17
 1423 1013 1423 1013 1400 1044 c 0,18,19
 1362 1096 1362 1096 1307 1124 c 128,-1,20
 1252 1152 1252 1152 1184 1152 c 0,21,22
 1030 1152 1030 1152 948 1028 c 0,23,24
 886 936 886 936 886 739 c 0,25,26
 886 495 886 495 960 404.5 c 128,-1,27
 1034 314 1034 314 1168 314 c 0,28,29
 1298 314 1298 314 1364.5 387 c 128,-1,30
 1431 460 1431 460 1461 599 c 1,0,-1
EndSplineSet
EndChar
StartChar: D
Encoding: 68 68 39
Width: 2257
Flags: HW
Fore
468 1466 m 1,0,-1
 1141 1466 l 2,1,2
 1340 1466 1340 1466 1462.5 1412 c 128,-1,3
 1585 1358 1585 1358 1665 1257 c 128,-1,4
 1745 1156 1745 1156 1781 1022 c 128,-1,5
 1817 888 1817 888 1817 738 c 0,6,7
 1817 503 1817 503 1763.5 373.5 c 128,-1,8
 1710 244 1710 244 1615 156.5 c 128,-1,9
 1520 69 1520 69 1411 40 c 0,10,11
 1262 0 1262 0 1141 0 c 2,12,-1
 468 0 l 1,13,-1
 468 1466 l 1,0,-1
921 1134 m 1,14,-1
 921 333 l 1,15,-1
 1032 333 l 2,16,17
 1174 333 1174 333 1234 364.5 c 128,-1,18
 1294 396 1294 396 1328 474.5 c 128,-1,19
 1362 553 1362 553 1362 729 c 0,20,21
 1362 962 1362 962 1286 1048 c 128,-1,22
 1210 1134 1210 1134 1034 1134 c 2,23,-1
 921 1134 l 1,14,-1
EndSplineSet
EndChar
StartChar: E
Encoding: 69 69 40
Width: 2154
Flags: HW
Fore
468 1466 m 1,0,-1
 1682 1466 l 1,1,-1
 1682 1153 l 1,2,-1
 922 1153 l 1,3,-1
 922 920 l 1,4,-1
 1627 920 l 1,5,-1
 1627 621 l 1,6,-1
 922 621 l 1,7,-1
 922 332 l 1,8,-1
 1704 332 l 1,9,-1
 1704 0 l 1,10,-1
 468 0 l 1,11,-1
 468 1466 l 1,0,-1
EndSplineSet
EndChar
StartChar: F
Encoding: 70 70 41
Width: 1996
Flags: HW
Fore
468 1466 m 1,0,-1
 1588 1466 l 1,1,-1
 1588 1151 l 1,2,-1
 923 1151 l 1,3,-1
 923 895 l 1,4,-1
 1491 895 l 1,5,-1
 1491 599 l 1,6,-1
 923 599 l 1,7,-1
 923 0 l 1,8,-1
 468 0 l 1,9,-1
 468 1466 l 1,0,-1
EndSplineSet
EndChar
StartChar: G
Encoding: 71 71 42
Width: 2376
Flags: HW
Fore
1223 531 m 1,0,-1
 1223 836 l 1,1,-1
 1923 836 l 1,2,-1
 1923 211 l 1,3,4
 1722 74 1722 74 1567.5 24.5 c 128,-1,5
 1413 -25 1413 -25 1201 -25 c 0,6,7
 940 -25 940 -25 775.5 64 c 128,-1,8
 611 153 611 153 520.5 329 c 128,-1,9
 430 505 430 505 430 733 c 0,10,11
 430 973 430 973 529 1150.5 c 128,-1,12
 628 1328 628 1328 819 1420 c 0,13,14
 968 1491 968 1491 1220 1491 c 0,15,16
 1463 1491 1463 1491 1583.5 1447 c 128,-1,17
 1704 1403 1704 1403 1783.5 1310.5 c 128,-1,18
 1863 1218 1863 1218 1903 1076 c 1,19,-1
 1466 998 l 1,20,21
 1439 1081 1439 1081 1374.5 1125 c 128,-1,22
 1310 1169 1310 1169 1210 1169 c 0,23,24
 1061 1169 1061 1169 972.5 1065.5 c 128,-1,25
 884 962 884 962 884 738 c 0,26,27
 884 500 884 500 973.5 398 c 128,-1,28
 1063 296 1063 296 1223 296 c 0,29,30
 1299 296 1299 296 1368 318 c 128,-1,31
 1437 340 1437 340 1526 393 c 1,32,-1
 1526 531 l 1,33,-1
 1223 531 l 1,0,-1
EndSplineSet
EndChar
StartChar: H
Encoding: 72 72 43
Width: 2337
Flags: HW
Fore
468 1466 m 1,0,-1
 921 1466 l 1,1,-1
 921 953 l 1,2,-1
 1416 953 l 1,3,-1
 1416 1466 l 1,4,-1
 1871 1466 l 1,5,-1
 1871 0 l 1,6,-1
 1416 0 l 1,7,-1
 1416 593 l 1,8,-1
 921 593 l 1,9,-1
 921 0 l 1,10,-1
 468 0 l 1,11,-1
 468 1466 l 1,0,-1
EndSplineSet
EndChar
StartChar: I
Encoding: 73 73 44
Width: 1388
Flags: HW
Fore
468 1466 m 1,0,-1
 922 1466 l 1,1,-1
 922 0 l 1,2,-1
 468 0 l 1,3,-1
 468 1466 l 1,0,-1
EndSplineSet
EndChar
StartChar: J
Encoding: 74 74 45
Width: 2026
Flags: HW
Fore
1113 1466 m 1,0,-1
 1567 1466 l 1,1,-1
 1567 669 l 2,2,3
 1567 418 1567 418 1522.5 287 c 128,-1,4
 1478 156 1478 156 1343.5 65 c 128,-1,5
 1209 -26 1209 -26 999 -26 c 0,6,7
 777 -26 777 -26 655 34 c 128,-1,8
 533 94 533 94 466.5 209.5 c 128,-1,9
 400 325 400 325 388 495 c 1,10,-1
 821 554 l 1,11,12
 822 457 822 457 838 410 c 128,-1,13
 854 363 854 363 892 334 c 0,14,15
 918 315 918 315 966 315 c 0,16,17
 1042 315 1042 315 1077.5 371.5 c 128,-1,18
 1113 428 1113 428 1113 562 c 2,19,-1
 1113 1466 l 1,0,-1
EndSplineSet
EndChar
StartChar: K
Encoding: 75 75 46
Width: 2401
Flags: HW
Fore
468 1466 m 1,0,-1
 921 1466 l 1,1,-1
 921 912 l 1,2,-1
 1396 1466 l 1,3,-1
 1998 1466 l 1,4,-1
 1464 913 l 1,5,-1
 2022 0 l 1,6,-1
 1464 0 l 1,7,-1
 1155 603 l 1,8,-1
 921 358 l 1,9,-1
 921 0 l 1,10,-1
 468 0 l 1,11,-1
 468 1466 l 1,0,-1
EndSplineSet
EndChar
StartChar: L
Encoding: 76 76 47
Width: 2034
Flags: HW
Fore
468 1466 m 1,0,-1
 921 1466 l 1,1,-1
 921 361 l 1,2,-1
 1628 361 l 1,3,-1
 1628 0 l 1,4,-1
 468 0 l 1,5,-1
 468 1466 l 1,0,-1
EndSplineSet
EndChar
StartChar: M
Encoding: 77 77 48
Width: 2583
Flags: HW
Fore
468 1466 m 1,0,-1
 1064 1466 l 1,1,-1
 1294 574 l 1,2,-1
 1523 1466 l 1,3,-1
 2117 1466 l 1,4,-1
 2117 0 l 1,5,-1
 1747 0 l 1,6,-1
 1747 1118 l 1,7,-1
 1460 0 l 1,8,-1
 1125 0 l 1,9,-1
 839 1118 l 1,10,-1
 839 0 l 1,11,-1
 468 0 l 1,12,-1
 468 1466 l 1,0,-1
EndSplineSet
EndChar
StartChar: N
Encoding: 78 78 49
Width: 2336
Flags: HW
Fore
468 1466 m 1,0,-1
 891 1466 l 1,1,-1
 1443 655 l 1,2,-1
 1443 1466 l 1,3,-1
 1870 1466 l 1,4,-1
 1870 0 l 1,5,-1
 1443 0 l 1,6,-1
 894 805 l 1,7,-1
 894 0 l 1,8,-1
 468 0 l 1,9,-1
 468 1466 l 1,0,-1
EndSplineSet
EndChar
StartChar: O
Encoding: 79 79 50
Width: 2389
Flags: HW
Fore
431 732 m 0,0,1
 431 1091 431 1091 631 1291 c 128,-1,2
 831 1491 831 1491 1188 1491 c 0,3,4
 1554 1491 1554 1491 1752 1294.5 c 128,-1,5
 1950 1098 1950 1098 1950 744 c 0,6,7
 1950 487 1950 487 1863.5 322.5 c 128,-1,8
 1777 158 1777 158 1613.5 66.5 c 128,-1,9
 1450 -25 1450 -25 1206 -25 c 0,10,11
 958 -25 958 -25 795.5 54 c 128,-1,12
 633 133 633 133 532 304 c 128,-1,13
 431 475 431 475 431 732 c 0,0,1
884 730 m 0,14,15
 884 508 884 508 966.5 411 c 128,-1,16
 1049 314 1049 314 1191 314 c 0,17,18
 1337 314 1337 314 1417 409 c 128,-1,19
 1497 504 1497 504 1497 750 c 0,20,21
 1497 957 1497 957 1413.5 1052.5 c 128,-1,22
 1330 1148 1330 1148 1187 1148 c 0,23,24
 1050 1148 1050 1148 967 1051 c 128,-1,25
 884 954 884 954 884 730 c 0,14,15
EndSplineSet
EndChar
StartChar: P
Encoding: 80 80 51
Width: 2142
Flags: HW
Fore
468 1466 m 1,0,-1
 1221 1466 l 2,1,2
 1467 1466 1467 1466 1589.5 1349 c 128,-1,3
 1712 1232 1712 1232 1712 1016 c 0,4,5
 1712 794 1712 794 1578.5 669 c 128,-1,6
 1445 544 1445 544 1171 544 c 2,7,-1
 923 544 l 1,8,-1
 923 0 l 1,9,-1
 468 0 l 1,10,-1
 468 1466 l 1,0,-1
923 841 m 1,11,-1
 1034 841 l 2,12,13
 1165 841 1165 841 1218 886.5 c 128,-1,14
 1271 932 1271 932 1271 1003 c 0,15,16
 1271 1072 1271 1072 1225 1120 c 128,-1,17
 1179 1168 1179 1168 1052 1168 c 2,18,-1
 923 1168 l 1,19,-1
 923 841 l 1,11,-1
EndSplineSet
EndChar
StartChar: Q
Encoding: 81 81 52
Width: 2428
Flags: HW
Fore
1790 214 m 1,0,1
 1875 155 1875 155 1901 140 c 0,2,3
 1940 118 1940 118 2006 89 c 1,4,-1
 1880 -165 l 1,5,6
 1785 -119 1785 -119 1692 -55.5 c 128,-1,7
 1599 8 1599 8 1562 40 c 1,8,9
 1412 -25 1412 -25 1186 -25 c 0,10,11
 852 -25 852 -25 659 149 c 0,12,13
 431 355 431 355 431 728 c 0,14,15
 431 1090 431 1090 630.5 1290.5 c 128,-1,16
 830 1491 830 1491 1188 1491 c 0,17,18
 1553 1491 1553 1491 1751.5 1295 c 128,-1,19
 1950 1099 1950 1099 1950 734 c 0,20,21
 1950 409 1950 409 1790 214 c 1,0,1
1443 446 m 1,22,23
 1497 543 1497 543 1497 736 c 0,24,25
 1497 958 1497 958 1414.5 1053 c 128,-1,26
 1332 1148 1332 1148 1187 1148 c 0,27,28
 1052 1148 1052 1148 968 1051 c 128,-1,29
 884 954 884 954 884 748 c 0,30,31
 884 508 884 508 966 411 c 128,-1,32
 1048 314 1048 314 1191 314 c 0,33,34
 1237 314 1237 314 1278 323 c 1,35,36
 1221 378 1221 378 1098 427 c 1,37,-1
 1169 590 l 1,38,39
 1229 579 1229 579 1262.5 563 c 128,-1,40
 1296 547 1296 547 1393 479 c 0,41,42
 1416 463 1416 463 1443 446 c 1,22,23
EndSplineSet
EndChar
StartChar: R
Encoding: 82 82 53
Width: 2303
Flags: HW
Fore
468 0 m 1,0,-1
 468 1466 l 1,1,-1
 1223 1466 l 2,2,3
 1433 1466 1433 1466 1544 1430 c 128,-1,4
 1655 1394 1655 1394 1723 1296.5 c 128,-1,5
 1791 1199 1791 1199 1791 1059 c 0,6,7
 1791 937 1791 937 1739 848.5 c 128,-1,8
 1687 760 1687 760 1596 705 c 0,9,10
 1538 670 1538 670 1437 647 c 1,11,12
 1518 620 1518 620 1555 593 c 0,13,14
 1580 575 1580 575 1627.5 516 c 128,-1,15
 1675 457 1675 457 1691 425 c 2,16,-1
 1910 0 l 1,17,-1
 1398 0 l 1,18,-1
 1156 448 l 2,19,20
 1110 535 1110 535 1074 561 c 0,21,22
 1025 595 1025 595 963 595 c 2,23,-1
 923 595 l 1,24,-1
 923 0 l 1,25,-1
 468 0 l 1,0,-1
923 872 m 1,26,-1
 1114 872 l 2,27,28
 1145 872 1145 872 1234 892 c 0,29,30
 1279 901 1279 901 1307.5 938 c 128,-1,31
 1336 975 1336 975 1336 1023 c 0,32,33
 1336 1094 1336 1094 1291 1132 c 128,-1,34
 1246 1170 1246 1170 1122 1170 c 2,35,-1
 923 1170 l 1,36,-1
 923 872 l 1,26,-1
EndSplineSet
EndChar
StartChar: S
Encoding: 83 83 54
Width: 2206
Flags: HW
Fore
435 485 m 1,0,-1
 866 512 l 1,1,2
 880 407 880 407 923 352 c 0,3,4
 993 263 993 263 1123 263 c 0,5,6
 1220 263 1220 263 1272.5 308.5 c 128,-1,7
 1325 354 1325 354 1325 414 c 0,8,9
 1325 471 1325 471 1275 516 c 256,10,11
 1225 561 1225 561 1043 601 c 0,12,13
 745 668 745 668 618 779 c 0,14,15
 490 890 490 890 490 1062 c 0,16,17
 490 1175 490 1175 555.5 1275.5 c 128,-1,18
 621 1376 621 1376 752.5 1433.5 c 128,-1,19
 884 1491 884 1491 1113 1491 c 0,20,21
 1394 1491 1394 1491 1541.5 1386.5 c 128,-1,22
 1689 1282 1689 1282 1717 1054 c 1,23,-1
 1290 1029 l 1,24,25
 1273 1128 1273 1128 1218.5 1173 c 128,-1,26
 1164 1218 1164 1218 1068 1218 c 0,27,28
 989 1218 989 1218 949 1184.5 c 128,-1,29
 909 1151 909 1151 909 1103 c 0,30,31
 909 1068 909 1068 942 1040 c 0,32,33
 974 1011 974 1011 1094 986 c 0,34,35
 1391 922 1391 922 1519.5 856.5 c 128,-1,36
 1648 791 1648 791 1706.5 694 c 128,-1,37
 1765 597 1765 597 1765 477 c 0,38,39
 1765 336 1765 336 1687 217 c 128,-1,40
 1609 98 1609 98 1469 36.5 c 128,-1,41
 1329 -25 1329 -25 1116 -25 c 0,42,43
 742 -25 742 -25 598 119 c 128,-1,44
 454 263 454 263 435 485 c 1,0,-1
EndSplineSet
EndChar
StartChar: T
Encoding: 84 84 55
Width: 2182
Flags: HW
Fore
401 1466 m 1,0,-1
 1778 1466 l 1,1,-1
 1778 1104 l 1,2,-1
 1316 1104 l 1,3,-1
 1316 0 l 1,4,-1
 863 0 l 1,5,-1
 863 1104 l 1,6,-1
 401 1104 l 1,7,-1
 401 1466 l 1,0,-1
EndSplineSet
EndChar
StartChar: U
Encoding: 85 85 56
Width: 2322
Flags: HW
Fore
1411 1466 m 1,0,-1
 1863 1466 l 1,1,-1
 1863 592 l 2,2,3
 1863 462 1863 462 1822.5 346.5 c 128,-1,4
 1782 231 1782 231 1695.5 144.5 c 128,-1,5
 1609 58 1609 58 1514 23 c 0,6,7
 1382 -26 1382 -26 1197 -26 c 0,8,9
 1090 -26 1090 -26 963.5 -11 c 128,-1,10
 837 4 837 4 752 48.5 c 128,-1,11
 667 93 667 93 596.5 175 c 128,-1,12
 526 257 526 257 500 344 c 0,13,14
 458 484 458 484 458 592 c 2,15,-1
 458 1466 l 1,16,-1
 910 1466 l 1,17,-1
 910 571 l 2,18,19
 910 451 910 451 976.5 383.5 c 128,-1,20
 1043 316 1043 316 1161 316 c 0,21,22
 1278 316 1278 316 1344.5 382.5 c 128,-1,23
 1411 449 1411 449 1411 571 c 2,24,-1
 1411 1466 l 1,0,-1
EndSplineSet
EndChar
StartChar: V
Encoding: 86 86 57
Width: 2290
Flags: HW
Fore
347 1466 m 1,0,-1
 821 1466 l 1,1,-1
 1151 411 l 1,2,-1
 1476 1466 l 1,3,-1
 1936 1466 l 1,4,-1
 1392 0 l 1,5,-1
 901 0 l 1,6,-1
 347 1466 l 1,0,-1
EndSplineSet
EndChar
StartChar: W
Encoding: 87 87 58
Width: 2827
Flags: HW
Fore
386 1466 m 1,0,-1
 816 1466 l 1,1,-1
 971 647 l 1,2,-1
 1197 1466 l 1,3,-1
 1626 1466 l 1,4,-1
 1853 647 l 1,5,-1
 2008 1466 l 1,6,-1
 2436 1466 l 1,7,-1
 2113 0 l 1,8,-1
 1669 0 l 1,9,-1
 1412 923 l 1,10,-1
 1156 0 l 1,11,-1
 712 0 l 1,12,-1
 386 1466 l 1,0,-1
EndSplineSet
EndChar
StartChar: X
Encoding: 88 88 59
Width: 2367
Flags: HW
Fore
439 1466 m 1,0,-1
 938 1466 l 1,1,-1
 1198 1015 l 1,2,-1
 1450 1466 l 1,3,-1
 1944 1466 l 1,4,-1
 1488 756 l 1,5,-1
 1987 0 l 1,6,-1
 1478 0 l 1,7,-1
 1189 471 l 1,8,-1
 899 0 l 1,9,-1
 393 0 l 1,10,-1
 899 764 l 1,11,-1
 439 1466 l 1,0,-1
EndSplineSet
EndChar
StartChar: Y
Encoding: 89 89 60
Width: 2180
Flags: HW
Fore
289 1466 m 1,0,-1
 792 1466 l 1,1,-1
 1088 971 l 1,2,-1
 1384 1466 l 1,3,-1
 1884 1466 l 1,4,-1
 1314 614 l 1,5,-1
 1314 0 l 1,6,-1
 860 0 l 1,7,-1
 860 614 l 1,8,-1
 289 1466 l 1,0,-1
EndSplineSet
EndChar
StartChar: Z
Encoding: 90 90 61
Width: 2276
Flags: HW
Fore
514 1466 m 1,0,-1
 1796 1466 l 1,1,-1
 1796 1173 l 1,2,-1
 974 315 l 1,3,-1
 1826 315 l 1,4,-1
 1826 0 l 1,5,-1
 435 0 l 1,6,-1
 435 304 l 1,7,-1
 1248 1153 l 1,8,-1
 514 1153 l 1,9,-1
 514 1466 l 1,0,-1
EndSplineSet
EndChar
StartChar: bracketleft
Encoding: 91 91 62
Width: 797
Flags: W
Fore
135 1466 m 1,0,-1
 750 1466 l 1,1,-1
 750 1150 l 1,2,-1
 507 1150 l 1,3,-1
 507 -91 l 1,4,-1
 750 -91 l 1,5,-1
 750 -407 l 1,6,-1
 135 -407 l 1,7,-1
 135 1466 l 1,0,-1
EndSplineSet
EndChar
StartChar: asciicircum
Encoding: 94 94 65
Width: 1352
Flags: W
Fore
533 1491 m 1,0,-1
 812 1491 l 1,1,-1
 1220 678 l 1,2,-1
 867 678 l 1,3,-1
 674 1169 l 1,4,-1
 479 678 l 1,5,-1
 125 678 l 1,6,-1
 533 1491 l 1,0,-1
EndSplineSet
EndChar
StartChar: underscore
Encoding: 95 95 66
Width: 1024
Flags: W
Fore
-12 -154 m 1,0,-1
 1036 -154 l 1,1,-1
 1036 -256 l 1,2,-1
 -12 -256 l 1,3,-1
 -12 -154 l 1,0,-1
EndSplineSet
EndChar
StartChar: grave
Encoding: 96 96 67
Width: 682
Flags: W
Fore
1 1491 m 1,0,-1
 348 1491 l 1,1,-1
 512 1193 l 1,2,-1
 320 1193 l 1,3,-1
 1 1491 l 1,0,-1
EndSplineSet
EndChar
StartChar: a
Encoding: 97 97 68
Width: 2060
Flags: HW
Fore
844 718 m 1,0,-1
 455 759 l 1,1,2
 477 861 477 861 518.5 919.5 c 128,-1,3
 560 978 560 978 638 1021 c 0,4,5
 694 1052 694 1052 792 1069 c 128,-1,6
 890 1086 890 1086 1004 1086 c 0,7,8
 1187 1086 1187 1086 1298 1065.5 c 128,-1,9
 1409 1045 1409 1045 1483 980 c 0,10,11
 1535 935 1535 935 1565 852.5 c 128,-1,12
 1595 770 1595 770 1595 695 c 2,13,-1
 1595 226 l 2,14,15
 1595 151 1595 151 1604.5 108.5 c 128,-1,16
 1614 66 1614 66 1646 0 c 1,17,-1
 1264 0 l 1,18,19
 1241 41 1241 41 1234 62.5 c 128,-1,20
 1227 84 1227 84 1220 130 c 1,21,22
 1140 53 1140 53 1061 20 c 0,23,24
 953 -24 953 -24 810 -24 c 0,25,26
 620 -24 620 -24 521.5 64 c 128,-1,27
 423 152 423 152 423 281 c 0,28,29
 423 402 423 402 494 480 c 256,30,31
 565 558 565 558 756 596 c 0,32,33
 985 642 985 642 1053 660.5 c 128,-1,34
 1121 679 1121 679 1197 709 c 1,35,36
 1197 784 1197 784 1166 814 c 128,-1,37
 1135 844 1135 844 1057 844 c 0,38,39
 957 844 957 844 907 812 c 0,40,41
 868 787 868 787 844 718 c 1,0,-1
1197 504 m 1,42,43
 1113 474 1113 474 1022 451 c 0,44,45
 898 418 898 418 865 386 c 0,46,47
 831 353 831 353 831 311 c 0,48,49
 831 263 831 263 864.5 232.5 c 128,-1,50
 898 202 898 202 963 202 c 0,51,52
 1031 202 1031 202 1089.5 235 c 128,-1,53
 1148 268 1148 268 1172.5 315.5 c 128,-1,54
 1197 363 1197 363 1197 439 c 2,55,-1
 1197 504 l 1,42,43
EndSplineSet
EndChar
StartChar: b
Encoding: 98 98 69
Width: 2063
Flags: HW
Fore
468 1466 m 1,0,-1
 879 1466 l 1,1,-1
 879 958 l 1,2,3
 940 1022 940 1022 1017.5 1054 c 128,-1,4
 1095 1086 1095 1086 1189 1086 c 0,5,6
 1383 1086 1383 1086 1510 946.5 c 128,-1,7
 1637 807 1637 807 1637 546 c 0,8,9
 1637 372 1637 372 1579 239.5 c 128,-1,10
 1521 107 1521 107 1418.5 41.5 c 128,-1,11
 1316 -24 1316 -24 1191 -24 c 0,12,13
 1084 -24 1084 -24 995 22 c 0,14,15
 928 58 928 58 849 157 c 1,16,-1
 849 0 l 1,17,-1
 468 0 l 1,18,-1
 468 1466 l 1,0,-1
876 534 m 0,19,20
 876 397 876 397 927.5 335.5 c 128,-1,21
 979 274 979 274 1058 274 c 0,22,23
 1131 274 1131 274 1180.5 334.5 c 128,-1,24
 1230 395 1230 395 1230 538 c 0,25,26
 1230 664 1230 664 1181.5 723 c 128,-1,27
 1133 782 1133 782 1064 782 c 0,28,29
 981 782 981 782 928.5 720.5 c 128,-1,30
 876 659 876 659 876 534 c 0,19,20
EndSplineSet
EndChar
StartChar: c
Encoding: 99 99 70
Width: 2064
Flags: HW
Fore
1255 415 m 1,0,-1
 1642 371 l 1,1,2
 1610 250 1610 250 1537 161.5 c 128,-1,3
 1464 73 1464 73 1350.5 24 c 128,-1,4
 1237 -25 1237 -25 1062 -25 c 0,5,6
 893 -25 893 -25 780.5 6.5 c 128,-1,7
 668 38 668 38 587 108.5 c 128,-1,8
 506 179 506 179 460 274 c 128,-1,9
 414 369 414 369 414 526 c 0,10,11
 414 690 414 690 470 799 c 0,12,13
 511 879 511 879 582 942.5 c 128,-1,14
 653 1006 653 1006 728 1037 c 0,15,16
 847 1086 847 1086 1033 1086 c 0,17,18
 1293 1086 1293 1086 1429.5 993 c 128,-1,19
 1566 900 1566 900 1621 721 c 1,20,-1
 1238 670 l 1,21,22
 1220 738 1220 738 1172.5 772.5 c 128,-1,23
 1125 807 1125 807 1045 807 c 0,24,25
 944 807 944 807 881.5 734.5 c 128,-1,26
 819 662 819 662 819 515 c 0,27,28
 819 384 819 384 881 316 c 128,-1,29
 943 248 943 248 1039 248 c 0,30,31
 1119 248 1119 248 1173.5 289 c 128,-1,32
 1228 330 1228 330 1255 415 c 1,0,-1
EndSplineSet
EndChar
StartChar: d
Encoding: 100 100 71
Width: 2053
Flags: HW
Fore
1587 1466 m 1,0,-1
 1587 0 l 1,1,-1
 1206 0 l 1,2,-1
 1206 157 l 1,3,4
 1126 57 1126 57 1060 22 c 0,5,6
 972 -24 972 -24 864 -24 c 0,7,8
 647 -24 647 -24 532.5 141 c 128,-1,9
 418 306 418 306 418 542 c 0,10,11
 418 806 418 806 544.5 946 c 128,-1,12
 671 1086 671 1086 866 1086 c 0,13,14
 961 1086 961 1086 1038.5 1054 c 128,-1,15
 1116 1022 1116 1022 1176 958 c 1,16,-1
 1176 1466 l 1,17,-1
 1587 1466 l 1,0,-1
1179 534 m 0,18,19
 1179 659 1179 659 1126 720.5 c 128,-1,20
 1073 782 1073 782 992 782 c 0,21,22
 921 782 921 782 873 723 c 128,-1,23
 825 664 825 664 825 525 c 0,24,25
 825 395 825 395 874.5 334.5 c 128,-1,26
 924 274 924 274 997 274 c 0,27,28
 1075 274 1075 274 1127 335 c 128,-1,29
 1179 396 1179 396 1179 534 c 0,18,19
EndSplineSet
EndChar
StartChar: e
Encoding: 101 101 72
Width: 2064
Flags: HW
Fore
1642 430 m 1,0,-1
 826 430 l 1,1,2
 837 332 837 332 879 284 c 0,3,4
 938 215 938 215 1033 215 c 0,5,6
 1093 215 1093 215 1147 245 c 0,7,8
 1180 264 1180 264 1218 312 c 1,9,-1
 1619 275 l 1,10,11
 1527 115 1527 115 1397 45.5 c 128,-1,12
 1267 -24 1267 -24 1024 -24 c 0,13,14
 813 -24 813 -24 692 35.5 c 128,-1,15
 571 95 571 95 491.5 224.5 c 128,-1,16
 412 354 412 354 412 529 c 0,17,18
 412 778 412 778 571.5 932 c 128,-1,19
 731 1086 731 1086 1012 1086 c 0,20,21
 1240 1086 1240 1086 1372 1017 c 128,-1,22
 1504 948 1504 948 1573 817 c 128,-1,23
 1642 686 1642 686 1642 476 c 2,24,-1
 1642 430 l 1,0,-1
1228 625 m 1,25,26
 1216 743 1216 743 1164.5 794 c 128,-1,27
 1113 845 1113 845 1029 845 c 0,28,29
 932 845 932 845 874 768 c 0,30,31
 837 720 837 720 827 625 c 1,32,-1
 1228 625 l 1,25,26
EndSplineSet
EndChar
StartChar: f
Encoding: 102 102 73
Width: 1672
Flags: HW
Fore
991 1062 m 1,0,-1
 1185 1062 l 1,1,-1
 1185 764 l 1,2,-1
 991 764 l 1,3,-1
 991 0 l 1,4,-1
 583 0 l 1,5,-1
 583 764 l 1,6,-1
 431 764 l 1,7,-1
 431 1062 l 1,8,-1
 583 1062 l 1,9,-1
 583 1110 l 2,10,11
 583 1175 583 1175 597 1253 c 128,-1,12
 611 1331 611 1331 649.5 1380.5 c 128,-1,13
 688 1430 688 1430 757.5 1460.5 c 128,-1,14
 827 1491 827 1491 961 1491 c 0,15,16
 1068 1491 1068 1491 1272 1466 c 1,17,-1
 1227 1220 l 1,18,19
 1154 1232 1154 1232 1109 1232 c 0,20,21
 1054 1232 1054 1232 1030 1213.5 c 128,-1,22
 1006 1195 1006 1195 996 1155 c 0,23,24
 991 1133 991 1133 991 1062 c 1,0,-1
EndSplineSet
EndChar
StartChar: g
Encoding: 103 103 74
Width: 2063
Flags: HW
Fore
1220 1062 m 1,0,-1
 1601 1062 l 1,1,-1
 1601 59 l 1,2,-1
 1602 12 l 2,3,4
 1602 -88 1602 -88 1559.5 -178.5 c 128,-1,5
 1517 -269 1517 -269 1446.5 -325 c 128,-1,6
 1376 -381 1376 -381 1267.5 -406 c 128,-1,7
 1159 -431 1159 -431 1019 -431 c 0,8,9
 699 -431 699 -431 579.5 -335 c 128,-1,10
 460 -239 460 -239 460 -78 c 0,11,12
 460 -58 460 -58 462 -24 c 1,13,-1
 857 -69 l 1,14,15
 872 -124 872 -124 903 -145 c 0,16,17
 948 -176 948 -176 1016 -176 c 0,18,19
 1104 -176 1104 -176 1147.5 -129 c 128,-1,20
 1191 -82 1191 -82 1191 35 c 2,21,-1
 1191 196 l 1,22,23
 1131 125 1131 125 1071 93 c 0,24,25
 977 43 977 43 868 43 c 0,26,27
 655 43 655 43 524 229 c 0,28,29
 431 361 431 361 431 578 c 0,30,31
 431 826 431 826 551 956 c 128,-1,32
 671 1086 671 1086 865 1086 c 0,33,34
 989 1086 989 1086 1069.5 1044 c 128,-1,35
 1150 1002 1150 1002 1220 905 c 1,36,-1
 1220 1062 l 1,0,-1
837 547 m 0,37,38
 837 432 837 432 886 376.5 c 128,-1,39
 935 321 935 321 1015 321 c 0,40,41
 1091 321 1091 321 1142.5 378.5 c 128,-1,42
 1194 436 1194 436 1194 552 c 256,43,44
 1194 668 1194 668 1140 729.5 c 128,-1,45
 1086 791 1086 791 1008 791 c 256,46,47
 930 791 930 791 883.5 734.5 c 128,-1,48
 837 678 837 678 837 547 c 0,37,38
EndSplineSet
EndChar
StartChar: h
Encoding: 104 104 75
Width: 2036
Flags: HW
Fore
468 1466 m 1,0,-1
 875 1466 l 1,1,-1
 875 926 l 1,2,3
 958 1012 958 1012 1040 1049 c 128,-1,4
 1122 1086 1122 1086 1234 1086 c 0,5,6
 1400 1086 1400 1086 1495.5 985 c 128,-1,7
 1591 884 1591 884 1591 675 c 2,8,-1
 1591 0 l 1,9,-1
 1182 0 l 1,10,-1
 1182 584 l 2,11,12
 1182 684 1182 684 1145 725.5 c 128,-1,13
 1108 767 1108 767 1041 767 c 0,14,15
 967 767 967 767 921 711 c 128,-1,16
 875 655 875 655 875 510 c 2,17,-1
 875 0 l 1,18,-1
 468 0 l 1,19,-1
 468 1466 l 1,0,-1
EndSplineSet
EndChar
StartChar: i
Encoding: 105 105 76
Width: 1341
Flags: HW
Fore
468 1466 m 1,0,-1
 875 1466 l 1,1,-1
 875 1189 l 1,2,-1
 468 1189 l 1,3,-1
 468 1466 l 1,0,-1
468 1062 m 1,4,-1
 875 1062 l 1,5,-1
 875 0 l 1,6,-1
 468 0 l 1,7,-1
 468 1062 l 1,4,-1
EndSplineSet
EndChar
StartChar: j
Encoding: 106 106 77
Width: 1367
Flags: HW
Fore
490 1466 m 1,0,-1
 898 1466 l 1,1,-1
 898 1186 l 1,2,-1
 490 1186 l 1,3,-1
 490 1466 l 1,0,-1
490 1062 m 1,4,-1
 898 1062 l 1,5,-1
 898 32 l 2,6,7
 898 -165 898 -165 869.5 -247 c 128,-1,8
 841 -329 841 -329 764 -380 c 128,-1,9
 687 -431 687 -431 544 -431 c 0,10,11
 426 -431 426 -431 251 -396 c 1,12,-1
 312 -100 l 1,13,14
 361 -110 361 -110 384 -110 c 0,15,16
 436 -110 436 -110 463 -74.5 c 128,-1,17
 490 -39 490 -39 490 67 c 2,18,-1
 490 1062 l 1,4,-1
EndSplineSet
EndChar
StartChar: k
Encoding: 107 107 78
Width: 2135
Flags: HW
Fore
468 1466 m 1,0,-1
 884 1466 l 1,1,-1
 884 710 l 1,2,-1
 1188 1062 l 1,3,-1
 1689 1062 l 1,4,-1
 1308 690 l 1,5,-1
 1711 0 l 1,6,-1
 1252 0 l 1,7,-1
 1037 426 l 1,8,-1
 884 276 l 1,9,-1
 884 0 l 1,10,-1
 468 0 l 1,11,-1
 468 1466 l 1,0,-1
EndSplineSet
EndChar
StartChar: l
Encoding: 108 108 79
Width: 1342
Flags: HW
Fore
468 1466 m 1,0,-1
 876 1466 l 1,1,-1
 876 0 l 1,2,-1
 468 0 l 1,3,-1
 468 1466 l 1,0,-1
EndSplineSet
EndChar
StartChar: m
Encoding: 109 109 80
Width: 2704
Flags: HW
Fore
457 1062 m 1,0,-1
 837 1062 l 1,1,-1
 837 907 l 1,2,3
 919 1004 919 1004 1002.5 1045 c 128,-1,4
 1086 1086 1086 1086 1204 1086 c 0,5,6
 1331 1086 1331 1086 1405 1041 c 128,-1,7
 1479 996 1479 996 1526 907 c 1,8,9
 1622 1011 1622 1011 1701 1048.5 c 128,-1,10
 1780 1086 1780 1086 1896 1086 c 0,11,12
 2067 1086 2067 1086 2163 984.5 c 128,-1,13
 2259 883 2259 883 2259 667 c 2,14,-1
 2259 0 l 1,15,-1
 1851 0 l 1,16,-1
 1851 605 l 2,17,18
 1851 677 1851 677 1823 712 c 0,19,20
 1782 767 1782 767 1721 767 c 0,21,22
 1649 767 1649 767 1605 715 c 128,-1,23
 1561 663 1561 663 1561 548 c 2,24,-1
 1561 0 l 1,25,-1
 1153 0 l 1,26,-1
 1153 585 l 2,27,28
 1153 655 1153 655 1145 680 c 0,29,30
 1132 720 1132 720 1100 744.5 c 128,-1,31
 1068 769 1068 769 1025 769 c 0,32,33
 955 769 955 769 910 716 c 128,-1,34
 865 663 865 663 865 542 c 2,35,-1
 865 0 l 1,36,-1
 457 0 l 1,37,-1
 457 1062 l 1,0,-1
EndSplineSet
EndChar
StartChar: n
Encoding: 110 110 81
Width: 2025
Flags: W
HStem: 0 21G<457 864 1171 1580> 767 319<1010.23 1260.92>
VStem: 457 407<0 709.228> 1171 409<0 724.189>
Fore
457 1062 m 1,0,-1
 836 1062 l 1,1,-1
 836 889 l 1,2,3
 921 995 921 995 1008 1040.5 c 128,-1,4
 1095 1086 1095 1086 1220 1086 c 0,5,6
 1389 1086 1389 1086 1484.5 985.5 c 128,-1,7
 1580 885 1580 885 1580 675 c 2,8,-1
 1580 0 l 1,9,-1
 1171 0 l 1,10,-1
 1171 584 l 2,11,12
 1171 684 1171 684 1134 725.5 c 128,-1,13
 1097 767 1097 767 1030 767 c 0,14,15
 956 767 956 767 910 711 c 128,-1,16
 864 655 864 655 864 510 c 2,17,-1
 864 0 l 1,18,-1
 457 0 l 1,19,-1
 457 1062 l 1,0,-1
EndSplineSet
EndChar
StartChar: o
Encoding: 111 111 82
Width: 2051
Flags: HW
Fore
411 528 m 0,0,1
 411 771 411 771 575 928.5 c 128,-1,2
 739 1086 739 1086 1018 1086 c 0,3,4
 1337 1086 1337 1086 1500 901 c 0,5,6
 1631 752 1631 752 1631 534 c 0,7,8
 1631 289 1631 289 1468.5 132.5 c 128,-1,9
 1306 -24 1306 -24 1019 -24 c 0,10,11
 763 -24 763 -24 605 106 c 0,12,13
 411 267 411 267 411 528 c 0,0,1
819 529 m 0,14,15
 819 387 819 387 876.5 319 c 128,-1,16
 934 251 934 251 1021 251 c 0,17,18
 1109 251 1109 251 1165.5 318 c 128,-1,19
 1222 385 1222 385 1222 533 c 0,20,21
 1222 671 1222 671 1165 738.5 c 128,-1,22
 1108 806 1108 806 1024 806 c 0,23,24
 935 806 935 806 877 737.5 c 128,-1,25
 819 669 819 669 819 529 c 0,14,15
EndSplineSet
EndChar
StartChar: p
Encoding: 112 112 83
Width: 2052
Flags: HW
Fore
457 -404 m 1,0,-1
 457 1062 l 1,1,-1
 838 1062 l 1,2,-1
 838 905 l 1,3,4
 917 1004 917 1004 983 1039 c 0,5,6
 1072 1086 1072 1086 1180 1086 c 0,7,8
 1393 1086 1393 1086 1509.5 923 c 128,-1,9
 1626 760 1626 760 1626 520 c 0,10,11
 1626 255 1626 255 1499 115.5 c 128,-1,12
 1372 -24 1372 -24 1178 -24 c 0,13,14
 1084 -24 1084 -24 1006.5 8 c 128,-1,15
 929 40 929 40 868 103 c 1,16,-1
 868 -404 l 1,17,-1
 457 -404 l 1,0,-1
865 528 m 0,18,19
 865 402 865 402 918 341 c 128,-1,20
 971 280 971 280 1052 280 c 0,21,22
 1123 280 1123 280 1171 338.5 c 128,-1,23
 1219 397 1219 397 1219 537 c 0,24,25
 1219 666 1219 666 1169 726.5 c 128,-1,26
 1119 787 1119 787 1047 787 c 0,27,28
 969 787 969 787 917 726 c 128,-1,29
 865 665 865 665 865 528 c 0,18,19
EndSplineSet
EndChar
StartChar: q
Encoding: 113 113 84
Width: 2049
Flags: HW
Fore
1587 -404 m 1,0,-1
 1176 -404 l 1,1,-1
 1176 103 l 1,2,3
 1116 40 1116 40 1038.5 8 c 128,-1,4
 961 -24 961 -24 866 -24 c 0,5,6
 672 -24 672 -24 545 115.5 c 128,-1,7
 418 255 418 255 418 515 c 0,8,9
 418 689 418 689 476 822 c 128,-1,10
 534 955 534 955 637 1020.5 c 128,-1,11
 740 1086 740 1086 864 1086 c 0,12,13
 971 1086 971 1086 1061 1039 c 0,14,15
 1127 1004 1127 1004 1206 905 c 1,16,-1
 1206 1062 l 1,17,-1
 1587 1062 l 1,18,-1
 1587 -404 l 1,0,-1
1179 528 m 0,19,20
 1179 665 1179 665 1127.5 726 c 128,-1,21
 1076 787 1076 787 997 787 c 0,22,23
 924 787 924 787 874.5 726.5 c 128,-1,24
 825 666 825 666 825 524 c 0,25,26
 825 397 825 397 873.5 338.5 c 128,-1,27
 922 280 922 280 992 280 c 0,28,29
 1074 280 1074 280 1126.5 341 c 128,-1,30
 1179 402 1179 402 1179 528 c 0,19,20
EndSplineSet
EndChar
StartChar: r
Encoding: 114 114 85
Width: 1705
Flags: HW
Fore
457 1062 m 1,0,-1
 838 1062 l 1,1,-1
 838 888 l 1,2,3
 893 1001 893 1001 951.5 1043.5 c 128,-1,4
 1010 1086 1010 1086 1096 1086 c 0,5,6
 1186 1086 1186 1086 1293 1030 c 1,7,-1
 1167 740 l 1,8,9
 1095 770 1095 770 1053 770 c 0,10,11
 973 770 973 770 929 704 c 0,12,13
 866 611 866 611 866 356 c 2,14,-1
 866 0 l 1,15,-1
 457 0 l 1,16,-1
 457 1062 l 1,0,-1
EndSplineSet
EndChar
StartChar: s
Encoding: 115 115 86
Width: 1972
Flags: HW
Fore
417 294 m 1,0,-1
 821 332 l 1,1,2
 846 260 846 260 891 229 c 128,-1,3
 936 198 936 198 1011 198 c 0,4,5
 1093 198 1093 198 1138 233 c 0,6,7
 1173 259 1173 259 1173 298 c 0,8,9
 1173 342 1173 342 1127 366 c 0,10,11
 1094 383 1094 383 952 408 c 0,12,13
 740 445 740 445 657.5 476.5 c 128,-1,14
 575 508 575 508 518.5 583 c 128,-1,15
 462 658 462 658 462 754 c 0,16,17
 462 859 462 859 523 935 c 128,-1,18
 584 1011 584 1011 691 1048.5 c 128,-1,19
 798 1086 798 1086 978 1086 c 0,20,21
 1168 1086 1168 1086 1258.5 1057 c 128,-1,22
 1349 1028 1349 1028 1409.5 967 c 128,-1,23
 1470 906 1470 906 1510 802 c 1,24,-1
 1124 764 l 1,25,26
 1109 815 1109 815 1074 839 c 0,27,28
 1026 871 1026 871 958 871 c 0,29,30
 889 871 889 871 857.5 846.5 c 128,-1,31
 826 822 826 822 826 787 c 0,32,33
 826 748 826 748 866 728 c 256,34,35
 906 708 906 708 1040 692 c 0,36,37
 1243 669 1243 669 1342 628 c 128,-1,38
 1441 587 1441 587 1493.5 511 c 128,-1,39
 1546 435 1546 435 1546 344 c 0,40,41
 1546 252 1546 252 1490.5 165 c 128,-1,42
 1435 78 1435 78 1315.5 26.5 c 128,-1,43
 1196 -25 1196 -25 990 -25 c 0,44,45
 699 -25 699 -25 575.5 58 c 128,-1,46
 452 141 452 141 417 294 c 1,0,-1
EndSplineSet
EndChar
StartChar: t
Encoding: 116 116 87
Width: 1670
Flags: HW
Fore
986 1466 m 1,0,-1
 986 1062 l 1,1,-1
 1210 1062 l 1,2,-1
 1210 765 l 1,3,-1
 986 765 l 1,4,-1
 986 388 l 2,5,6
 986 320 986 320 999 298 c 0,7,8
 1019 264 1019 264 1069 264 c 0,9,10
 1114 264 1114 264 1195 290 c 1,11,-1
 1225 9 l 1,12,13
 1074 -24 1074 -24 943 -24 c 0,14,15
 791 -24 791 -24 719 15 c 128,-1,16
 647 54 647 54 612.5 133.5 c 128,-1,17
 578 213 578 213 578 391 c 2,18,-1
 578 765 l 1,19,-1
 428 765 l 1,20,-1
 428 1062 l 1,21,-1
 578 1062 l 1,22,-1
 578 1257 l 1,23,-1
 986 1466 l 1,0,-1
EndSplineSet
EndChar
StartChar: u
Encoding: 117 117 88
Width: 2032
Flags: HW
Fore
1573 0 m 1,0,-1
 1193 0 l 1,1,-1
 1193 172 l 1,2,3
 1108 66 1108 66 1021.5 21 c 128,-1,4
 935 -24 935 -24 809 -24 c 0,5,6
 641 -24 641 -24 545.5 76.5 c 128,-1,7
 450 177 450 177 450 386 c 2,8,-1
 450 1062 l 1,9,-1
 859 1062 l 1,10,-1
 859 478 l 2,11,12
 859 378 859 378 896 336 c 128,-1,13
 933 294 933 294 1000 294 c 0,14,15
 1073 294 1073 294 1119.5 350 c 128,-1,16
 1166 406 1166 406 1166 551 c 2,17,-1
 1166 1062 l 1,18,-1
 1573 1062 l 1,19,-1
 1573 0 l 1,0,-1
EndSplineSet
EndChar
StartChar: v
Encoding: 118 118 89
Width: 2069
Flags: HW
Fore
401 1062 m 1,0,-1
 825 1062 l 1,1,-1
 1031 389 l 1,2,-1
 1244 1062 l 1,3,-1
 1655 1062 l 1,4,-1
 1204 0 l 1,5,-1
 843 0 l 1,6,-1
 401 1062 l 1,0,-1
EndSplineSet
EndChar
StartChar: w
Encoding: 119 119 90
Width: 2752
Flags: HW
Fore
403 1062 m 1,0,-1
 797 1062 l 1,1,-1
 968 393 l 1,2,-1
 1184 1062 l 1,3,-1
 1551 1062 l 1,4,-1
 1775 393 l 1,5,-1
 1946 1062 l 1,6,-1
 2337 1062 l 1,7,-1
 1946 0 l 1,8,-1
 1584 0 l 1,9,-1
 1369 639 l 1,10,-1
 1161 0 l 1,11,-1
 797 0 l 1,12,-1
 403 1062 l 1,0,-1
EndSplineSet
EndChar
StartChar: x
Encoding: 120 120 91
Width: 2185
Flags: HW
Fore
442 1062 m 1,0,-1
 925 1062 l 1,1,-1
 1094 766 l 1,2,-1
 1290 1062 l 1,3,-1
 1739 1062 l 1,4,-1
 1377 556 l 1,5,-1
 1765 0 l 1,6,-1
 1290 0 l 1,7,-1
 1094 342 l 1,8,-1
 863 0 l 1,9,-1
 422 0 l 1,10,-1
 808 556 l 1,11,-1
 442 1062 l 1,0,-1
EndSplineSet
EndChar
StartChar: y
Encoding: 121 121 92
Width: 2069
Flags: HW
Fore
401 1062 m 1,0,-1
 831 1062 l 1,1,-1
 1050 355 l 1,2,-1
 1253 1062 l 1,3,-1
 1654 1062 l 1,4,-1
 1233 -73 l 2,5,6
 1161 -267 1161 -267 1086 -335 c 0,7,8
 980 -431 980 -431 763 -431 c 0,9,10
 675 -431 675 -431 491 -407 c 1,11,-1
 459 -123 l 1,12,13
 547 -151 547 -151 655 -151 c 0,14,15
 727 -151 727 -151 771.5 -118 c 128,-1,16
 816 -85 816 -85 847 0 c 1,17,-1
 401 1062 l 1,0,-1
EndSplineSet
EndChar
StartChar: z
Encoding: 122 122 93
Width: 1945
Flags: HW
Fore
482 1062 m 1,0,-1
 1467 1062 l 1,1,-1
 1467 824 l 1,2,-1
 931 278 l 1,3,-1
 1500 278 l 1,4,-1
 1500 0 l 1,5,-1
 442 0 l 1,6,-1
 442 264 l 1,7,-1
 950 784 l 1,8,-1
 482 784 l 1,9,-1
 482 1062 l 1,0,-1
EndSplineSet
EndChar
StartChar: braceleft
Encoding: 123 123 94
Width: 797
Flags: W
Fore
774 1491 m 1,0,-1
 774 1163 l 1,1,-1
 729 1163 l 2,2,3
 666 1163 666 1163 634.5 1136.5 c 128,-1,4
 603 1110 603 1110 590 1055 c 0,5,6
 583 1025 583 1025 582 890.5 c 128,-1,7
 581 756 581 756 554 679 c 0,8,9
 534 620 534 620 497 584 c 0,10,11
 469 557 469 557 405 529 c 1,12,13
 472 498 472 498 504.5 464.5 c 128,-1,14
 537 431 537 431 560 362.5 c 128,-1,15
 583 294 583 294 583 144 c 0,16,17
 583 9 583 9 597 -32 c 128,-1,18
 611 -73 611 -73 643.5 -90 c 128,-1,19
 676 -107 676 -107 774 -107 c 1,20,-1
 774 -431 l 1,21,-1
 648 -431 l 2,22,23
 453 -431 453 -431 371 -388.5 c 128,-1,24
 289 -346 289 -346 254 -264.5 c 128,-1,25
 219 -183 219 -183 219 -20 c 0,26,27
 219 16 219 16 221 52 c 0,28,29
 222 74 222 74 222 97 c 0,30,31
 222 213 222 213 201 262 c 128,-1,32
 180 311 180 311 140.5 333 c 128,-1,33
 101 355 101 355 26 357 c 1,34,-1
 26 700 l 1,35,36
 103 700 103 700 141.5 724 c 128,-1,37
 180 748 180 748 200 797.5 c 128,-1,38
 220 847 220 847 220 965 c 2,39,-1
 220 999 l 2,40,41
 219 1022 219 1022 219 1045 c 0,42,43
 219 1222 219 1222 248.5 1301 c 128,-1,44
 278 1380 278 1380 330 1422 c 0,45,46
 369 1454 369 1454 436 1470 c 0,47,48
 525 1491 525 1491 639 1491 c 2,49,-1
 774 1491 l 1,0,-1
EndSplineSet
EndChar
StartChar: bar
Encoding: 124 124 95
Width: 569
Flags: W
Fore
160 1466 m 1,0,-1
 415 1466 l 1,1,-1
 415 -404 l 1,2,-1
 160 -404 l 1,3,-1
 160 1466 l 1,0,-1
EndSplineSet
EndChar
StartChar: asciitilde
Encoding: 126 126 97
Width: 1352
Flags: W
Fore
1246 972 m 1,0,-1
 1246 646 l 1,1,2
 1131 554 1131 554 1060 523 c 128,-1,3
 989 492 989 492 913 492 c 0,4,5
 855 492 855 492 796.5 509 c 128,-1,6
 738 526 738 526 613.5 589 c 128,-1,7
 489 652 489 652 417 652 c 0,8,9
 263 652 263 652 99 492 c 1,10,-1
 99 821 l 1,11,12
 192 904 192 904 273 939 c 128,-1,13
 354 974 354 974 450 974 c 0,14,15
 499 974 499 974 553 958.5 c 128,-1,16
 607 943 607 943 711.5 892 c 128,-1,17
 816 841 816 841 860 828 c 128,-1,18
 904 815 904 815 943 815 c 0,19,20
 1077 815 1077 815 1246 972 c 1,0,-1
EndSplineSet
EndChar
StartChar: Aring
Encoding: 197 197 99
Width: 1593
Flags: W
Fore
587 1466 m 1,0,1
 555 1522 555 1522 555 1587 c 0,2,3
 555 1686 555 1686 625.5 1757 c 128,-1,4
 696 1828 696 1828 795 1828 c 0,5,6
 895 1828 895 1828 965.5 1757.5 c 128,-1,7
 1036 1687 1036 1687 1036 1587 c 0,8,9
 1036 1522 1036 1522 1003 1466 c 1,10,-1
 1047 1466 l 1,11,-1
 1598 0 l 1,12,-1
 1124 0 l 1,13,-1
 1047 242 l 1,14,-1
 541 242 l 1,15,-1
 465 0 l 1,16,-1
 2 0 l 1,17,-1
 553 1466 l 1,18,-1
 587 1466 l 1,0,1
692 1588 m 0,19,20
 692 1544 692 1544 722 1514 c 128,-1,21
 752 1484 752 1484 795 1484 c 0,22,23
 837 1484 837 1484 867 1514 c 128,-1,24
 897 1544 897 1544 897 1587 c 256,25,26
 897 1630 897 1630 867 1660 c 128,-1,27
 837 1690 837 1690 795 1690 c 0,28,29
 752 1690 752 1690 722 1660 c 128,-1,30
 692 1630 692 1630 692 1588 c 0,19,20
945 577 m 1,31,-1
 795 1062 l 1,32,-1
 646 577 l 1,33,-1
 945 577 l 1,31,-1
EndSplineSet
EndChar
StartChar: dagger
Encoding: 8224 8224 130
Width: 1366
Flags: W
Fore
511 1466 m 1,0,-1
 863 1466 l 1,1,-1
 863 1086 l 1,2,-1
 1237 1086 l 1,3,-1
 1237 790 l 1,4,-1
 863 790 l 1,5,-1
 863 -407 l 1,6,-1
 511 -407 l 1,7,-1
 511 790 l 1,8,-1
 141 790 l 1,9,-1
 141 1086 l 1,10,-1
 511 1086 l 1,11,-1
 511 1466 l 1,0,-1
EndSplineSet
EndChar
StartChar: degree
Encoding: 176 176 131
Width: 819
Flags: W
Fore
692 1206 m 0,0,1
 692 1088 692 1088 608 1004 c 128,-1,2
 524 920 524 920 405 920 c 0,3,4
 287 920 287 920 203 1004 c 128,-1,5
 119 1088 119 1088 119 1206 c 0,6,7
 119 1325 119 1325 203 1408.5 c 128,-1,8
 287 1492 287 1492 405 1492 c 0,9,10
 524 1492 524 1492 608 1408.5 c 128,-1,11
 692 1325 692 1325 692 1206 c 0,0,1
506 1207 m 256,12,13
 506 1249 506 1249 476.5 1279 c 128,-1,14
 447 1309 447 1309 405 1309 c 256,15,16
 363 1309 363 1309 333 1279 c 128,-1,17
 303 1249 303 1249 303 1207 c 256,18,19
 303 1165 303 1165 333 1135.5 c 128,-1,20
 363 1106 363 1106 405 1106 c 256,21,22
 447 1106 447 1106 476.5 1135.5 c 128,-1,23
 506 1165 506 1165 506 1207 c 256,12,13
EndSplineSet
EndChar
StartChar: cent
Encoding: 162 162 132
Width: 1366
Flags: W
Fore
932 412 m 1,0,-1
 1302 371 l 1,1,2
 1281 272 1281 272 1242 213 c 0,3,4
 1171 105 1171 105 1044.5 36.5 c 128,-1,5
 918 -32 918 -32 744 -32 c 0,6,7
 699 -32 699 -32 565 -24 c 1,8,-1
 436 -390 l 1,9,-1
 305 -344 l 1,10,-1
 427 8 l 1,11,12
 265 59 265 59 169.5 192.5 c 128,-1,13
 74 326 74 326 74 529 c 0,14,15
 74 783 74 783 234.5 938.5 c 128,-1,16
 395 1094 395 1094 654 1094 c 0,17,18
 693 1094 693 1094 803 1086 c 1,19,-1
 932 1446 l 1,20,-1
 1061 1399 l 1,21,-1
 941 1062 l 1,22,23
 1042 1030 1042 1030 1107.5 980.5 c 128,-1,24
 1173 931 1173 931 1217 865 c 0,25,26
 1249 816 1249 816 1282 722 c 1,27,-1
 918 673 l 1,28,29
 904 720 904 720 891 740 c 128,-1,30
 878 760 878 760 847 788 c 1,31,-1
 653 233 l 1,32,33
 689 228 689 228 710 228 c 0,34,35
 787 228 787 228 847 275.5 c 128,-1,36
 907 323 907 323 932 412 c 1,0,-1
529 299 m 1,37,-1
 711 828 l 1,38,39
 698 829 698 829 691 829 c 0,40,41
 603 829 603 829 532 757.5 c 128,-1,42
 461 686 461 686 461 506 c 0,43,44
 461 430 461 430 475.5 387.5 c 128,-1,45
 490 345 490 345 529 299 c 1,37,-1
EndSplineSet
EndChar
StartChar: sterling
Encoding: 163 163 133
Width: 1366
Flags: W
Fore
676 845 m 1,0,-1
 979 845 l 1,1,-1
 979 606 l 1,2,-1
 711 606 l 1,3,4
 706 521 706 521 680 453 c 0,5,6
 659 401 659 401 610 345 c 1,7,8
 666 358 666 358 706 358 c 0,9,10
 757 358 757 358 839 338 c 0,11,12
 951 312 951 312 1018 312 c 0,13,14
 1073 312 1073 312 1113.5 321.5 c 128,-1,15
 1154 331 1154 331 1220 361 c 1,16,-1
 1356 63 l 1,17,18
 1257 13 1257 13 1182 -6 c 128,-1,19
 1107 -25 1107 -25 1021 -25 c 0,20,21
 927 -25 927 -25 806 8 c 0,22,23
 647 52 647 52 609 59 c 128,-1,24
 571 66 571 66 527 66 c 0,25,26
 398 66 398 66 242 -25 c 1,27,-1
 113 259 l 1,28,29
 323 410 323 410 323 561 c 0,30,31
 323 569 323 569 321 606 c 1,32,-1
 113 606 l 1,33,-1
 113 845 l 1,34,-1
 262 845 l 1,35,36
 224 977 224 977 219 998 c 0,37,38
 213 1030 213 1030 213 1077 c 0,39,40
 213 1202 213 1202 279.5 1301.5 c 128,-1,41
 346 1401 346 1401 454.5 1446 c 128,-1,42
 563 1491 563 1491 747 1491 c 0,43,44
 919 1491 919 1491 1019.5 1452.5 c 128,-1,45
 1120 1414 1120 1414 1189.5 1324.5 c 128,-1,46
 1259 1235 1259 1235 1285 1108 c 1,47,-1
 903 1048 l 1,48,49
 874 1155 874 1155 836.5 1190 c 128,-1,50
 799 1225 799 1225 751 1225 c 0,51,52
 693 1225 693 1225 657 1187 c 128,-1,53
 621 1149 621 1149 621 1079 c 0,54,55
 621 1042 621 1042 628 1007.5 c 128,-1,56
 635 973 635 973 676 845 c 1,0,-1
EndSplineSet
EndChar
StartChar: section
Encoding: 167 167 134
Width: 1366
Flags: W
Fore
1211 1159 m 1,0,-1
 829 1115 l 1,1,2
 810 1172 810 1172 776.5 1196 c 128,-1,3
 743 1220 743 1220 687 1220 c 0,4,5
 620 1220 620 1220 589 1194 c 128,-1,6
 558 1168 558 1168 558 1128 c 0,7,8
 558 1094 558 1094 586 1068 c 0,9,10
 636 1022 636 1022 820 955 c 0,11,12
 1083 859 1083 859 1186 767 c 0,13,14
 1288 674 1288 674 1288 524 c 0,15,16
 1288 436 1288 436 1249 363.5 c 128,-1,17
 1210 291 1210 291 1123 216 c 1,18,19
 1176 158 1176 158 1201.5 99 c 128,-1,20
 1227 40 1227 40 1227 -36 c 0,21,22
 1227 -140 1227 -140 1173.5 -231 c 128,-1,23
 1120 -322 1120 -322 1005 -376.5 c 128,-1,24
 890 -431 890 -431 696 -431 c 0,25,26
 572 -431 572 -431 475.5 -410 c 128,-1,27
 379 -389 379 -389 316.5 -352 c 128,-1,28
 254 -315 254 -315 213.5 -266.5 c 128,-1,29
 173 -218 173 -218 153 -173.5 c 128,-1,30
 133 -129 133 -129 117 -53 c 1,31,-1
 493 -14 l 1,32,33
 529 -87 529 -87 575 -121 c 128,-1,34
 621 -155 621 -155 688 -155 c 0,35,36
 757 -155 757 -155 791.5 -123 c 128,-1,37
 826 -91 826 -91 826 -44 c 0,38,39
 826 -4 826 -4 785 37 c 0,40,41
 728 93 728 93 479.5 191.5 c 128,-1,42
 231 290 231 290 148 387 c 128,-1,43
 65 484 65 484 65 593 c 0,44,45
 65 679 65 679 109.5 751.5 c 128,-1,46
 154 824 154 824 262 900 c 1,47,48
 211 956 211 956 188 1010 c 128,-1,49
 165 1064 165 1064 165 1131 c 0,50,51
 165 1217 165 1217 205.5 1288.5 c 128,-1,52
 246 1360 246 1360 311 1403 c 128,-1,53
 376 1446 376 1446 443 1465 c 0,54,55
 534 1491 534 1491 677 1491 c 0,56,57
 868 1491 868 1491 962.5 1456.5 c 128,-1,58
 1057 1422 1057 1422 1117 1350 c 128,-1,59
 1177 1278 1177 1278 1211 1159 c 1,0,-1
446 764 m 1,60,61
 394 695 394 695 394 653 c 0,62,63
 394 627 394 627 411 608 c 0,64,65
 439 576 439 576 549 526 c 2,66,-1
 934 353 l 1,67,68
 979 421 979 421 979 462 c 0,69,70
 979 495 979 495 952 521 c 0,71,72
 913 559 913 559 721 638.5 c 128,-1,73
 529 718 529 718 446 764 c 1,60,61
EndSplineSet
EndChar
StartChar: bullet
Encoding: 8226 8226 135
Width: 1024
Flags: W
Fore
844 721 m 0,0,1
 844 584 844 584 747 486.5 c 128,-1,2
 650 389 650 389 512 389 c 256,3,4
 374 389 374 389 277 486.5 c 128,-1,5
 180 584 180 584 180 721 c 0,6,7
 180 859 180 859 277 956 c 128,-1,8
 374 1053 374 1053 512 1053 c 256,9,10
 650 1053 650 1053 747 956 c 128,-1,11
 844 859 844 859 844 721 c 0,0,1
EndSplineSet
EndChar
StartChar: paragraph
Encoding: 182 182 136
Width: 1741
Flags: W
Fore
1617 1466 m 1,0,-1
 1617 1149 l 1,1,-1
 1486 1149 l 1,2,-1
 1486 -407 l 1,3,-1
 1189 -407 l 1,4,-1
 1189 1149 l 1,5,-1
 1022 1149 l 1,6,-1
 1022 -407 l 1,7,-1
 725 -407 l 1,8,-1
 725 615 l 1,9,-1
 656 615 l 2,10,11
 454 615 454 615 352 664.5 c 128,-1,12
 250 714 250 714 192.5 817.5 c 128,-1,13
 135 921 135 921 135 1050 c 0,14,15
 135 1251 135 1251 263 1358.5 c 128,-1,16
 391 1466 391 1466 645 1466 c 2,17,-1
 1617 1466 l 1,0,-1
EndSplineSet
EndChar
StartChar: germandbls
Encoding: 223 223 137
Width: 1366
Flags: W
Fore
119 0 m 1,0,-1
 119 1017 l 2,1,2
 119 1146 119 1146 171 1258.5 c 128,-1,3
 223 1371 223 1371 342.5 1431 c 128,-1,4
 462 1491 462 1491 660 1491 c 0,5,6
 902 1491 902 1491 1009.5 1404.5 c 128,-1,7
 1117 1318 1117 1318 1117 1193 c 0,8,9
 1117 1111 1117 1111 1058.5 994 c 128,-1,10
 1000 877 1000 877 1000 841 c 0,11,12
 1000 814 1000 814 1013 789.5 c 128,-1,13
 1026 765 1026 765 1070 725 c 0,14,15
 1200 606 1200 606 1256 492 c 0,16,17
 1294 412 1294 412 1294 314 c 0,18,19
 1294 167 1294 167 1195 71.5 c 128,-1,20
 1096 -24 1096 -24 930 -24 c 0,21,22
 808 -24 808 -24 718 18 c 0,23,24
 651 50 651 50 586 126 c 1,25,-1
 819 264 l 1,26,27
 854 220 854 220 888 220 c 0,28,29
 923 220 923 220 946 243 c 128,-1,30
 969 266 969 266 969 300 c 0,31,32
 969 330 969 330 941.5 371 c 128,-1,33
 914 412 914 412 762 559 c 0,34,35
 684 635 684 635 653 694 c 0,36,37
 633 732 633 732 633 780 c 0,38,39
 633 839 633 839 692 955.5 c 128,-1,40
 751 1072 751 1072 751 1131 c 0,41,42
 751 1176 751 1176 720.5 1205.5 c 128,-1,43
 690 1235 690 1235 640 1235 c 0,44,45
 583 1235 583 1235 545.5 1189 c 128,-1,46
 508 1143 508 1143 508 1025 c 2,47,-1
 508 0 l 1,48,-1
 119 0 l 1,0,-1
EndSplineSet
EndChar
StartChar: registered
Encoding: 174 174 138
Width: 1638
Flags: W
Fore
1585 728 m 0,0,1
 1585 523 1585 523 1482.5 346 c 128,-1,2
 1380 169 1380 169 1203 67 c 128,-1,3
 1026 -35 1026 -35 821 -35 c 0,4,5
 617 -35 617 -35 440 67 c 128,-1,6
 263 169 263 169 160.5 346 c 128,-1,7
 58 523 58 523 58 728 c 0,8,9
 58 932 58 932 160.5 1109.5 c 128,-1,10
 263 1287 263 1287 440 1389 c 128,-1,11
 617 1491 617 1491 821 1491 c 0,12,13
 1026 1491 1026 1491 1203 1389 c 128,-1,14
 1380 1287 1380 1287 1482.5 1109.5 c 128,-1,15
 1585 932 1585 932 1585 728 c 0,0,1
1437 728 m 256,16,17
 1437 983 1437 983 1256.5 1163.5 c 128,-1,18
 1076 1344 1076 1344 821 1344 c 256,19,20
 566 1344 566 1344 385.5 1163.5 c 128,-1,21
 205 983 205 983 205 728 c 256,22,23
 205 473 205 473 385.5 292.5 c 128,-1,24
 566 112 566 112 821 112 c 256,25,26
 1076 112 1076 112 1256.5 292.5 c 128,-1,27
 1437 473 1437 473 1437 728 c 256,16,17
475 1136 m 1,28,-1
 840 1136 l 2,29,30
 995 1136 995 1136 1064.5 1073.5 c 128,-1,31
 1134 1011 1134 1011 1134 906 c 0,32,33
 1134 824 1134 824 1081 764 c 128,-1,34
 1028 704 1028 704 914 677 c 1,35,36
 961 659 961 659 983 639 c 0,37,38
 1014 611 1014 611 1048 556 c 0,39,40
 1050 552 1050 552 1180 320 c 1,41,-1
 940 320 l 1,42,43
 823 553 823 553 783 598.5 c 128,-1,44
 743 644 743 644 703 644 c 0,45,46
 694 644 694 644 678 641 c 1,47,-1
 678 320 l 1,48,-1
 475 320 l 1,49,-1
 475 1136 l 1,28,-1
678 790 m 1,50,-1
 766 790 l 2,51,52
 854 790 854 790 890 818.5 c 128,-1,53
 926 847 926 847 926 892 c 256,54,55
 926 937 926 937 891.5 965.5 c 128,-1,56
 857 994 857 994 774 994 c 2,57,-1
 678 994 l 1,58,-1
 678 790 l 1,50,-1
EndSplineSet
EndChar
StartChar: copyright
Encoding: 169 169 139
Width: 1638
Flags: W
Fore
1585 728 m 0,0,1
 1585 523 1585 523 1482.5 346 c 128,-1,2
 1380 169 1380 169 1203 67 c 128,-1,3
 1026 -35 1026 -35 821 -35 c 0,4,5
 617 -35 617 -35 440 67 c 128,-1,6
 263 169 263 169 160.5 346 c 128,-1,7
 58 523 58 523 58 728 c 0,8,9
 58 932 58 932 160.5 1109.5 c 128,-1,10
 263 1287 263 1287 440 1389 c 128,-1,11
 617 1491 617 1491 821 1491 c 0,12,13
 1026 1491 1026 1491 1203 1389 c 128,-1,14
 1380 1287 1380 1287 1482.5 1109.5 c 128,-1,15
 1585 932 1585 932 1585 728 c 0,0,1
1437 728 m 256,16,17
 1437 983 1437 983 1256.5 1163.5 c 128,-1,18
 1076 1344 1076 1344 821 1344 c 256,19,20
 566 1344 566 1344 385.5 1163.5 c 128,-1,21
 205 983 205 983 205 728 c 256,22,23
 205 473 205 473 385.5 292.5 c 128,-1,24
 566 112 566 112 821 112 c 256,25,26
 1076 112 1076 112 1256.5 292.5 c 128,-1,27
 1437 473 1437 473 1437 728 c 256,16,17
999 634 m 1,28,-1
 1205 585 l 1,29,30
 1167 464 1167 464 1100 399 c 0,31,32
 995 298 995 298 826 298 c 0,33,34
 642 298 642 298 526 416.5 c 128,-1,35
 410 535 410 535 410 730 c 0,36,37
 410 915 410 915 529 1035.5 c 128,-1,38
 648 1156 648 1156 827 1156 c 0,39,40
 972 1156 972 1156 1071 1079 c 128,-1,41
 1170 1002 1170 1002 1196 880 c 1,42,-1
 999 850 l 1,43,44
 981 931 981 931 933.5 970.5 c 128,-1,45
 886 1010 886 1010 818 1010 c 0,46,47
 740 1010 740 1010 687 943.5 c 128,-1,48
 634 877 634 877 634 735 c 0,49,50
 634 592 634 592 670 531 c 0,51,52
 723 443 723 443 820 443 c 0,53,54
 881 443 881 443 929.5 488 c 128,-1,55
 978 533 978 533 999 634 c 1,28,-1
EndSplineSet
EndChar
StartChar: trademark
Encoding: 8482 8482 140
Width: 1946
Flags: W
Fore
36 1466 m 1,0,-1
 837 1466 l 1,1,-1
 837 1272 l 1,2,-1
 552 1272 l 1,3,-1
 552 651 l 1,4,-1
 317 651 l 1,5,-1
 317 1272 l 1,6,-1
 36 1272 l 1,7,-1
 36 1466 l 1,0,-1
930 1466 m 1,8,-1
 1287 1466 l 1,9,-1
 1400 1021 l 1,10,-1
 1519 1466 l 1,11,-1
 1865 1466 l 1,12,-1
 1865 651 l 1,13,-1
 1644 651 l 1,14,-1
 1644 1227 l 1,15,-1
 1491 651 l 1,16,-1
 1306 651 l 1,17,-1
 1155 1227 l 1,18,-1
 1155 651 l 1,19,-1
 930 651 l 1,20,-1
 930 1466 l 1,8,-1
EndSplineSet
EndChar
StartChar: acute
Encoding: 180 180 141
Width: 682
Flags: W
Fore
331 1491 m 1,0,-1
 681 1491 l 1,1,-1
 358 1192 l 1,2,-1
 163 1192 l 1,3,-1
 331 1491 l 1,0,-1
EndSplineSet
EndChar
StartChar: dieresis
Encoding: 168 168 142
Width: 682
Flags: W
Fore
-2 1446 m 1,0,-1
 258 1446 l 1,1,-1
 258 1196 l 1,2,-1
 -2 1196 l 1,3,-1
 -2 1446 l 1,0,-1
422 1446 m 1,4,-1
 685 1446 l 1,5,-1
 685 1196 l 1,6,-1
 422 1196 l 1,7,-1
 422 1446 l 1,4,-1
EndSplineSet
EndChar
StartChar: notequal
Encoding: 8800 8800 143
Width: 1352
Flags: W
Fore
98 1141 m 1,0,-1
 693 1141 l 1,1,-1
 895 1656 l 1,2,-1
 1171 1656 l 1,3,-1
 970 1141 l 1,4,-1
 1245 1141 l 1,5,-1
 1245 817 l 1,6,-1
 846 817 l 1,7,-1
 779 649 l 1,8,-1
 1245 649 l 1,9,-1
 1245 325 l 1,10,-1
 652 325 l 1,11,-1
 449 -192 l 1,12,-1
 170 -192 l 1,13,-1
 373 325 l 1,14,-1
 98 325 l 1,15,-1
 98 649 l 1,16,-1
 501 649 l 1,17,-1
 566 817 l 1,18,-1
 98 817 l 1,19,-1
 98 1141 l 1,0,-1
EndSplineSet
EndChar
StartChar: AE
Encoding: 198 198 144
Width: 2048
Flags: W
Fore
556 1466 m 1,0,-1
 1956 1466 l 1,1,-1
 1956 1153 l 1,2,-1
 1338 1153 l 1,3,-1
 1338 920 l 1,4,-1
 1900 920 l 1,5,-1
 1900 621 l 1,6,-1
 1338 621 l 1,7,-1
 1338 332 l 1,8,-1
 1975 332 l 1,9,-1
 1975 0 l 1,10,-1
 912 0 l 1,11,-1
 912 263 l 1,12,-1
 477 263 l 1,13,-1
 380 0 l 1,14,-1
 -76 0 l 1,15,-1
 556 1466 l 1,0,-1
811 1169 m 1,16,-1
 600 597 l 1,17,-1
 912 597 l 1,18,-1
 912 1169 l 1,19,-1
 811 1169 l 1,16,-1
EndSplineSet
EndChar
StartChar: Oslash
Encoding: 216 216 145
Width: 1706
Flags: W
Fore
1346 1352 m 1,0,-1
 1520 1516 l 1,1,-1
 1671 1355 l 1,2,-1
 1498 1191 l 1,3,4
 1551 1111 1551 1111 1581 989.5 c 128,-1,5
 1611 868 1611 868 1611 735 c 0,6,7
 1611 478 1611 478 1518.5 312.5 c 128,-1,8
 1426 147 1426 147 1263.5 61 c 128,-1,9
 1101 -25 1101 -25 854 -25 c 0,10,11
 678 -25 678 -25 539 20 c 0,12,13
 449 49 449 49 361 115 c 1,14,-1
 186 -52 l 1,15,-1
 35 107 l 1,16,-1
 211 275 l 1,17,18
 92 460 92 460 92 729 c 0,19,20
 92 1090 92 1090 291.5 1290.5 c 128,-1,21
 491 1491 491 1491 846 1491 c 0,22,23
 1161 1491 1161 1491 1346 1352 c 1,0,-1
1054 1075 m 1,24,25
 979 1148 979 1148 848 1148 c 0,26,27
 711 1148 711 1148 628 1051.5 c 128,-1,28
 545 955 545 955 545 738 c 0,29,30
 545 670 545 670 555 601 c 1,31,-1
 1054 1075 l 1,24,25
1150 861 m 1,32,-1
 649 387 l 1,33,34
 722 314 722 314 852 314 c 0,35,36
 997 314 997 314 1077.5 408 c 128,-1,37
 1158 502 1158 502 1158 734 c 0,38,39
 1158 798 1158 798 1150 861 c 1,32,-1
EndSplineSet
EndChar
StartChar: infinity
Encoding: 8734 8734 146
Width: 1195
Flags: W
Fore
548 854 m 1,0,1
 622 975 622 975 699 1028.5 c 128,-1,2
 776 1082 776 1082 871 1082 c 0,3,4
 1003 1082 1003 1082 1090.5 988.5 c 128,-1,5
 1178 895 1178 895 1178 733 c 256,6,7
 1178 571 1178 571 1090.5 477.5 c 128,-1,8
 1003 384 1003 384 871 384 c 0,9,10
 777 384 777 384 700 437 c 128,-1,11
 623 490 623 490 548 612 c 1,12,13
 488 528 488 528 410 484 c 128,-1,14
 332 440 332 440 261 440 c 0,15,16
 160 440 160 440 89.5 518.5 c 128,-1,17
 19 597 19 597 19 733 c 256,18,19
 19 869 19 869 89.5 947 c 128,-1,20
 160 1025 160 1025 261 1025 c 0,21,22
 332 1025 332 1025 410 981 c 128,-1,23
 488 937 488 937 548 854 c 1,0,1
641 735 m 1,24,25
 708 632 708 632 735 600.5 c 128,-1,26
 762 569 762 569 797.5 550.5 c 128,-1,27
 833 532 833 532 874 532 c 0,28,29
 950 532 950 532 991 591 c 128,-1,30
 1032 650 1032 650 1032 737 c 0,31,32
 1032 831 1032 831 987 883 c 128,-1,33
 942 935 942 935 877 935 c 0,34,35
 823 935 823 935 771 896 c 128,-1,36
 719 857 719 857 641 735 c 1,24,25
462 737 m 1,37,38
 362 878 362 878 272 878 c 0,39,40
 226 878 226 878 192.5 841 c 128,-1,41
 159 804 159 804 159 738 c 0,42,43
 159 670 159 670 192 632 c 128,-1,44
 225 594 225 594 272 594 c 0,45,46
 311 594 311 594 342 615 c 0,47,48
 396 651 396 651 462 737 c 1,37,38
EndSplineSet
EndChar
StartChar: plusminus
Encoding: 177 177 147
Width: 1352
Flags: W
Fore
127 1072 m 1,0,-1
 510 1072 l 1,1,-1
 510 1445 l 1,2,-1
 833 1445 l 1,3,-1
 833 1072 l 1,4,-1
 1218 1072 l 1,5,-1
 1218 757 l 1,6,-1
 833 757 l 1,7,-1
 833 401 l 1,8,-1
 510 401 l 1,9,-1
 510 757 l 1,10,-1
 127 757 l 1,11,-1
 127 1072 l 1,0,-1
127 307 m 1,12,-1
 1218 307 l 1,13,-1
 1218 0 l 1,14,-1
 127 0 l 1,15,-1
 127 307 l 1,12,-1
EndSplineSet
EndChar
StartChar: lessequal
Encoding: 8804 8804 148
Width: 1352
Flags: W
Fore
1247 273 m 1,0,-1
 98 743 l 1,1,-1
 98 1037 l 1,2,-1
 1247 1512 l 1,3,-1
 1247 1162 l 1,4,-1
 544 891 l 1,5,-1
 1247 623 l 1,6,-1
 1247 273 l 1,0,-1
98 200 m 1,7,-1
 1247 200 l 1,8,-1
 1247 -124 l 1,9,-1
 98 -124 l 1,10,-1
 98 200 l 1,7,-1
EndSplineSet
EndChar
StartChar: yen
Encoding: 165 165 150
Width: 1366
Flags: W
Fore
-2 1466 m 1,0,-1
 455 1466 l 1,1,-1
 684 968 l 1,2,-1
 910 1466 l 1,3,-1
 1368 1466 l 1,4,-1
 1019 834 l 1,5,-1
 1316 834 l 1,6,-1
 1316 613 l 1,7,-1
 895 613 l 1,8,-1
 895 492 l 1,9,-1
 1316 492 l 1,10,-1
 1316 268 l 1,11,-1
 895 268 l 1,12,-1
 895 0 l 1,13,-1
 479 0 l 1,14,-1
 479 268 l 1,15,-1
 51 268 l 1,16,-1
 51 492 l 1,17,-1
 479 492 l 1,18,-1
 479 613 l 1,19,-1
 51 613 l 1,20,-1
 51 834 l 1,21,-1
 357 834 l 1,22,-1
 -2 1466 l 1,0,-1
EndSplineSet
EndChar
StartChar: mu1
Encoding: 181 181 151
Width: 1366
Flags: W
Fore
120 1062 m 1,0,-1
 528 1062 l 1,1,-1
 528 528 l 2,2,3
 528 414 528 414 558 372 c 0,4,5
 602 307 602 307 685 307 c 0,6,7
 762 307 762 307 800 365.5 c 128,-1,8
 838 424 838 424 838 539 c 2,9,-1
 838 1062 l 1,10,-1
 1244 1062 l 1,11,-1
 1244 0 l 1,12,-1
 862 0 l 1,13,-1
 862 84 l 1,14,15
 829 28 829 28 798 8 c 0,16,17
 749 -24 749 -24 697 -24 c 0,18,19
 649 -24 649 -24 596 5 c 0,20,21
 561 24 561 24 528 77 c 1,22,-1
 528 -402 l 1,23,-1
 120 -402 l 1,24,-1
 120 1062 l 1,0,-1
EndSplineSet
EndChar
StartChar: partialdiff
Encoding: 8706 8706 152
Width: 1024
Flags: W
Fore
377 1150 m 1,0,-1
 335 1150 l 1,1,2
 387 1296 387 1296 477.5 1365 c 128,-1,3
 568 1434 568 1434 683 1434 c 0,4,5
 835 1434 835 1434 906 1332 c 128,-1,6
 977 1230 977 1230 977 1041 c 0,7,8
 977 681 977 681 871 420.5 c 128,-1,9
 765 160 765 160 633 55 c 0,10,11
 536 -23 536 -23 401 -23 c 0,12,13
 304 -23 304 -23 232 16.5 c 128,-1,14
 160 56 160 56 122.5 133.5 c 128,-1,15
 85 211 85 211 85 293 c 0,16,17
 85 423 85 423 146.5 545.5 c 128,-1,18
 208 668 208 668 298 756.5 c 128,-1,19
 388 845 388 845 483.5 889.5 c 128,-1,20
 579 934 579 934 672 934 c 0,21,22
 836 934 836 934 908 784 c 1,23,24
 916 866 916 866 916 911 c 0,25,26
 916 1082 916 1082 800 1176 c 0,27,28
 729 1234 729 1234 603 1234 c 0,29,30
 522 1234 522 1234 471.5 1214 c 128,-1,31
 421 1194 421 1194 377 1150 c 1,0,-1
892 691 m 1,32,33
 858 794 858 794 802.5 838.5 c 128,-1,34
 747 883 747 883 678 883 c 0,35,36
 608 883 608 883 542 822 c 0,37,38
 456 742 456 742 398.5 560 c 128,-1,39
 341 378 341 378 341 212 c 0,40,41
 341 115 341 115 371 79.5 c 128,-1,42
 401 44 401 44 460 44 c 0,43,44
 559 44 559 44 660 161 c 0,45,46
 826 356 826 356 892 691 c 1,32,33
EndSplineSet
EndChar
StartChar: summation
Encoding: 8721 8721 153
Width: 1460
Flags: W
Fore
1356 -431 m 1,0,-1
 43 -431 l 1,1,-1
 43 -395 l 1,2,-1
 712 537 l 1,3,-1
 43 1454 l 1,4,-1
 43 1491 l 1,5,-1
 1321 1491 l 1,6,-1
 1348 1155 l 1,7,-1
 1308 1155 l 1,8,9
 1292 1292 1292 1292 1230.5 1351.5 c 128,-1,10
 1169 1411 1169 1411 1059 1411 c 2,11,-1
 319 1411 l 1,12,-1
 881 623 l 1,13,-1
 252 -255 l 1,14,-1
 1070 -255 l 2,15,16
 1140 -255 1140 -255 1223 -227 c 0,17,18
 1280 -209 1280 -209 1317.5 -160.5 c 128,-1,19
 1355 -112 1355 -112 1380 -8 c 1,20,-1
 1420 -16 l 1,21,-1
 1356 -431 l 1,0,-1
EndSplineSet
EndChar
StartChar: product
Encoding: 8719 8719 154
Width: 1685
Flags: W
Fore
1240 1413 m 1,0,-1
 445 1413 l 1,1,-1
 445 -239 l 2,2,3
 445 -322 445 -322 482 -358 c 128,-1,4
 519 -394 519 -394 607 -394 c 2,5,-1
 643 -394 l 1,6,-1
 643 -431 l 1,7,-1
 46 -431 l 1,8,-1
 46 -394 l 1,9,-1
 81 -394 l 2,10,11
 169 -394 169 -394 206.5 -358 c 128,-1,12
 244 -322 244 -322 244 -239 c 2,13,-1
 244 1299 l 2,14,15
 244 1382 244 1382 207 1418 c 128,-1,16
 170 1454 170 1454 81 1454 c 2,17,-1
 46 1454 l 1,18,-1
 46 1491 l 1,19,-1
 1640 1491 l 1,20,-1
 1640 1454 l 1,21,-1
 1605 1454 l 2,22,23
 1517 1454 1517 1454 1480 1418 c 128,-1,24
 1443 1382 1443 1382 1443 1299 c 2,25,-1
 1443 -239 l 2,26,27
 1443 -322 1443 -322 1480 -358 c 128,-1,28
 1517 -394 1517 -394 1605 -394 c 2,29,-1
 1640 -394 l 1,30,-1
 1640 -431 l 1,31,-1
 1043 -431 l 1,32,-1
 1043 -394 l 1,33,-1
 1078 -394 l 2,34,35
 1166 -394 1166 -394 1203 -358 c 128,-1,36
 1240 -322 1240 -322 1240 -239 c 2,37,-1
 1240 1413 l 1,0,-1
EndSplineSet
EndChar
StartChar: pi1
Encoding: 61446 61446 155
Width: 1408
Flags: W
Fore
51 1063 m 1,0,-1
 1382 1063 l 1,1,-1
 1382 861 l 1,2,-1
 1213 861 l 1,3,-1
 1213 0 l 1,4,-1
 925 0 l 1,5,-1
 925 861 l 1,6,-1
 510 861 l 1,7,-1
 510 0 l 1,8,-1
 218 0 l 1,9,-1
 218 861 l 1,10,-1
 51 861 l 1,11,-1
 51 1063 l 1,0,-1
EndSplineSet
EndChar
StartChar: integral
Encoding: 8747 8747 156
Width: 555
Flags: W
Fore
198 948 m 2,0,-1
 216 1496 l 2,1,2
 225 1609 225 1609 247.5 1683 c 128,-1,3
 270 1757 270 1757 293 1787.5 c 128,-1,4
 316 1818 316 1818 355.5 1840.5 c 128,-1,5
 395 1863 395 1863 432 1863 c 0,6,7
 482 1863 482 1863 519.5 1829.5 c 128,-1,8
 557 1796 557 1796 557 1756 c 0,9,10
 557 1709 557 1709 530.5 1680.5 c 128,-1,11
 504 1652 504 1652 465 1652 c 0,12,13
 430 1652 430 1652 389 1688 c 0,14,15
 366 1708 366 1708 349 1708 c 256,16,17
 332 1708 332 1708 320.5 1693.5 c 128,-1,18
 309 1679 309 1679 309 1644 c 0,19,20
 309 1602 309 1602 318 1499 c 0,21,22
 355 1089 355 1089 355 834 c 0,23,24
 355 767 355 767 341 308 c 0,25,26
 336 144 336 144 321 52 c 0,27,28
 301 -70 301 -70 269 -123 c 128,-1,29
 237 -176 237 -176 198.5 -198 c 128,-1,30
 160 -220 160 -220 115 -220 c 0,31,32
 63 -220 63 -220 30 -186 c 128,-1,33
 -3 -152 -3 -152 -3 -99 c 0,34,35
 -3 -54 -3 -54 22.5 -27 c 128,-1,36
 48 0 48 0 87 0 c 0,37,38
 127 0 127 0 156 -32 c 128,-1,39
 185 -64 185 -64 205 -64 c 0,40,41
 222 -64 222 -64 233 -50 c 128,-1,42
 244 -36 244 -36 244 -3 c 0,43,44
 244 39 244 39 235 117 c 0,45,46
 198 432 198 432 198 948 c 2,0,-1
EndSplineSet
EndChar
StartChar: ordfeminine
Encoding: 170 170 157
Width: 819
Flags: W
Fore
761 761 m 1,0,-1
 543 761 l 1,1,2
 528 792 528 792 519 828 c 1,3,4
 473 785 473 785 429 768 c 0,5,6
 367 744 367 744 285 744 c 0,7,8
 160 744 160 744 96.5 803 c 128,-1,9
 33 862 33 862 33 959 c 0,10,11
 33 1047 33 1047 86 1100 c 0,12,13
 138 1153 138 1153 310 1184 c 0,14,15
 414 1202 414 1202 500 1233 c 1,16,17
 500 1289 500 1289 478 1310.5 c 128,-1,18
 456 1332 456 1332 399 1332 c 0,19,20
 346 1332 346 1332 321.5 1315 c 128,-1,21
 297 1298 297 1298 284 1254 c 1,22,-1
 63 1297 l 1,23,24
 82 1368 82 1368 117 1408.5 c 128,-1,25
 152 1449 152 1449 208 1470 c 128,-1,26
 264 1491 264 1491 375 1491 c 0,27,28
 587 1491 587 1491 657 1435 c 0,29,30
 726 1378 726 1378 726 1254 c 2,31,-1
 726 917 l 2,32,33
 726 855 726 855 732.5 826.5 c 128,-1,34
 739 798 739 798 761 761 c 1,0,-1
500 1096 m 1,35,36
 443 1076 443 1076 378 1063.5 c 128,-1,37
 313 1051 313 1051 290 1029 c 0,38,39
 266 1007 266 1007 266 977 c 0,40,41
 266 941 266 941 292 917 c 128,-1,42
 318 893 318 893 363 893 c 0,43,44
 426 893 426 893 463 933 c 128,-1,45
 500 973 500 973 500 1057 c 2,46,-1
 500 1096 l 1,35,36
EndSplineSet
EndChar
StartChar: ordmasculine
Encoding: 186 186 158
Width: 819
Flags: W
Fore
23 1117 m 0,0,1
 23 1212 23 1212 66 1301.5 c 128,-1,2
 109 1391 109 1391 199 1441 c 128,-1,3
 289 1491 289 1491 413 1491 c 0,4,5
 585 1491 585 1491 686.5 1388 c 128,-1,6
 788 1285 788 1285 788 1114 c 0,7,8
 788 949 788 949 685 846 c 128,-1,9
 582 743 582 743 414 743 c 0,10,11
 281 743 281 743 191 797.5 c 128,-1,12
 101 852 101 852 62 942 c 128,-1,13
 23 1032 23 1032 23 1117 c 0,0,1
271 1117 m 0,14,15
 271 1009 271 1009 314 957 c 0,16,17
 347 917 347 917 411 917 c 0,18,19
 468 917 468 917 505 963 c 128,-1,20
 542 1009 542 1009 542 1117 c 0,21,22
 542 1227 542 1227 504.5 1273.5 c 128,-1,23
 467 1320 467 1320 407 1320 c 0,24,25
 346 1320 346 1320 308.5 1273.5 c 128,-1,26
 271 1227 271 1227 271 1117 c 0,14,15
EndSplineSet
EndChar
StartChar: Ohm
Encoding: 8486 8486 159
Width: 1749
Flags: W
Fore
551 206 m 1,0,1
 435 255 435 255 366 318 c 0,2,3
 265 408 265 408 215.5 534 c 128,-1,4
 166 660 166 660 166 811 c 0,5,6
 166 1121 166 1121 357.5 1312 c 128,-1,7
 549 1503 549 1503 866 1503 c 0,8,9
 1099 1503 1099 1503 1255.5 1424 c 128,-1,10
 1412 1345 1412 1345 1505.5 1179.5 c 128,-1,11
 1599 1014 1599 1014 1599 813 c 0,12,13
 1599 611 1599 611 1505.5 452.5 c 128,-1,14
 1412 294 1412 294 1217 208 c 1,15,-1
 1547 231 l 1,16,-1
 1619 231 l 1,17,-1
 1619 0 l 1,18,-1
 977 0 l 1,19,-1
 977 243 l 1,20,21
 1074 290 1074 290 1130 348 c 0,22,23
 1206 428 1206 428 1244.5 542.5 c 128,-1,24
 1283 657 1283 657 1283 784 c 0,25,26
 1283 1031 1283 1031 1168.5 1157.5 c 128,-1,27
 1054 1284 1054 1284 876 1284 c 0,28,29
 706 1284 706 1284 591.5 1154.5 c 128,-1,30
 477 1025 477 1025 477 789 c 0,31,32
 477 653 477 653 520.5 536 c 128,-1,33
 564 419 564 419 645 338 c 0,34,35
 697 286 697 286 789 243 c 1,36,-1
 789 0 l 1,37,-1
 144 0 l 1,38,-1
 144 230 l 1,39,-1
 242 230 l 1,40,-1
 551 206 l 1,0,1
EndSplineSet
EndChar
StartChar: ae
Encoding: 230 230 160
Width: 2048
Flags: W
Fore
1990 431 m 1,0,-1
 1219 431 l 1,1,2
 1230 335 1230 335 1266 288 c 0,3,4
 1321 217 1321 217 1410 217 c 0,5,6
 1460 217 1460 217 1496.5 239.5 c 128,-1,7
 1533 262 1533 262 1568 317 c 1,8,-1
 1965 282 l 1,9,10
 1884 131 1884 131 1755.5 53.5 c 128,-1,11
 1627 -24 1627 -24 1412 -24 c 0,12,13
 1247 -24 1247 -24 1128 24 c 0,14,15
 1038 60 1038 60 955 144 c 1,16,17
 832 54 832 54 721.5 15 c 128,-1,18
 611 -24 611 -24 476 -24 c 0,19,20
 273 -24 273 -24 171 61.5 c 128,-1,21
 69 147 69 147 69 285 c 0,22,23
 69 354 69 354 101 415 c 128,-1,24
 133 476 133 476 182 512 c 0,25,26
 247 559 247 559 323 585 c 0,27,28
 358 597 358 597 494 623 c 128,-1,29
 630 649 630 649 669 659 c 0,30,31
 736 676 736 676 825 706 c 1,32,33
 823 786 823 786 792.5 815 c 128,-1,34
 762 844 762 844 681 844 c 0,35,36
 596 844 596 844 554 813.5 c 128,-1,37
 512 783 512 783 495 717 c 1,38,-1
 104 762 l 1,39,40
 133 868 133 868 172 922 c 0,41,42
 225 996 225 996 333.5 1041.5 c 128,-1,43
 442 1087 442 1087 639 1087 c 0,44,45
 797 1087 797 1087 899 1059 c 0,46,47
 972 1039 972 1039 1060 982 c 1,48,49
 1152 1040 1152 1040 1227.5 1063 c 128,-1,50
 1303 1086 1303 1086 1406 1086 c 0,51,52
 1560 1086 1560 1086 1670.5 1042 c 128,-1,53
 1781 998 1781 998 1851 922.5 c 128,-1,54
 1921 847 1921 847 1951 772 c 0,55,56
 1990 673 1990 673 1990 498 c 2,57,-1
 1990 431 l 1,0,-1
1584 626 m 1,58,59
 1576 729 1576 729 1531.5 786 c 128,-1,60
 1487 843 1487 843 1406 843 c 0,61,62
 1334 843 1334 843 1282.5 791 c 128,-1,63
 1231 739 1231 739 1216 626 c 1,64,-1
 1584 626 l 1,58,59
825 507 m 1,65,-1
 700 466 l 2,66,67
 676 458 676 458 658 455 c 0,68,69
 559 436 559 436 519.5 398 c 128,-1,70
 480 360 480 360 480 319 c 0,71,72
 480 273 480 273 513 241 c 128,-1,73
 546 209 546 209 600 209 c 0,74,75
 655 209 655 209 713 237 c 128,-1,76
 771 265 771 265 802 322 c 0,77,78
 825 363 825 363 825 431 c 2,79,-1
 825 507 l 1,65,-1
EndSplineSet
EndChar
StartChar: oslash
Encoding: 248 248 161
Width: 1366
Flags: W
Fore
1153 1156 m 1,0,-1
 1257 1062 l 1,1,-1
 1133 926 l 1,2,3
 1202 868 1202 868 1247 762 c 128,-1,4
 1292 656 1292 656 1292 532 c 0,5,6
 1292 288 1292 288 1131 132 c 128,-1,7
 970 -24 970 -24 693 -24 c 0,8,9
 580 -24 580 -24 494 -5 c 0,10,11
 435 8 435 8 345 51 c 1,12,-1
 212 -97 l 1,13,-1
 107 0 l 1,14,-1
 234 135 l 1,15,16
 149 226 149 226 111 318 c 128,-1,17
 73 410 73 410 73 526 c 0,18,19
 73 771 73 771 236 928.5 c 128,-1,20
 399 1086 399 1086 674 1086 c 0,21,22
 786 1086 786 1086 874 1065 c 0,23,24
 933 1051 933 1051 1020 1007 c 1,25,-1
 1153 1156 l 1,0,-1
821 785 m 1,26,27
 793 812 793 812 773 820 c 0,28,29
 734 836 734 836 685 836 c 0,30,31
 584 836 584 836 518.5 758.5 c 128,-1,32
 453 681 453 681 453 522 c 0,33,34
 453 469 453 469 470 396 c 1,35,-1
 821 785 l 1,26,27
545 270 m 1,36,37
 578 244 578 244 599 236 c 0,38,39
 639 222 639 222 687 222 c 0,40,41
 785 222 785 222 848.5 299.5 c 128,-1,42
 912 377 912 377 912 543 c 0,43,44
 912 594 912 594 895 660 c 1,45,-1
 545 270 l 1,36,37
EndSplineSet
EndChar
StartChar: logicalnot
Encoding: 172 172 164
Width: 1352
Flags: W
Fore
126 1133 m 1,0,-1
 1218 1133 l 1,1,-1
 1218 316 l 1,2,-1
 892 316 l 1,3,-1
 892 808 l 1,4,-1
 126 808 l 1,5,-1
 126 1133 l 1,0,-1
EndSplineSet
EndChar
StartChar: radical
Encoding: 8730 8730 165
Width: 1124
Flags: W
Fore
1050 1869 m 1,0,-1
 1124 1869 l 1,1,-1
 812 -78 l 1,2,-1
 316 943 l 1,3,-1
 118 852 l 1,4,-1
 84 916 l 1,5,-1
 385 1067 l 1,6,-1
 790 244 l 1,7,-1
 1050 1869 l 1,0,-1
EndSplineSet
EndChar
StartChar: florin
Encoding: 402 402 166
Width: 1366
Flags: W
Fore
986 999 m 1,0,-1
 1184 999 l 1,1,-1
 1121 709 l 1,2,-1
 926 709 l 1,3,-1
 738 -173 l 2,4,5
 711 -299 711 -299 624.5 -365 c 128,-1,6
 538 -431 538 -431 379 -431 c 0,7,8
 231 -431 231 -431 37 -372 c 1,9,-1
 110 -112 l 1,10,11
 213 -148 213 -148 264 -148 c 0,12,13
 303 -148 303 -148 325 -126.5 c 128,-1,14
 347 -105 347 -105 364 -24 c 2,15,-1
 520 709 l 1,16,-1
 329 709 l 1,17,-1
 388 999 l 1,18,-1
 583 999 l 1,19,-1
 628 1212 l 2,20,21
 645 1297 645 1297 685.5 1360 c 128,-1,22
 726 1423 726 1423 803 1457 c 128,-1,23
 880 1491 880 1491 990 1491 c 0,24,25
 1156 1491 1156 1491 1335 1429 c 1,26,-1
 1262 1167 l 1,27,28
 1169 1206 1169 1206 1109 1206 c 0,29,30
 1070 1206 1070 1206 1047.5 1182.5 c 128,-1,31
 1025 1159 1025 1159 1003 1070 c 2,32,-1
 986 999 l 1,0,-1
EndSplineSet
EndChar
StartChar: approxequal
Encoding: 8776 8776 167
Width: 1352
Flags: W
Fore
1246 1213 m 1,0,-1
 1246 888 l 1,1,2
 1131 795 1131 795 1060 764.5 c 128,-1,3
 989 734 989 734 913 734 c 0,4,5
 855 734 855 734 796.5 751 c 128,-1,6
 738 768 738 768 613.5 831 c 128,-1,7
 489 894 489 894 417 894 c 0,8,9
 263 894 263 894 99 733 c 1,10,-1
 99 1062 l 1,11,12
 192 1145 192 1145 273 1180 c 128,-1,13
 354 1215 354 1215 450 1215 c 0,14,15
 499 1215 499 1215 553 1199.5 c 128,-1,16
 607 1184 607 1184 711.5 1133 c 128,-1,17
 816 1082 816 1082 860 1069.5 c 128,-1,18
 904 1057 904 1057 943 1057 c 0,19,20
 1077 1057 1077 1057 1246 1213 c 1,0,-1
1246 731 m 1,21,-1
 1246 405 l 1,22,23
 1131 313 1131 313 1060 282 c 128,-1,24
 989 251 989 251 913 251 c 0,25,26
 855 251 855 251 796.5 268 c 128,-1,27
 738 285 738 285 613.5 348 c 128,-1,28
 489 411 489 411 417 411 c 0,29,30
 263 411 263 411 99 251 c 1,31,-1
 99 580 l 1,32,33
 192 663 192 663 273 697.5 c 128,-1,34
 354 732 354 732 450 732 c 0,35,36
 499 732 499 732 553 716.5 c 128,-1,37
 607 701 607 701 711.5 650.5 c 128,-1,38
 816 600 816 600 860 587 c 128,-1,39
 904 574 904 574 943 574 c 0,40,41
 1077 574 1077 574 1246 731 c 1,21,-1
EndSplineSet
EndChar
StartChar: increment
Encoding: 8710 8710 168
Width: 1253
Flags: W
Fore
1226 0 m 1,0,-1
 26 0 l 1,1,-1
 654 1387 l 1,2,-1
 1226 0 l 1,0,-1
990 82 m 1,3,-1
 591 1049 l 1,4,-1
 151 82 l 1,5,-1
 990 82 l 1,3,-1
EndSplineSet
EndChar
StartChar: guillemotleft
Encoding: 171 171 169
Width: 1366
Flags: W
Fore
932 996 m 1,0,-1
 1245 996 l 1,1,-1
 968 533 l 1,2,-1
 1245 71 l 1,3,-1
 932 71 l 1,4,-1
 614 533 l 1,5,-1
 932 996 l 1,0,-1
414 996 m 1,6,-1
 726 996 l 1,7,-1
 449 533 l 1,8,-1
 726 71 l 1,9,-1
 414 71 l 1,10,-1
 95 533 l 1,11,-1
 414 996 l 1,6,-1
EndSplineSet
EndChar
StartChar: OE
Encoding: 338 338 176
Width: 2048
Flags: W
Fore
1013 1466 m 1,0,-1
 1954 1466 l 1,1,-1
 1954 1153 l 1,2,-1
 1412 1153 l 1,3,-1
 1412 920 l 1,4,-1
 1898 920 l 1,5,-1
 1898 621 l 1,6,-1
 1412 621 l 1,7,-1
 1412 332 l 1,8,-1
 1984 332 l 1,9,-1
 1984 0 l 1,10,-1
 1013 0 l 1,11,-1
 1013 162 l 1,12,13
 949 69 949 69 875 28 c 0,14,15
 777 -26 777 -26 639 -26 c 0,16,17
 390 -26 390 -26 247 142 c 0,18,19
 71 350 71 350 71 728 c 0,20,21
 71 1110 71 1110 244 1317 c 0,22,23
 390 1491 390 1491 620 1491 c 0,24,25
 753 1491 753 1491 845.5 1445.5 c 128,-1,26
 938 1400 938 1400 1013 1311 c 1,27,-1
 1013 1466 l 1,0,-1
741 1155 m 0,28,29
 667 1155 667 1155 606.5 1107.5 c 128,-1,30
 546 1060 546 1060 522.5 981 c 128,-1,31
 499 902 499 902 499 706 c 0,32,33
 499 542 499 542 530.5 463.5 c 128,-1,34
 562 385 562 385 622 346 c 128,-1,35
 682 307 682 307 741 307 c 0,36,37
 802 307 802 307 864 349.5 c 128,-1,38
 926 392 926 392 954 470 c 128,-1,39
 982 548 982 548 982 747 c 0,40,41
 982 909 982 909 955.5 989 c 128,-1,42
 929 1069 929 1069 869.5 1112 c 128,-1,43
 810 1155 810 1155 741 1155 c 0,28,29
EndSplineSet
EndChar
StartChar: oe
Encoding: 339 339 177
Width: 2048
Flags: W
Fore
1990 436 m 1,0,-1
 1217 436 l 1,1,2
 1226 318 1226 318 1275 268 c 128,-1,3
 1324 218 1324 218 1403 218 c 0,4,5
 1455 218 1455 218 1493 241 c 128,-1,6
 1531 264 1531 264 1567 316 c 1,7,-1
 1959 280 l 1,8,9
 1892 131 1892 131 1752 53.5 c 128,-1,10
 1612 -24 1612 -24 1419 -24 c 0,11,12
 1175 -24 1175 -24 1004 94 c 1,13,14
 905 29 905 29 822.5 2.5 c 128,-1,15
 740 -24 740 -24 640 -24 c 0,16,17
 381 -24 381 -24 220 135.5 c 128,-1,18
 59 295 59 295 59 543 c 0,19,20
 59 818 59 818 260 974 c 0,21,22
 403 1086 403 1086 634 1086 c 0,23,24
 746 1086 746 1086 832 1059 c 128,-1,25
 918 1032 918 1032 1021 963 c 1,26,27
 1113 1025 1113 1025 1207 1055.5 c 128,-1,28
 1301 1086 1301 1086 1418 1086 c 0,29,30
 1685 1086 1685 1086 1838.5 932 c 128,-1,31
 1992 778 1992 778 1992 506 c 0,32,33
 1992 483 1992 483 1990 436 c 1,0,-1
1583 629 m 1,34,35
 1571 747 1571 747 1525 795.5 c 128,-1,36
 1479 844 1479 844 1403 844 c 0,37,38
 1328 844 1328 844 1277.5 793.5 c 128,-1,39
 1227 743 1227 743 1213 629 c 1,40,-1
 1583 629 l 1,34,35
466 543 m 0,41,42
 466 395 466 395 509.5 334 c 128,-1,43
 553 273 553 273 636 273 c 0,44,45
 720 273 720 273 766 331 c 128,-1,46
 812 389 812 389 812 556 c 0,47,48
 812 695 812 695 766 752.5 c 128,-1,49
 720 810 720 810 651 810 c 0,50,51
 563 810 563 810 514.5 752 c 128,-1,52
 466 694 466 694 466 543 c 0,41,42
EndSplineSet
EndChar
StartChar: endash
Encoding: 8211 8211 178
Width: 1024
Flags: W
Fore
-12 646 m 1,0,-1
 1036 646 l 1,1,-1
 1036 424 l 1,2,-1
 -12 424 l 1,3,-1
 -12 646 l 1,0,-1
EndSplineSet
EndChar
StartChar: emdash
Encoding: 8212 8212 179
Width: 2048
Flags: W
Fore
-12 646 m 1,0,-1
 2060 646 l 1,1,-1
 2060 424 l 1,2,-1
 -12 424 l 1,3,-1
 -12 646 l 1,0,-1
EndSplineSet
EndChar
StartChar: quoteleft
Encoding: 8216 8216 182
Width: 569
Flags: W
Fore
505 675 m 1,0,-1
 70 675 l 1,1,-1
 70 1010 l 2,2,3
 70 1195 70 1195 147 1302 c 128,-1,4
 224 1409 224 1409 411 1491 c 1,5,-1
 505 1313 l 1,6,7
 390 1259 390 1259 346 1205.5 c 128,-1,8
 302 1152 302 1152 297 1079 c 1,9,-1
 505 1079 l 1,10,-1
 505 675 l 1,0,-1
EndSplineSet
EndChar
StartChar: quoteright
Encoding: 8217 8217 183
Width: 569
Flags: W
Fore
70 1491 m 1,0,-1
 505 1491 l 1,1,-1
 505 1156 l 2,2,3
 505 971 505 971 428 863.5 c 128,-1,4
 351 756 351 756 165 675 c 1,5,-1
 70 853 l 1,6,7
 186 907 186 907 229.5 960.5 c 128,-1,8
 273 1014 273 1014 278 1087 c 1,9,-1
 70 1087 l 1,10,-1
 70 1491 l 1,0,-1
EndSplineSet
EndChar
StartChar: divide
Encoding: 247 247 184
Width: 1352
Flags: W
Fore
470 1356 m 1,0,-1
 871 1356 l 1,1,-1
 871 987 l 1,2,-1
 470 987 l 1,3,-1
 470 1356 l 1,0,-1
127 896 m 1,4,-1
 1218 896 l 1,5,-1
 1218 570 l 1,6,-1
 127 570 l 1,7,-1
 127 896 l 1,4,-1
470 478 m 1,8,-1
 871 478 l 1,9,-1
 871 105 l 1,10,-1
 470 105 l 1,11,-1
 470 478 l 1,8,-1
EndSplineSet
EndChar
StartChar: lozenge
Encoding: 9674 9674 185
Width: 1012
Flags: W
Fore
549 1422 m 1,0,-1
 967 709 l 1,1,-1
 549 0 l 1,2,-1
 438 0 l 1,3,-1
 47 709 l 1,4,-1
 438 1422 l 1,5,-1
 549 1422 l 1,0,-1
495 1325 m 1,6,-1
 155 709 l 1,7,-1
 495 94 l 1,8,-1
 854 709 l 1,9,-1
 495 1325 l 1,6,-1
EndSplineSet
EndChar
StartChar: fraction
Encoding: 8260 8260 188
AltUni2: 002215.ffffffff.0
Width: 342
Flags: W
Fore
523 1491 m 1,0,-1
 738 1491 l 1,1,-1
 -184 -53 l 1,2,-1
 -397 -53 l 1,3,-1
 523 1491 l 1,0,-1
EndSplineSet
EndChar
StartChar: Euro
Encoding: 8364 8364 189
Width: 1366
Flags: W
Fore
999 684 m 1,0,-1
 956 502 l 1,1,-1
 653 502 l 1,2,3
 712 315 712 315 909 315 c 0,4,5
 1125 315 1125 315 1313 455 c 1,6,-1
 1313 82 l 1,7,8
 1157 -25 1157 -25 936 -25 c 0,9,10
 579 -25 579 -25 408 138 c 128,-1,11
 237 301 237 301 199 502 c 1,12,-1
 18 502 l 1,13,-1
 66 684 l 1,14,-1
 176 684 l 1,15,16
 174 699 174 699 174 737 c 0,17,18
 174 777 174 777 176 795 c 1,19,-1
 43 795 l 1,20,-1
 90 977 l 1,21,-1
 199 977 l 1,22,23
 329 1491 329 1491 913 1491 c 0,24,25
 1104 1491 1104 1491 1300 1389 c 1,26,-1
 1210 1026 l 1,27,28
 1074 1151 1074 1151 926 1151 c 0,29,30
 732 1151 732 1151 664 977 c 1,31,-1
 1024 977 l 1,32,-1
 981 795 l 1,33,-1
 629 795 l 1,34,35
 627 775 627 775 627 737 c 2,36,-1
 627 684 l 1,37,-1
 999 684 l 1,0,-1
EndSplineSet
EndChar
StartChar: guilsinglleft
Encoding: 8249 8249 190
Width: 682
Flags: W
Fore
342 996 m 1,0,-1
 654 996 l 1,1,-1
 377 533 l 1,2,-1
 654 71 l 1,3,-1
 342 71 l 1,4,-1
 23 533 l 1,5,-1
 342 996 l 1,0,-1
EndSplineSet
EndChar
StartChar: fi
Encoding: 61441 61441 192
AltUni2: 00fb01.ffffffff.0
Width: 1366
Flags: W
Fore
522 1062 m 1,0,-1
 704 1062 l 1,1,-1
 704 764 l 1,2,-1
 522 764 l 1,3,-1
 522 0 l 1,4,-1
 152 0 l 1,5,-1
 152 764 l 1,6,-1
 20 764 l 1,7,-1
 20 1062 l 1,8,-1
 152 1062 l 1,9,-1
 152 1110 l 2,10,11
 152 1170 152 1170 165.5 1250.5 c 128,-1,12
 179 1331 179 1331 220 1382.5 c 128,-1,13
 261 1434 261 1434 333 1462.5 c 128,-1,14
 405 1491 405 1491 508 1491 c 0,15,16
 586 1491 586 1491 791 1468 c 1,17,-1
 746 1223 l 1,18,19
 674 1233 674 1233 643 1233 c 0,20,21
 577 1233 577 1233 549.5 1203 c 128,-1,22
 522 1173 522 1173 522 1086 c 2,23,-1
 522 1062 l 1,0,-1
871 1466 m 1,24,-1
 1242 1466 l 1,25,-1
 1242 1189 l 1,26,-1
 871 1189 l 1,27,-1
 871 1466 l 1,24,-1
871 1062 m 1,28,-1
 1242 1062 l 1,29,-1
 1242 0 l 1,30,-1
 871 0 l 1,31,-1
 871 1062 l 1,28,-1
EndSplineSet
EndChar
StartChar: fl
Encoding: 61442 61442 193
AltUni2: 00fb02.ffffffff.0
Width: 1366
Flags: W
Fore
522 1062 m 1,0,-1
 704 1062 l 1,1,-1
 704 764 l 1,2,-1
 522 764 l 1,3,-1
 522 0 l 1,4,-1
 152 0 l 1,5,-1
 152 764 l 1,6,-1
 20 764 l 1,7,-1
 20 1062 l 1,8,-1
 152 1062 l 1,9,-1
 152 1110 l 2,10,11
 152 1170 152 1170 165.5 1250.5 c 128,-1,12
 179 1331 179 1331 220 1382.5 c 128,-1,13
 261 1434 261 1434 333 1462.5 c 128,-1,14
 405 1491 405 1491 508 1491 c 0,15,16
 586 1491 586 1491 791 1468 c 1,17,-1
 746 1223 l 1,18,19
 674 1233 674 1233 643 1233 c 0,20,21
 577 1233 577 1233 549.5 1203 c 128,-1,22
 522 1173 522 1173 522 1086 c 2,23,-1
 522 1062 l 1,0,-1
871 1466 m 1,24,-1
 1242 1466 l 1,25,-1
 1242 0 l 1,26,-1
 871 0 l 1,27,-1
 871 1466 l 1,24,-1
EndSplineSet
EndChar
StartChar: daggerdbl
Encoding: 8225 8225 194
Width: 1366
Flags: W
Fore
511 1466 m 1,0,-1
 863 1466 l 1,1,-1
 863 1132 l 1,2,-1
 1237 1132 l 1,3,-1
 1237 835 l 1,4,-1
 863 835 l 1,5,-1
 863 223 l 1,6,-1
 1237 223 l 1,7,-1
 1237 -73 l 1,8,-1
 863 -73 l 1,9,-1
 863 -407 l 1,10,-1
 511 -407 l 1,11,-1
 511 -73 l 1,12,-1
 141 -73 l 1,13,-1
 141 223 l 1,14,-1
 511 223 l 1,15,-1
 511 835 l 1,16,-1
 141 835 l 1,17,-1
 141 1132 l 1,18,-1
 511 1132 l 1,19,-1
 511 1466 l 1,0,-1
EndSplineSet
EndChar
StartChar: periodcentered
Encoding: 8729 8729 195
Width: 682
Flags: W
Fore
124 937 m 1,0,-1
 559 937 l 1,1,-1
 559 529 l 1,2,-1
 124 529 l 1,3,-1
 124 937 l 1,0,-1
EndSplineSet
EndChar
StartChar: quotesinglbase
Encoding: 8218 8218 196
Width: 569
Flags: W
Fore
70 404 m 1,0,-1
 505 404 l 1,1,-1
 505 69 l 2,2,3
 505 -116 505 -116 428 -223 c 128,-1,4
 351 -330 351 -330 165 -412 c 1,5,-1
 70 -234 l 1,6,7
 186 -180 186 -180 229.5 -126.5 c 128,-1,8
 273 -73 273 -73 278 0 c 1,9,-1
 70 0 l 1,10,-1
 70 404 l 1,0,-1
EndSplineSet
EndChar
StartChar: perthousand
Encoding: 8240 8240 198
Width: 2048
Flags: W
Fore
0 1105 m 0,0,1
 0 1305 0 1305 83.5 1398 c 128,-1,2
 167 1491 167 1491 303 1491 c 256,3,4
 439 1491 439 1491 523 1398.5 c 128,-1,5
 607 1306 607 1306 607 1116 c 0,6,7
 607 906 607 906 523.5 813 c 128,-1,8
 440 720 440 720 303 720 c 0,9,10
 167 720 167 720 83.5 813 c 128,-1,11
 0 906 0 906 0 1105 c 0,0,1
211 1105 m 256,12,13
 211 957 211 957 237 917 c 128,-1,14
 263 877 263 877 302 877 c 0,15,16
 342 877 342 877 368 917 c 128,-1,17
 394 957 394 957 394 1105 c 256,18,19
 394 1253 394 1253 368 1293 c 128,-1,20
 342 1333 342 1333 302 1333 c 0,21,22
 263 1333 263 1333 237 1293 c 128,-1,23
 211 1253 211 1253 211 1105 c 256,12,13
874 1491 m 1,24,-1
 1054 1491 l 1,25,-1
 482 -74 l 1,26,-1
 304 -74 l 1,27,-1
 874 1491 l 1,24,-1
743 312 m 0,28,29
 743 512 743 512 826.5 605 c 128,-1,30
 910 698 910 698 1046 698 c 256,31,32
 1182 698 1182 698 1266 605 c 128,-1,33
 1350 512 1350 512 1350 322 c 0,34,35
 1350 113 1350 113 1266.5 19.5 c 128,-1,36
 1183 -74 1183 -74 1046 -74 c 0,37,38
 910 -74 910 -74 826.5 19.5 c 128,-1,39
 743 113 743 113 743 312 c 0,28,29
954 311 m 256,40,41
 954 163 954 163 980 123 c 128,-1,42
 1006 83 1006 83 1046 83 c 0,43,44
 1085 83 1085 83 1111 123 c 128,-1,45
 1137 163 1137 163 1137 311 c 256,46,47
 1137 459 1137 459 1111 499.5 c 128,-1,48
 1085 540 1085 540 1046 540 c 0,49,50
 1006 540 1006 540 980 499.5 c 128,-1,51
 954 459 954 459 954 311 c 256,40,41
1442 312 m 0,52,53
 1442 512 1442 512 1525.5 605 c 128,-1,54
 1609 698 1609 698 1745 698 c 0,55,56
 1880 698 1880 698 1964 605 c 128,-1,57
 2048 512 2048 512 2048 322 c 0,58,59
 2048 113 2048 113 1965 19.5 c 128,-1,60
 1882 -74 1882 -74 1745 -74 c 0,61,62
 1609 -74 1609 -74 1525.5 19.5 c 128,-1,63
 1442 113 1442 113 1442 312 c 0,52,53
1652 311 m 256,64,65
 1652 163 1652 163 1678 123 c 128,-1,66
 1704 83 1704 83 1744 83 c 256,67,68
 1784 83 1784 83 1810 123 c 128,-1,69
 1836 163 1836 163 1836 311 c 256,70,71
 1836 459 1836 459 1810 499.5 c 128,-1,72
 1784 540 1784 540 1744 540 c 256,73,74
 1704 540 1704 540 1678 499.5 c 128,-1,75
 1652 459 1652 459 1652 311 c 256,64,65
EndSplineSet
EndChar
StartChar: dotlessi
Encoding: 305 305 215
Width: 682
Flags: W
Fore
138 1062 m 1,0,-1
 545 1062 l 1,1,-1
 545 0 l 1,2,-1
 138 0 l 1,3,-1
 138 1062 l 1,0,-1
EndSplineSet
EndChar
StartChar: circumflex
Encoding: 710 710 216
Width: 682
Flags: W
Fore
201 1478 m 1,0,-1
 490 1478 l 1,1,-1
 712 1192 l 1,2,-1
 464 1192 l 1,3,-1
 342 1345 l 1,4,-1
 220 1192 l 1,5,-1
 -28 1192 l 1,6,-1
 201 1478 l 1,0,-1
EndSplineSet
EndChar
StartChar: tilde
Encoding: 732 732 217
Width: 682
Flags: W
Fore
543 1466 m 1,0,-1
 701 1466 l 1,1,2
 702 1440 702 1440 702 1421 c 0,3,4
 702 1310 702 1310 646 1249 c 128,-1,5
 590 1188 590 1188 502 1188 c 0,6,7
 438 1188 438 1188 308 1241 c 0,8,9
 229 1273 229 1273 199 1273 c 0,10,11
 170 1273 170 1273 154 1255 c 128,-1,12
 138 1237 138 1237 137 1191 c 1,13,-1
 -19 1191 l 1,14,15
 -20 1215 -20 1215 -20 1233 c 0,16,17
 -20 1340 -20 1340 39 1403 c 128,-1,18
 98 1466 98 1466 179 1466 c 0,19,20
 214 1466 214 1466 245 1458 c 128,-1,21
 276 1450 276 1450 359.5 1415 c 128,-1,22
 443 1380 443 1380 481 1380 c 0,23,24
 508 1380 508 1380 524.5 1398.5 c 128,-1,25
 541 1417 541 1417 543 1466 c 1,0,-1
EndSplineSet
EndChar
StartChar: macron
Encoding: 713 713 218
Width: 682
Flags: W
Fore
18 1446 m 1,0,-1
 665 1446 l 1,1,-1
 665 1229 l 1,2,-1
 18 1229 l 1,3,-1
 18 1446 l 1,0,-1
EndSplineSet
EndChar
StartChar: breve
Encoding: 728 728 219
Width: 682
Flags: W
Fore
518 1491 m 1,0,-1
 683 1491 l 1,1,2
 677 1396 677 1396 638 1331.5 c 128,-1,3
 599 1267 599 1267 520 1228 c 128,-1,4
 441 1189 441 1189 349 1189 c 0,5,6
 197 1189 197 1189 106 1268.5 c 128,-1,7
 15 1348 15 1348 0 1491 c 1,8,-1
 172 1491 l 1,9,10
 192 1433 192 1433 229 1408.5 c 128,-1,11
 266 1384 266 1384 340 1384 c 0,12,13
 427 1384 427 1384 464.5 1408.5 c 128,-1,14
 502 1433 502 1433 518 1491 c 1,0,-1
EndSplineSet
EndChar
StartChar: dotaccent
Encoding: 729 729 220
Width: 683
Flags: W
Fore
184 1496 m 1,0,-1
 498 1496 l 1,1,-1
 498 1196 l 1,2,-1
 184 1196 l 1,3,-1
 184 1496 l 1,0,-1
EndSplineSet
EndChar
StartChar: ring
Encoding: 730 730 221
Width: 682
Flags: W
Fore
581 1403 m 256,0,1
 581 1303 581 1303 510.5 1233 c 128,-1,2
 440 1163 440 1163 341 1163 c 0,3,4
 241 1163 241 1163 170.5 1233 c 128,-1,5
 100 1303 100 1303 100 1403 c 256,6,7
 100 1503 100 1503 170.5 1573.5 c 128,-1,8
 241 1644 241 1644 341 1644 c 0,9,10
 440 1644 440 1644 510.5 1573.5 c 128,-1,11
 581 1503 581 1503 581 1403 c 256,0,1
443 1404 m 256,12,13
 443 1447 443 1447 413 1477 c 128,-1,14
 383 1507 383 1507 340 1507 c 256,15,16
 297 1507 297 1507 267 1477 c 128,-1,17
 237 1447 237 1447 237 1404 c 256,18,19
 237 1361 237 1361 267 1331 c 128,-1,20
 297 1301 297 1301 340 1301 c 256,21,22
 383 1301 383 1301 413 1331 c 128,-1,23
 443 1361 443 1361 443 1404 c 256,12,13
EndSplineSet
EndChar
StartChar: cedilla
Encoding: 184 184 222
Width: 682
Flags: W
Fore
116 -165 m 1,0,-1
 146 -47 l 1,1,2
 240 -24 240 -24 322 -24 c 0,3,4
 493 -24 493 -24 558 -82 c 128,-1,5
 623 -140 623 -140 623 -219 c 0,6,7
 623 -267 623 -267 593.5 -318 c 128,-1,8
 564 -369 564 -369 488 -400 c 128,-1,9
 412 -431 412 -431 286 -431 c 0,10,11
 172 -431 172 -431 18 -405 c 1,12,-1
 18 -282 l 1,13,14
 122 -302 122 -302 239 -302 c 0,15,16
 325 -302 325 -302 355.5 -279 c 128,-1,17
 386 -256 386 -256 386 -219 c 0,18,19
 386 -190 386 -190 361 -169 c 128,-1,20
 336 -148 336 -148 283 -148 c 0,21,22
 212 -148 212 -148 116 -165 c 1,0,-1
EndSplineSet
EndChar
StartChar: hungarumlaut
Encoding: 733 733 223
Width: 682
Flags: W
Fore
214 1491 m 1,0,-1
 539 1491 l 1,1,-1
 243 1196 l 1,2,-1
 46 1196 l 1,3,-1
 214 1491 l 1,0,-1
611 1491 m 1,4,-1
 939 1491 l 1,5,-1
 637 1196 l 1,6,-1
 446 1196 l 1,7,-1
 611 1491 l 1,4,-1
EndSplineSet
EndChar
StartChar: ogonek
Encoding: 731 731 224
Width: 682
Flags: W
Fore
200 26 m 1,0,-1
 369 26 l 1,1,2
 349 -61 349 -61 349 -118 c 0,3,4
 349 -194 349 -194 386 -233 c 128,-1,5
 423 -272 423 -272 489 -272 c 0,6,7
 536 -272 536 -272 617 -246 c 1,8,-1
 617 -401 l 1,9,10
 493 -447 493 -447 405 -447 c 0,11,12
 285 -447 285 -447 218.5 -383 c 128,-1,13
 152 -319 152 -319 152 -213 c 0,14,15
 152 -124 152 -124 200 26 c 1,0,-1
EndSplineSet
EndChar
StartChar: caron
Encoding: 711 711 225
Width: 682
Flags: W
Fore
482 1192 m 1,0,-1
 194 1192 l 1,1,-1
 -28 1478 l 1,2,-1
 219 1478 l 1,3,-1
 341 1325 l 1,4,-1
 463 1478 l 1,5,-1
 712 1478 l 1,6,-1
 482 1192 l 1,0,-1
EndSplineSet
EndChar
StartChar: Lslash
Encoding: 321 321 226
Width: 1366
Flags: W
Fore
150 1466 m 1,0,-1
 603 1466 l 1,1,-1
 603 1062 l 1,2,-1
 921 1301 l 1,3,-1
 921 1021 l 1,4,-1
 603 781 l 1,5,-1
 603 361 l 1,6,-1
 1309 361 l 1,7,-1
 1309 0 l 1,8,-1
 150 0 l 1,9,-1
 150 439 l 1,10,-1
 -1 323 l 1,11,-1
 -1 603 l 1,12,-1
 150 717 l 1,13,-1
 150 1466 l 1,0,-1
EndSplineSet
EndChar
StartChar: lslash
Encoding: 322 322 227
Width: 682
Flags: W
Fore
138 1466 m 1,0,-1
 547 1466 l 1,1,-1
 547 997 l 1,2,-1
 683 1086 l 1,3,-1
 683 890 l 1,4,-1
 547 799 l 1,5,-1
 547 0 l 1,6,-1
 138 0 l 1,7,-1
 138 528 l 1,8,-1
 0 436 l 1,9,-1
 0 632 l 1,10,-1
 138 725 l 1,11,-1
 138 1466 l 1,0,-1
EndSplineSet
EndChar
StartChar: brokenbar
Encoding: 166 166 232
Width: 569
Flags: W
Fore
160 1466 m 1,0,-1
 415 1466 l 1,1,-1
 415 690 l 1,2,-1
 160 690 l 1,3,-1
 160 1466 l 1,0,-1
160 373 m 1,4,-1
 415 373 l 1,5,-1
 415 -404 l 1,6,-1
 160 -404 l 1,7,-1
 160 373 l 1,4,-1
EndSplineSet
EndChar
StartChar: Eth
Encoding: 208 208 233
Width: 1593
Flags: W
Fore
156 1466 m 1,0,-1
 829 1466 l 2,1,2
 1028 1466 1028 1466 1150.5 1412 c 128,-1,3
 1273 1358 1273 1358 1353 1257.5 c 128,-1,4
 1433 1157 1433 1157 1468.5 1023 c 128,-1,5
 1504 889 1504 889 1504 739 c 0,6,7
 1504 498 1504 498 1449 368.5 c 128,-1,8
 1394 239 1394 239 1300 153.5 c 128,-1,9
 1206 68 1206 68 1096 39 c 0,10,11
 949 0 949 0 829 0 c 2,12,-1
 156 0 l 1,13,-1
 156 622 l 1,14,-1
 2 622 l 1,15,-1
 2 843 l 1,16,-1
 156 843 l 1,17,-1
 156 1466 l 1,0,-1
609 1134 m 1,18,-1
 609 843 l 1,19,-1
 829 843 l 1,20,-1
 829 622 l 1,21,-1
 609 622 l 1,22,-1
 609 333 l 1,23,-1
 720 333 l 2,24,25
 862 333 862 333 922 364.5 c 128,-1,26
 982 396 982 396 1016 474.5 c 128,-1,27
 1050 553 1050 553 1050 729 c 0,28,29
 1050 962 1050 962 973.5 1048 c 128,-1,30
 897 1134 897 1134 721 1134 c 2,31,-1
 609 1134 l 1,18,-1
EndSplineSet
EndChar
StartChar: eth
Encoding: 240 240 234
Width: 1366
Flags: W
Fore
321 1200 m 1,0,-1
 574 1290 l 1,1,2
 509 1354 509 1354 457.5 1392.5 c 128,-1,3
 406 1431 406 1431 339 1466 c 1,4,-1
 751 1466 l 1,5,6
 811 1434 811 1434 864 1394 c 1,7,-1
 1067 1466 l 1,8,-1
 1104 1365 l 1,9,-1
 958 1311 l 1,10,11
 1124 1143 1124 1143 1207 961 c 128,-1,12
 1290 779 1290 779 1290 582 c 0,13,14
 1290 297 1290 297 1129 136.5 c 128,-1,15
 968 -24 968 -24 687 -24 c 0,16,17
 496 -24 496 -24 353.5 48.5 c 128,-1,18
 211 121 211 121 143 255.5 c 128,-1,19
 75 390 75 390 75 531 c 0,20,21
 75 677 75 677 141 802 c 128,-1,22
 207 927 207 927 327 994.5 c 128,-1,23
 447 1062 447 1062 569 1062 c 0,24,25
 629 1062 629 1062 686 1045 c 0,26,27
 724 1033 724 1033 780 999 c 1,28,29
 712 1118 712 1118 651 1200 c 1,30,-1
 358 1093 l 1,31,-1
 321 1200 l 1,0,-1
483 528 m 0,32,33
 483 385 483 385 540.5 318 c 128,-1,34
 598 251 598 251 680 251 c 0,35,36
 756 251 756 251 822 316.5 c 128,-1,37
 888 382 888 382 888 547 c 0,38,39
 888 691 888 691 823.5 749 c 128,-1,40
 759 807 759 807 683 807 c 0,41,42
 599 807 599 807 541 740 c 128,-1,43
 483 673 483 673 483 528 c 0,32,33
EndSplineSet
EndChar
StartChar: Thorn
Encoding: 222 222 237
Width: 1479
Flags: W
Fore
148 1466 m 1,0,-1
 603 1466 l 1,1,-1
 603 1205 l 1,2,-1
 901 1204 l 2,3,4
 1147 1204 1147 1204 1269.5 1087 c 128,-1,5
 1392 970 1392 970 1392 754 c 0,6,7
 1392 533 1392 533 1258.5 408 c 128,-1,8
 1125 283 1125 283 851 283 c 2,9,-1
 603 283 l 1,10,-1
 603 0 l 1,11,-1
 148 0 l 1,12,-1
 148 1466 l 1,0,-1
603 580 m 1,13,-1
 714 580 l 2,14,15
 845 580 845 580 898 625.5 c 128,-1,16
 951 671 951 671 951 742 c 0,17,18
 951 810 951 810 905 858.5 c 128,-1,19
 859 907 859 907 732 907 c 2,20,-1
 603 907 l 1,21,-1
 603 580 l 1,13,-1
EndSplineSet
EndChar
StartChar: thorn
Encoding: 254 254 238
Width: 1366
Flags: W
Fore
125 -404 m 1,0,-1
 125 1466 l 1,1,-1
 536 1466 l 1,2,-1
 536 959 l 1,3,4
 600 1026 600 1026 670 1056 c 128,-1,5
 740 1086 740 1086 838 1086 c 0,6,7
 1056 1086 1056 1086 1175 926.5 c 128,-1,8
 1294 767 1294 767 1294 520 c 0,9,10
 1294 255 1294 255 1167 115.5 c 128,-1,11
 1040 -24 1040 -24 846 -24 c 0,12,13
 752 -24 752 -24 674.5 8 c 128,-1,14
 597 40 597 40 536 103 c 1,15,-1
 536 -404 l 1,16,-1
 125 -404 l 1,0,-1
533 528 m 0,17,18
 533 402 533 402 586 341 c 128,-1,19
 639 280 639 280 720 280 c 0,20,21
 791 280 791 280 839 338.5 c 128,-1,22
 887 397 887 397 887 537 c 0,23,24
 887 666 887 666 837 726.5 c 128,-1,25
 787 787 787 787 715 787 c 0,26,27
 637 787 637 787 585 726 c 128,-1,28
 533 665 533 665 533 528 c 0,17,18
EndSplineSet
EndChar
StartChar: minus
Encoding: 8722 8722 239
Width: 1352
Flags: W
Fore
127 895 m 1,0,-1
 1218 895 l 1,1,-1
 1218 571 l 1,2,-1
 127 571 l 1,3,-1
 127 895 l 1,0,-1
EndSplineSet
EndChar
StartChar: multiply
Encoding: 215 215 240
Width: 1352
Flags: W
Fore
355 1280 m 1,0,-1
 673 965 l 1,1,-1
 988 1280 l 1,2,-1
 1220 1049 l 1,3,-1
 903 734 l 1,4,-1
 1220 415 l 1,5,-1
 988 186 l 1,6,-1
 673 505 l 1,7,-1
 355 186 l 1,8,-1
 125 415 l 1,9,-1
 443 734 l 1,10,-1
 125 1049 l 1,11,-1
 355 1280 l 1,0,-1
EndSplineSet
EndChar
StartChar: onesuperior
Encoding: 185 185 241
Width: 819
Flags: W
Fore
627 1491 m 1,0,-1
 627 741 l 1,1,-1
 367 741 l 1,2,-1
 367 1189 l 1,3,4
 311 1156 311 1156 265.5 1139.5 c 128,-1,5
 220 1123 220 1123 141 1107 c 1,6,-1
 141 1314 l 1,7,8
 325 1359 325 1359 429 1491 c 1,9,-1
 627 1491 l 1,0,-1
EndSplineSet
EndChar
StartChar: twosuperior
Encoding: 178 178 242
Width: 819
Flags: W
Fore
791 741 m 1,0,-1
 22 741 l 1,1,2
 47 832 47 832 102.5 897 c 128,-1,3
 158 962 158 962 350 1090 c 0,4,5
 461 1164 461 1164 491 1200 c 0,6,7
 520 1236 520 1236 520 1265 c 0,8,9
 520 1295 520 1295 497.5 1314 c 128,-1,10
 475 1333 475 1333 428 1333 c 0,11,12
 379 1333 379 1333 346 1306.5 c 128,-1,13
 313 1280 313 1280 298 1220 c 1,14,-1
 52 1241 l 1,15,16
 70 1321 70 1321 100 1361 c 0,17,18
 143 1420 143 1420 227 1455.5 c 128,-1,19
 311 1491 311 1491 439 1491 c 0,20,21
 620 1491 620 1491 704 1425 c 128,-1,22
 788 1359 788 1359 788 1267 c 0,23,24
 788 1198 788 1198 746 1140 c 0,25,26
 703 1081 703 1081 603.5 1023 c 128,-1,27
 504 965 504 965 442 924 c 1,28,-1
 791 924 l 1,29,-1
 791 741 l 1,0,-1
EndSplineSet
EndChar
StartChar: threesuperior
Encoding: 179 179 243
Width: 819
Flags: W
Fore
301 1258 m 1,0,-1
 43 1298 l 1,1,2
 92 1392 92 1392 164 1435 c 0,3,4
 260 1491 260 1491 420 1491 c 0,5,6
 600 1491 600 1491 692 1424 c 0,7,8
 757 1376 757 1376 757 1300 c 0,9,10
 757 1247 757 1247 721 1202 c 0,11,12
 696 1171 696 1171 631 1140 c 1,13,14
 711 1114 711 1114 749 1063 c 128,-1,15
 787 1012 787 1012 787 945 c 0,16,17
 787 851 787 851 714 796 c 0,18,19
 615 721 615 721 411 721 c 0,20,21
 220 721 220 721 118 799 c 0,22,23
 59 844 59 844 31 933 c 1,24,-1
 285 962 l 1,25,26
 301 914 301 914 330 893 c 128,-1,27
 359 872 359 872 407 872 c 0,28,29
 463 872 463 872 494.5 899.5 c 128,-1,30
 526 927 526 927 526 965 c 0,31,32
 526 1016 526 1016 470 1044 c 0,33,34
 438 1060 438 1060 321 1062 c 1,35,-1
 349 1203 l 1,36,37
 435 1203 435 1203 465 1225 c 128,-1,38
 495 1247 495 1247 495 1280 c 0,39,40
 495 1306 495 1306 474.5 1323.5 c 128,-1,41
 454 1341 454 1341 414 1341 c 0,42,43
 373 1341 373 1341 340 1318 c 0,44,45
 316 1301 316 1301 301 1258 c 1,0,-1
EndSplineSet
EndChar
StartChar: franc
Encoding: 8355 8355 247
Width: 1707
Flags: W
Fore
917 895 m 1,0,-1
 917 968 l 1,1,-1
 1298 968 l 1,2,-1
 1298 794 l 1,3,4
 1354 907 1354 907 1412 949.5 c 128,-1,5
 1470 992 1470 992 1557 992 c 0,6,7
 1646 992 1646 992 1753 936 c 1,8,-1
 1627 646 l 1,9,10
 1555 676 1555 676 1513 676 c 0,11,12
 1433 676 1433 676 1389 610 c 0,13,14
 1326 517 1326 517 1326 262 c 2,15,-1
 1326 0 l 1,16,-1
 917 0 l 1,17,-1
 917 599 l 1,18,-1
 610 599 l 1,19,-1
 610 0 l 1,20,-1
 155 0 l 1,21,-1
 155 1466 l 1,22,-1
 1275 1466 l 1,23,-1
 1275 1151 l 1,24,-1
 610 1151 l 1,25,-1
 610 895 l 1,26,-1
 917 895 l 1,0,-1
EndSplineSet
EndChar
StartChar: dmacron
Encoding: 273 273 257
Width: 1366
Flags: W
Fore
1241 1350 m 1,0,-1
 1425 1350 l 1,1,-1
 1425 1187 l 1,2,-1
 1241 1187 l 1,3,-1
 1241 0 l 1,4,-1
 860 0 l 1,5,-1
 860 157 l 1,6,7
 780 57 780 57 714 22 c 0,8,9
 626 -24 626 -24 518 -24 c 0,10,11
 301 -24 301 -24 186.5 141 c 128,-1,12
 72 306 72 306 72 542 c 0,13,14
 72 806 72 806 198.5 946 c 128,-1,15
 325 1086 325 1086 520 1086 c 0,16,17
 615 1086 615 1086 692.5 1054 c 128,-1,18
 770 1022 770 1022 830 958 c 1,19,-1
 830 1187 l 1,20,-1
 524 1187 l 1,21,-1
 524 1350 l 1,22,-1
 830 1350 l 1,23,-1
 830 1466 l 1,24,-1
 1241 1466 l 1,25,-1
 1241 1350 l 1,0,-1
833 534 m 0,26,27
 833 659 833 659 780 720.5 c 128,-1,28
 727 782 727 782 646 782 c 0,29,30
 575 782 575 782 527 723 c 128,-1,31
 479 664 479 664 479 525 c 0,32,33
 479 395 479 395 528.5 334.5 c 128,-1,34
 578 274 578 274 651 274 c 0,35,36
 729 274 729 274 781 335 c 128,-1,37
 833 396 833 396 833 534 c 0,26,27
EndSplineSet
EndChar
StartChar: middot
Encoding: 183 183 259
Width: 683
Flags: W
Fore
637 937 m 1,0,-1
 1072 937 l 1,1,-1
 1072 529 l 1,2,-1
 637 529 l 1,3,-1
 637 937 l 1,0,-1
EndSplineSet
EndChar
StartChar: foursuperior
Encoding: 61443 61443 260
Width: 811
Flags: W
Fore
449 841 m 1,0,-1
 41 841 l 1,1,-1
 41 1030 l 1,2,-1
 459 1491 l 1,3,-1
 673 1491 l 1,4,-1
 673 1007 l 1,5,-1
 772 1007 l 1,6,-1
 772 841 l 1,7,-1
 673 841 l 1,8,-1
 673 720 l 1,9,-1
 449 720 l 1,10,-1
 449 841 l 1,0,-1
449 1007 m 1,11,-1
 449 1226 l 1,12,-1
 245 1007 l 1,13,-1
 449 1007 l 1,11,-1
EndSplineSet
EndChar
StartChar: IJ
Encoding: 306 306 272
Width: 2105
Flags: W
Fore
1952 672 m 2,0,1
 1952 510 1952 510 1935.5 400.5 c 128,-1,2
 1919 291 1919 291 1861.5 199 c 128,-1,3
 1804 107 1804 107 1712.5 54.5 c 128,-1,4
 1621 2 1621 2 1541.5 -11.5 c 128,-1,5
 1462 -25 1462 -25 1384 -25 c 0,6,7
 1071 -25 1071 -25 929.5 110.5 c 128,-1,8
 788 246 788 246 772 496 c 1,9,-1
 1204 555 l 1,10,11
 1204 315 1204 315 1352 315 c 0,12,13
 1422 315 1422 315 1460.5 366.5 c 128,-1,14
 1499 418 1499 418 1499 563 c 2,15,-1
 1499 1466 l 1,16,-1
 1952 1466 l 1,17,-1
 1952 672 l 2,0,1
625 0 m 1,18,-1
 172 0 l 1,19,-1
 172 1466 l 1,20,-1
 625 1466 l 1,21,-1
 625 0 l 1,18,-1
EndSplineSet
EndChar
StartChar: ij
Encoding: 307 307 273
Width: 1368
Flags: W
Fore
1231 1188 m 1,0,-1
 823 1188 l 1,1,-1
 823 1466 l 1,2,-1
 1231 1466 l 1,3,-1
 1231 1188 l 1,0,-1
545 1188 m 1,4,-1
 137 1188 l 1,5,-1
 137 1466 l 1,6,-1
 545 1466 l 1,7,-1
 545 1188 l 1,4,-1
1231 33 m 2,8,9
 1231 -114 1231 -114 1213.5 -206.5 c 128,-1,10
 1196 -299 1196 -299 1118.5 -364.5 c 128,-1,11
 1041 -430 1041 -430 877 -430 c 0,12,13
 745 -430 745 -430 584 -395 c 1,14,-1
 645 -100 l 1,15,16
 701 -111 701 -111 717 -111 c 0,17,18
 775 -111 775 -111 799 -70.5 c 128,-1,19
 823 -30 823 -30 823 68 c 2,20,-1
 823 1061 l 1,21,-1
 1231 1061 l 1,22,-1
 1231 33 l 2,8,9
545 0 m 1,23,-1
 137 0 l 1,24,-1
 137 1061 l 1,25,-1
 545 1061 l 1,26,-1
 545 0 l 1,23,-1
EndSplineSet
EndChar
StartChar: napostrophe
Encoding: 329 329 284
Width: 1757
Flags: W
Fore
449 1169 m 2,0,1
 449 1010 449 1010 379 903 c 128,-1,2
 309 796 309 796 150 729 c 1,3,-1
 53 858 l 1,4,5
 137 896 137 896 188 949 c 128,-1,6
 239 1002 239 1002 242 1100 c 1,7,-1
 53 1100 l 1,8,-1
 53 1466 l 1,9,-1
 449 1466 l 1,10,-1
 449 1169 l 2,0,1
1638 0 m 1,11,-1
 1231 0 l 1,12,-1
 1231 584 l 2,13,14
 1231 768 1231 768 1087 768 c 0,15,16
 1008 768 1008 768 965 709.5 c 128,-1,17
 922 651 922 651 922 510 c 2,18,-1
 922 0 l 1,19,-1
 514 0 l 1,20,-1
 514 1061 l 1,21,-1
 895 1061 l 1,22,-1
 895 889 l 1,23,-1
 899 889 l 1,24,25
 1036 1085 1036 1085 1278 1085 c 0,26,27
 1456 1085 1456 1085 1547 979.5 c 128,-1,28
 1638 874 1638 874 1638 676 c 2,29,-1
 1638 0 l 1,11,-1
EndSplineSet
EndChar
StartChar: underscoredbl
Encoding: 8215 8215 314
Width: 1024
Flags: W
Fore
1036 -154 m 1,0,-1
 -12 -154 l 1,1,-1
 -12 -52 l 1,2,-1
 1036 -52 l 1,3,-1
 1036 -154 l 1,0,-1
1036 -358 m 1,4,-1
 -12 -358 l 1,5,-1
 -12 -256 l 1,6,-1
 1036 -256 l 1,7,-1
 1036 -358 l 1,4,-1
EndSplineSet
EndChar
StartChar: minute
Encoding: 8242 8242 315
Width: 623
Flags: W
Fore
520 1491 m 1,0,-1
 319 1090 l 1,1,-1
 125 1090 l 1,2,-1
 170 1491 l 1,3,-1
 520 1491 l 1,0,-1
EndSplineSet
EndChar
StartChar: second
Encoding: 8243 8243 316
Width: 1073
Flags: W
Fore
973 1491 m 1,0,-1
 772 1090 l 1,1,-1
 578 1090 l 1,2,-1
 623 1491 l 1,3,-1
 973 1491 l 1,0,-1
514 1491 m 1,4,-1
 313 1090 l 1,5,-1
 119 1090 l 1,6,-1
 164 1491 l 1,7,-1
 514 1491 l 1,4,-1
EndSplineSet
EndChar
StartChar: exclamdbl
Encoding: 8252 8252 317
Width: 1237
Flags: W
Fore
1116 1133 m 1,0,-1
 1032 461 l 1,1,-1
 766 461 l 1,2,-1
 682 1133 l 1,3,-1
 682 1466 l 1,4,-1
 1116 1466 l 1,5,-1
 1116 1133 l 1,0,-1
559 1133 m 1,6,-1
 475 461 l 1,7,-1
 209 461 l 1,8,-1
 125 1133 l 1,9,-1
 125 1466 l 1,10,-1
 559 1466 l 1,11,-1
 559 1133 l 1,6,-1
1102 0 m 1,12,-1
 696 0 l 1,13,-1
 696 358 l 1,14,-1
 1102 358 l 1,15,-1
 1102 0 l 1,12,-1
545 0 m 1,16,-1
 139 0 l 1,17,-1
 139 358 l 1,18,-1
 545 358 l 1,19,-1
 545 0 l 1,16,-1
EndSplineSet
EndChar
StartChar: nsuperior
Encoding: 8319 8319 318
Width: 893
Flags: W
Fore
831 745 m 1,0,-1
 557 745 l 1,1,-1
 557 1141 l 2,2,3
 557 1268 557 1268 461 1268 c 0,4,5
 346 1268 346 1268 346 1090 c 2,6,-1
 346 745 l 1,7,-1
 70 745 l 1,8,-1
 70 1466 l 1,9,-1
 326 1466 l 1,10,-1
 326 1348 l 1,11,-1
 334 1348 l 1,12,13
 423 1483 423 1483 590 1483 c 0,14,15
 709 1483 709 1483 770 1410.5 c 128,-1,16
 831 1338 831 1338 831 1204 c 2,17,-1
 831 745 l 1,0,-1
EndSplineSet
EndChar
StartChar: afii61248
Encoding: 8453 8453 320
Width: 2048
Flags: W
Fore
1554 1491 m 1,0,-1
 709 -74 l 1,1,-1
 500 -74 l 1,2,-1
 1343 1491 l 1,3,-1
 1554 1491 l 1,0,-1
877 963 m 1,4,5
 843 849 843 849 749.5 785 c 128,-1,6
 656 721 656 721 520 721 c 0,7,8
 98 721 98 721 98 1106 c 256,9,10
 98 1491 98 1491 516 1491 c 0,11,12
 817 1491 817 1491 877 1255 c 1,13,-1
 635 1212 l 1,14,15
 613 1298 613 1298 516 1298 c 0,16,17
 452 1298 452 1298 415.5 1246.5 c 128,-1,18
 379 1195 379 1195 379 1106 c 0,19,20
 379 918 379 918 516 918 c 0,21,22
 619 918 619 918 649 1012 c 1,23,-1
 877 963 l 1,4,5
1552 698 m 256,24,25
 1744 698 1744 698 1847 588.5 c 128,-1,26
 1950 479 1950 479 1950 313 c 0,27,28
 1950 148 1950 148 1847 38 c 128,-1,29
 1744 -72 1744 -72 1552 -72 c 256,30,31
 1360 -72 1360 -72 1257.5 37.5 c 128,-1,32
 1155 147 1155 147 1155 313 c 256,33,34
 1155 479 1155 479 1257.5 588.5 c 128,-1,35
 1360 698 1360 698 1552 698 c 256,24,25
1552 117 m 0,36,37
 1614 117 1614 117 1641.5 162 c 128,-1,38
 1669 207 1669 207 1669 313 c 0,39,40
 1669 510 1669 510 1552 510 c 0,41,42
 1436 510 1436 510 1436 313 c 0,43,44
 1436 207 1436 207 1463.5 162 c 128,-1,45
 1491 117 1491 117 1552 117 c 0,36,37
EndSplineSet
EndChar
StartChar: afii61289
Encoding: 8467 8467 321
Width: 1201
Flags: W
Fore
623 542 m 1,0,1
 567 250 567 250 567 170 c 0,2,3
 567 115 567 115 596 115 c 0,4,5
 634 115 634 115 679 211 c 0,6,7
 699 253 699 253 726 253 c 0,8,9
 764 253 764 253 764 208 c 0,10,11
 764 127 764 127 695.5 47.5 c 128,-1,12
 627 -32 627 -32 534 -32 c 0,13,14
 458 -32 458 -32 413 32.5 c 128,-1,15
 368 97 368 97 368 268 c 0,16,17
 368 302 368 302 371 359 c 1,18,19
 319 304 319 304 303 304 c 0,20,21
 290 304 290 304 276.5 319.5 c 128,-1,22
 263 335 263 335 263 361 c 256,23,24
 263 387 263 387 290 418 c 0,25,26
 358 494 358 494 387 530 c 1,27,28
 448 883 448 883 553.5 1133 c 128,-1,29
 659 1383 659 1383 818 1383 c 0,30,31
 898 1383 898 1383 941 1327.5 c 128,-1,32
 984 1272 984 1272 984 1190 c 0,33,34
 984 902 984 902 623 542 c 1,0,1
653 729 m 1,35,36
 743 829 743 829 800.5 953 c 128,-1,37
 858 1077 858 1077 858 1172 c 0,38,39
 858 1246 858 1246 823 1246 c 0,40,41
 783 1246 783 1246 741 1115 c 128,-1,42
 699 984 699 984 653 729 c 1,35,36
EndSplineSet
EndChar
StartChar: arrowleft
Encoding: 8592 8592 322
Width: 2048
Flags: W
Fore
492 876 m 1,0,-1
 568 876 l 1,1,2
 487 706 487 706 373 567 c 1,3,-1
 1968 567 l 1,4,-1
 1968 466 l 1,5,-1
 373 466 l 1,6,7
 475 364 475 364 571 157 c 1,8,-1
 493 157 l 1,9,10
 270 410 270 410 79 498 c 1,11,-1
 79 543 l 1,12,13
 256 614 256 614 492 876 c 1,0,-1
EndSplineSet
EndChar
StartChar: arrowup
Encoding: 8593 8593 323
Width: 1024
Flags: W
Fore
153 1050 m 1,0,1
 415 1286 415 1286 486 1463 c 1,2,-1
 532 1463 l 1,3,4
 619 1271 619 1271 872 1048 c 1,5,-1
 872 971 l 1,6,7
 665 1067 665 1067 563 1168 c 1,8,-1
 563 -429 l 1,9,-1
 462 -429 l 1,10,-1
 462 1168 l 1,11,12
 323 1054 323 1054 153 973 c 1,13,-1
 153 1050 l 1,0,1
EndSplineSet
EndChar
StartChar: arrowright
Encoding: 8594 8594 324
Width: 2048
Flags: W
Fore
1555 876 m 1,0,1
 1792 614 1792 614 1968 543 c 1,2,-1
 1968 498 l 1,3,4
 1777 410 1777 410 1554 157 c 1,5,-1
 1477 157 l 1,6,7
 1572 364 1572 364 1674 466 c 1,8,-1
 79 466 l 1,9,-1
 79 567 l 1,10,-1
 1674 567 l 1,11,12
 1560 706 1560 706 1479 876 c 1,13,-1
 1555 876 l 1,0,1
EndSplineSet
EndChar
StartChar: arrowdown
Encoding: 8595 8595 325
Width: 1024
Flags: W
Fore
153 -16 m 1,0,-1
 153 60 l 1,1,2
 323 -21 323 -21 462 -135 c 1,3,-1
 462 1463 l 1,4,-1
 563 1463 l 1,5,-1
 563 -135 l 1,6,7
 665 -33 665 -33 872 62 c 1,8,-1
 872 -15 l 1,9,10
 619 -238 619 -238 532 -429 c 1,11,-1
 486 -429 l 1,12,13
 415 -253 415 -253 153 -16 c 1,0,-1
EndSplineSet
EndChar
StartChar: arrowboth
Encoding: 8596 8596 326
Width: 2048
Flags: W
Fore
1968 540 m 1,0,-1
 1968 495 l 1,1,2
 1787 416 1787 416 1562 158 c 1,3,-1
 1482 158 l 1,4,5
 1551 330 1551 330 1676 469 c 1,6,-1
 371 469 l 1,7,8
 496 330 496 330 565 158 c 1,9,-1
 485 158 l 1,10,11
 261 416 261 416 79 495 c 1,12,-1
 79 540 l 1,13,14
 261 619 261 619 485 878 c 1,15,-1
 565 878 l 1,16,17
 496 706 496 706 371 567 c 1,18,-1
 1676 567 l 1,19,20
 1551 706 1551 706 1482 878 c 1,21,-1
 1562 878 l 1,22,23
 1787 619 1787 619 1968 540 c 1,0,-1
EndSplineSet
EndChar
StartChar: arrowupdn
Encoding: 8597 8597 327
Width: 1024
Flags: W
Fore
489 1463 m 1,0,-1
 534 1463 l 1,1,2
 613 1281 613 1281 871 1056 c 1,3,-1
 871 976 l 1,4,5
 700 1045 700 1045 560 1171 c 1,6,-1
 560 -135 l 1,7,8
 700 -9 700 -9 871 59 c 1,9,-1
 871 -20 l 1,10,11
 613 -245 613 -245 534 -427 c 1,12,-1
 489 -427 l 1,13,14
 410 -245 410 -245 152 -20 c 1,15,-1
 152 59 l 1,16,17
 323 -9 323 -9 463 -135 c 1,18,-1
 463 1171 l 1,19,20
 323 1045 323 1045 152 976 c 1,21,-1
 152 1056 l 1,22,23
 410 1281 410 1281 489 1463 c 1,0,-1
EndSplineSet
EndChar
StartChar: arrowupdnbse
Encoding: 8616 8616 328
Width: 1024
Flags: W
Fore
489 1463 m 1,0,-1
 534 1463 l 1,1,2
 613 1281 613 1281 871 1056 c 1,3,-1
 871 976 l 1,4,5
 700 1045 700 1045 560 1171 c 1,6,-1
 560 -135 l 1,7,8
 700 -9 700 -9 871 59 c 1,9,-1
 871 -20 l 1,10,11
 613 -245 613 -245 534 -427 c 1,12,-1
 489 -427 l 1,13,14
 410 -245 410 -245 152 -20 c 1,15,-1
 152 59 l 1,16,17
 323 -9 323 -9 463 -135 c 1,18,-1
 463 1171 l 1,19,20
 323 1045 323 1045 152 976 c 1,21,-1
 152 1056 l 1,22,23
 410 1281 410 1281 489 1463 c 1,0,-1
154 -522 m 1,24,-1
 871 -522 l 1,25,-1
 871 -620 l 1,26,-1
 154 -620 l 1,27,-1
 154 -522 l 1,24,-1
EndSplineSet
EndChar
StartChar: orthogonal
Encoding: 8735 8735 329
Width: 2005
Flags: W
Fore
362 1279 m 1,0,-1
 462 1279 l 1,1,-1
 462 100 l 1,2,-1
 1643 100 l 1,3,-1
 1643 0 l 1,4,-1
 362 0 l 1,5,-1
 362 1279 l 1,0,-1
EndSplineSet
EndChar
StartChar: intersection
Encoding: 8745 8745 330
Width: 1472
Flags: W
Fore
302 0 m 1,0,-1
 192 0 l 1,1,-1
 192 560 l 2,2,3
 193 678 193 678 194.5 787.5 c 128,-1,4
 196 897 196 897 214 979.5 c 128,-1,5
 232 1062 232 1062 273.5 1130.5 c 128,-1,6
 315 1199 315 1199 388 1259 c 128,-1,7
 461 1319 461 1319 551.5 1351.5 c 128,-1,8
 642 1384 642 1384 736 1384 c 0,9,10
 880 1384 880 1384 1004.5 1313.5 c 128,-1,11
 1129 1243 1129 1243 1190.5 1145.5 c 128,-1,12
 1252 1048 1252 1048 1266.5 939.5 c 128,-1,13
 1281 831 1281 831 1281 560 c 2,14,-1
 1281 0 l 1,15,-1
 1172 0 l 1,16,-1
 1172 566 l 2,17,18
 1172 798 1172 798 1160 899.5 c 128,-1,19
 1148 1001 1148 1001 1100 1082.5 c 128,-1,20
 1052 1164 1052 1164 950.5 1221 c 128,-1,21
 849 1278 849 1278 736 1278 c 0,22,23
 622 1278 622 1278 520.5 1220 c 128,-1,24
 419 1162 419 1162 372.5 1083 c 128,-1,25
 326 1004 326 1004 314 901.5 c 128,-1,26
 302 799 302 799 302 566 c 2,27,-1
 302 0 l 1,0,-1
EndSplineSet
EndChar
StartChar: equivalence
Encoding: 8801 8801 331
Width: 1229
Flags: W
Fore
1102 1000 m 1,0,-1
 1102 877 l 1,1,-1
 127 877 l 1,2,-1
 127 1000 l 1,3,-1
 1102 1000 l 1,0,-1
1102 759 m 1,4,-1
 1102 636 l 1,5,-1
 127 636 l 1,6,-1
 127 759 l 1,7,-1
 1102 759 l 1,4,-1
1102 517 m 1,8,-1
 1102 394 l 1,9,-1
 127 394 l 1,10,-1
 127 517 l 1,11,-1
 1102 517 l 1,8,-1
EndSplineSet
EndChar
StartChar: H22073
Encoding: 9633 9633 332
Width: 1237
Flags: W
Fore
146 944 m 1,0,-1
 1090 944 l 1,1,-1
 1090 0 l 1,2,-1
 146 0 l 1,3,-1
 146 944 l 1,0,-1
222 868 m 1,4,-1
 222 76 l 1,5,-1
 1014 76 l 1,6,-1
 1014 868 l 1,7,-1
 222 868 l 1,4,-1
EndSplineSet
EndChar
StartChar: H18543
Encoding: 9642 9642 333
Width: 726
Flags: W
Fore
594 909 m 1,0,-1
 594 445 l 1,1,-1
 131 445 l 1,2,-1
 131 908 l 1,3,-1
 594 909 l 1,0,-1
EndSplineSet
EndChar
StartChar: H18551
Encoding: 9643 9643 334
Width: 726
Flags: W
Fore
594 909 m 1,0,-1
 594 445 l 1,1,-1
 131 445 l 1,2,-1
 131 908 l 1,3,-1
 594 909 l 1,0,-1
518 833 m 1,4,-1
 207 832 l 1,5,-1
 207 521 l 1,6,-1
 518 521 l 1,7,-1
 518 833 l 1,4,-1
EndSplineSet
EndChar
StartChar: H18533
Encoding: 9679 9679 335
Width: 1237
Flags: W
Fore
619 1018 m 0,0,1
 800 1018 800 1018 929.5 889 c 128,-1,2
 1059 760 1059 760 1059 578 c 256,3,4
 1059 396 1059 396 930 266.5 c 128,-1,5
 801 137 801 137 619 137 c 256,6,7
 437 137 437 137 307.5 266.5 c 128,-1,8
 178 396 178 396 178 578 c 0,9,10
 178 767 178 767 309.5 892.5 c 128,-1,11
 441 1018 441 1018 619 1018 c 0,0,1
EndSplineSet
EndChar
StartChar: openbullet
Encoding: 9702 9702 336
Width: 726
Flags: W
Fore
363 928 m 0,0,1
 464 928 464 928 539 856 c 128,-1,2
 614 784 614 784 614 677 c 0,3,4
 614 573 614 573 540.5 499.5 c 128,-1,5
 467 426 467 426 363 426 c 256,6,7
 259 426 259 426 185.5 499.5 c 128,-1,8
 112 573 112 573 112 677 c 256,9,10
 112 781 112 781 186 854.5 c 128,-1,11
 260 928 260 928 363 928 c 0,0,1
363 852 m 256,12,13
 292 852 292 852 240 802 c 128,-1,14
 188 752 188 752 188 677 c 0,15,16
 188 604 188 604 239.5 553 c 128,-1,17
 291 502 291 502 363 502 c 256,18,19
 435 502 435 502 486.5 553 c 128,-1,20
 538 604 538 604 538 677 c 0,21,22
 538 751 538 751 486 801.5 c 128,-1,23
 434 852 434 852 363 852 c 256,12,13
EndSplineSet
EndChar
StartChar: commaaccent
Encoding: 61444 61444 337
Width: 682
Flags: W
Fore
206 -121 m 1,0,-1
 476 -121 l 1,1,-1
 476 -317 l 2,2,3
 476 -425 476 -425 431.5 -487.5 c 128,-1,4
 387 -550 387 -550 277 -598 c 1,5,-1
 206 -494 l 1,6,7
 327 -440 327 -440 328 -357 c 1,8,-1
 206 -357 l 1,9,-1
 206 -121 l 1,0,-1
EndSplineSet
EndChar
StartChar: Hbar
Encoding: 294 294 358
Width: 1706
Flags: W
Fore
1688 1102 m 1,0,-1
 1554 1102 l 1,1,-1
 1554 0 l 1,2,-1
 1102 0 l 1,3,-1
 1102 592 l 1,4,-1
 604 592 l 1,5,-1
 604 0 l 1,6,-1
 152 0 l 1,7,-1
 152 1102 l 1,8,-1
 18 1102 l 1,9,-1
 18 1323 l 1,10,-1
 152 1323 l 1,11,-1
 152 1466 l 1,12,-1
 604 1466 l 1,13,-1
 604 1323 l 1,14,-1
 1102 1323 l 1,15,-1
 1102 1466 l 1,16,-1
 1554 1466 l 1,17,-1
 1554 1323 l 1,18,-1
 1688 1323 l 1,19,-1
 1688 1102 l 1,0,-1
1102 952 m 1,20,-1
 1102 1102 l 1,21,-1
 604 1102 l 1,22,-1
 604 952 l 1,23,-1
 1102 952 l 1,20,-1
EndSplineSet
EndChar
StartChar: hbar
Encoding: 295 295 359
Width: 1366
Flags: W
Fore
1247 0 m 1,0,-1
 840 0 l 1,1,-1
 840 584 l 2,2,3
 840 768 840 768 696 768 c 0,4,5
 617 768 617 768 573.5 709.5 c 128,-1,6
 530 651 530 651 530 510 c 2,7,-1
 530 0 l 1,8,-1
 123 0 l 1,9,-1
 123 1186 l 1,10,-1
 20 1186 l 1,11,-1
 20 1372 l 1,12,-1
 123 1372 l 1,13,-1
 123 1466 l 1,14,-1
 530 1466 l 1,15,-1
 530 1372 l 1,16,-1
 791 1372 l 1,17,-1
 791 1186 l 1,18,-1
 530 1186 l 1,19,-1
 530 926 l 1,20,21
 674 1085 674 1085 891 1085 c 0,22,23
 1067 1085 1067 1085 1157 978.5 c 128,-1,24
 1247 872 1247 872 1247 676 c 2,25,-1
 1247 0 l 1,0,-1
EndSplineSet
EndChar
StartChar: Iogonek
Encoding: 302 302 366
Width: 797
Flags: W
Fore
698 -401 m 1,0,1
 585 -446 585 -446 487 -446 c 0,2,3
 369 -446 369 -446 301 -383 c 128,-1,4
 233 -320 233 -320 233 -213 c 0,5,6
 233 -126 233 -126 274 0 c 1,7,-1
 172 0 l 1,8,-1
 172 1466 l 1,9,-1
 625 1466 l 1,10,-1
 625 0 l 1,11,-1
 444 0 l 1,12,13
 432 -65 432 -65 432 -119 c 0,14,15
 432 -272 432 -272 571 -272 c 0,16,17
 617 -272 617 -272 698 -246 c 1,18,-1
 698 -401 l 1,0,1
EndSplineSet
EndChar
StartChar: iogonek
Encoding: 303 303 367
Width: 682
Flags: W
Fore
616 -401 m 1,0,1
 503 -446 503 -446 406 -446 c 0,2,3
 287 -446 287 -446 219.5 -383 c 128,-1,4
 152 -320 152 -320 152 -213 c 0,5,6
 152 -126 152 -126 193 0 c 1,7,-1
 137 0 l 1,8,-1
 137 1061 l 1,9,-1
 545 1061 l 1,10,-1
 545 0 l 1,11,-1
 362 0 l 1,12,13
 350 -65 350 -65 350 -119 c 0,14,15
 350 -272 350 -272 489 -272 c 0,16,17
 535 -272 535 -272 616 -246 c 1,18,-1
 616 -401 l 1,0,1
138 1466 m 1,19,-1
 545 1466 l 1,20,-1
 545 1189 l 1,21,-1
 138 1189 l 1,22,-1
 138 1466 l 1,19,-1
EndSplineSet
EndChar
StartChar: jcircumflex
Encoding: 309 309 369
Width: 682
Flags: W
Fore
707 1192 m 1,0,-1
 459 1192 l 1,1,-1
 338 1346 l 1,2,-1
 215 1192 l 1,3,-1
 -33 1192 l 1,4,-1
 197 1479 l 1,5,-1
 485 1479 l 1,6,-1
 707 1192 l 1,0,-1
139 1062 m 1,7,-1
 547 1062 l 1,8,-1
 547 32 l 2,9,10
 547 -165 547 -165 518.5 -247 c 128,-1,11
 490 -329 490 -329 413 -380 c 128,-1,12
 336 -431 336 -431 193 -431 c 0,13,14
 75 -431 75 -431 -100 -396 c 1,15,-1
 -39 -100 l 1,16,17
 10 -110 10 -110 33 -110 c 0,18,19
 85 -110 85 -110 112 -74.5 c 128,-1,20
 139 -39 139 -39 139 67 c 2,21,-1
 139 1062 l 1,7,-1
EndSplineSet
EndChar
StartChar: kgreenlandic
Encoding: 312 312 372
Width: 1366
Flags: W
Fore
1358 0 m 1,0,-1
 899 0 l 1,1,-1
 684 426 l 1,2,-1
 530 276 l 1,3,-1
 530 0 l 1,4,-1
 123 0 l 1,5,-1
 123 1061 l 1,6,-1
 530 1061 l 1,7,-1
 530 709 l 1,8,-1
 836 1061 l 1,9,-1
 1335 1061 l 1,10,-1
 956 690 l 1,11,-1
 1358 0 l 1,0,-1
EndSplineSet
EndChar
StartChar: Eng
Encoding: 330 330 377
Width: 1667
Flags: W
Fore
582 1294 m 1,0,1
 645 1375 645 1375 776.5 1433 c 128,-1,2
 908 1491 908 1491 1049 1491 c 0,3,4
 1575 1491 1575 1491 1575 690 c 0,5,6
 1575 121 1575 121 1435.5 -154.5 c 128,-1,7
 1296 -430 1296 -430 1004 -430 c 0,8,9
 901 -430 901 -430 762 -395 c 1,10,-1
 823 -59 l 1,11,12
 877 -70 877 -70 911 -70 c 0,13,14
 1024 -70 1024 -70 1073 114 c 128,-1,15
 1122 298 1122 298 1122 674 c 0,16,17
 1122 1112 1122 1112 858 1112 c 0,18,19
 754 1112 754 1112 679 1054 c 128,-1,20
 604 996 604 996 604 922 c 2,21,-1
 604 0 l 1,22,-1
 152 0 l 1,23,-1
 152 1466 l 1,24,-1
 578 1466 l 1,25,-1
 578 1294 l 1,26,-1
 582 1294 l 1,0,1
EndSplineSet
EndChar
StartChar: eng
Encoding: 331 331 378
Width: 1395
Flags: W
Fore
555 889 m 1,0,1
 687 1085 687 1085 915 1085 c 0,2,3
 1121 1085 1121 1085 1204.5 924 c 128,-1,4
 1288 763 1288 763 1288 406 c 0,5,6
 1288 -23 1288 -23 1193 -226.5 c 128,-1,7
 1098 -430 1098 -430 891 -430 c 0,8,9
 762 -430 762 -430 629 -395 c 1,10,-1
 690 -100 l 1,11,12
 729 -111 729 -111 762 -111 c 0,13,14
 829 -111 829 -111 855 10 c 128,-1,15
 881 131 881 131 881 387 c 0,16,17
 881 627 881 627 842.5 707.5 c 128,-1,18
 804 788 804 788 725 788 c 0,19,20
 653 788 653 788 615.5 721.5 c 128,-1,21
 578 655 578 655 578 539 c 2,22,-1
 578 0 l 1,23,-1
 152 0 l 1,24,-1
 152 1061 l 1,25,-1
 551 1061 l 1,26,-1
 551 889 l 1,27,-1
 555 889 l 1,0,1
EndSplineSet
EndChar
StartChar: Tbar
Encoding: 358 358 387
Width: 1479
Flags: W
Fore
1427 1106 m 1,0,-1
 967 1106 l 1,1,-1
 967 823 l 1,2,-1
 1159 823 l 1,3,-1
 1159 561 l 1,4,-1
 967 561 l 1,5,-1
 967 0 l 1,6,-1
 514 0 l 1,7,-1
 514 561 l 1,8,-1
 332 561 l 1,9,-1
 332 823 l 1,10,-1
 514 823 l 1,11,-1
 514 1106 l 1,12,-1
 53 1106 l 1,13,-1
 53 1466 l 1,14,-1
 1427 1466 l 1,15,-1
 1427 1106 l 1,0,-1
EndSplineSet
EndChar
StartChar: tbar
Encoding: 359 359 388
Width: 909
Flags: W
Fore
850 8 m 1,0,1
 703 -25 703 -25 567 -25 c 0,2,3
 414 -25 414 -25 336 19 c 128,-1,4
 258 63 258 63 230.5 147 c 128,-1,5
 203 231 203 231 203 391 c 2,6,-1
 203 422 l 1,7,-1
 53 422 l 1,8,-1
 53 643 l 1,9,-1
 203 643 l 1,10,-1
 203 764 l 1,11,-1
 53 764 l 1,12,-1
 53 1061 l 1,13,-1
 203 1061 l 1,14,-1
 203 1257 l 1,15,-1
 610 1466 l 1,16,-1
 610 1061 l 1,17,-1
 834 1061 l 1,18,-1
 834 764 l 1,19,-1
 610 764 l 1,20,-1
 610 643 l 1,21,-1
 786 643 l 1,22,-1
 786 422 l 1,23,-1
 610 422 l 1,24,-1
 610 389 l 2,25,26
 610 307 610 307 633 285.5 c 128,-1,27
 656 264 656 264 694 264 c 0,28,29
 745 264 745 264 819 291 c 1,30,-1
 850 8 l 1,0,1
EndSplineSet
EndChar
StartChar: Uogonek
Encoding: 370 370 395
Width: 1706
Flags: W
Fore
1161 -401 m 1,0,1
 1048 -446 1048 -446 950 -446 c 0,2,3
 832 -446 832 -446 764 -383 c 128,-1,4
 696 -320 696 -320 696 -213 c 0,5,6
 696 -135 696 -135 731 -18 c 1,7,8
 441 -3 441 -3 296.5 166.5 c 128,-1,9
 152 336 152 336 152 592 c 2,10,-1
 152 1466 l 1,11,-1
 604 1466 l 1,12,-1
 604 571 l 2,13,14
 604 452 604 452 667.5 383.5 c 128,-1,15
 731 315 731 315 854 315 c 256,16,17
 977 315 977 315 1039.5 383.5 c 128,-1,18
 1102 452 1102 452 1102 571 c 2,19,-1
 1102 1466 l 1,20,-1
 1554 1466 l 1,21,-1
 1554 592 l 2,22,23
 1554 319 1554 319 1393 148 c 128,-1,24
 1232 -23 1232 -23 903 -25 c 1,25,26
 895 -80 895 -80 895 -119 c 0,27,28
 895 -272 895 -272 1034 -272 c 0,29,30
 1080 -272 1080 -272 1161 -246 c 1,31,-1
 1161 -401 l 1,0,1
EndSplineSet
EndChar
StartChar: uogonek
Encoding: 371 371 396
Width: 1366
Flags: W
Fore
1286 -401 m 1,0,1
 1172 -446 1172 -446 1075 -446 c 0,2,3
 957 -446 957 -446 889 -383 c 128,-1,4
 821 -320 821 -320 821 -213 c 0,5,6
 821 -151 821 -151 842 -73 c 2,7,-1
 862 0 l 1,8,-1
 862 172 l 1,9,-1
 858 172 l 1,10,11
 721 -25 721 -25 479 -25 c 0,12,13
 301 -25 301 -25 210 81 c 128,-1,14
 119 187 119 187 119 385 c 2,15,-1
 119 1061 l 1,16,-1
 526 1061 l 1,17,-1
 526 477 l 2,18,19
 526 293 526 293 670 293 c 0,20,21
 749 293 749 293 792.5 351.5 c 128,-1,22
 836 410 836 410 836 551 c 2,23,-1
 836 1061 l 1,24,-1
 1243 1061 l 1,25,-1
 1243 0 l 1,26,-1
 1032 0 l 1,27,28
 1020 -65 1020 -65 1020 -119 c 0,29,30
 1020 -272 1020 -272 1159 -272 c 0,31,32
 1205 -272 1205 -272 1286 -246 c 1,33,-1
 1286 -401 l 1,0,1
EndSplineSet
EndChar
StartChar: longs
Encoding: 383 383 401
Width: 799
Flags: W
Fore
784 1473 m 1,0,-1
 725 1223 l 1,1,2
 679 1235 679 1235 641 1235 c 0,3,4
 510 1235 510 1235 510 1026 c 2,5,-1
 510 0 l 1,6,-1
 119 0 l 1,7,-1
 119 1016 l 2,8,9
 119 1220 119 1220 238 1355.5 c 128,-1,10
 357 1491 357 1491 662 1491 c 0,11,12
 723 1491 723 1491 784 1473 c 1,0,-1
EndSplineSet
EndChar
StartChar: tonos
Encoding: 900 900 408
Width: 389
Flags: W
Fore
381 1466 m 1,0,-1
 201 1167 l 1,1,-1
 6 1167 l 1,2,-1
 72 1466 l 1,3,-1
 381 1466 l 1,0,-1
EndSplineSet
EndChar
StartChar: dieresistonos
Encoding: 901 901 409
Width: 682
Flags: W
Fore
557 1819 m 1,0,-1
 377 1520 l 1,1,-1
 182 1520 l 1,2,-1
 248 1819 l 1,3,-1
 557 1819 l 1,0,-1
684 1196 m 1,4,-1
 422 1196 l 1,5,-1
 422 1446 l 1,6,-1
 684 1446 l 1,7,-1
 684 1196 l 1,4,-1
260 1196 m 1,8,-1
 -2 1196 l 1,9,-1
 -2 1446 l 1,10,-1
 260 1446 l 1,11,-1
 260 1196 l 1,8,-1
EndSplineSet
EndChar
StartChar: anoteleia
Encoding: 903 903 411
Width: 1024
Flags: W
Fore
184 932 m 1,0,-1
 498 932 l 1,1,-1
 498 632 l 1,2,-1
 184 632 l 1,3,-1
 184 932 l 1,0,-1
EndSplineSet
EndChar
StartChar: Gamma
Encoding: 915 915 421
Width: 1366
Flags: W
Fore
1311 1106 m 1,0,-1
 602 1106 l 1,1,-1
 602 0 l 1,2,-1
 150 0 l 1,3,-1
 150 1466 l 1,4,-1
 1311 1466 l 1,5,-1
 1311 1106 l 1,0,-1
EndSplineSet
EndChar
StartChar: Delta
Encoding: 916 916 422
Width: 1593
Flags: W
Fore
1595 0 m 1,0,-1
 -2 0 l 1,1,-1
 549 1466 l 1,2,-1
 1044 1466 l 1,3,-1
 1595 0 l 1,0,-1
1030 315 m 1,4,-1
 795 1085 l 1,5,-1
 553 315 l 1,6,-1
 1030 315 l 1,4,-1
EndSplineSet
EndChar
StartChar: Theta
Encoding: 920 920 426
Width: 1706
Flags: W
Fore
850 1491 m 0,0,1
 1217 1491 1217 1491 1414.5 1295 c 128,-1,2
 1612 1099 1612 1099 1612 743 c 0,3,4
 1612 372 1612 372 1416.5 173.5 c 128,-1,5
 1221 -25 1221 -25 868 -25 c 0,6,7
 472 -25 472 -25 283 184 c 128,-1,8
 94 393 94 393 94 731 c 0,9,10
 94 1086 94 1086 290 1288.5 c 128,-1,11
 486 1491 486 1491 850 1491 c 0,0,1
852 315 m 0,12,13
 1004 315 1004 315 1081.5 412.5 c 128,-1,14
 1159 510 1159 510 1159 750 c 0,15,16
 1159 1151 1159 1151 850 1151 c 0,17,18
 547 1151 547 1151 547 729 c 0,19,20
 547 315 547 315 852 315 c 0,12,13
1057 604 m 1,21,-1
 657 604 l 1,22,-1
 657 881 l 1,23,-1
 1057 881 l 1,24,-1
 1057 604 l 1,21,-1
EndSplineSet
EndChar
StartChar: Lambda
Encoding: 923 923 429
Width: 1593
Flags: W
Fore
1591 0 m 1,0,-1
 1118 0 l 1,1,-1
 786 1057 l 1,2,-1
 463 0 l 1,3,-1
 2 0 l 1,4,-1
 547 1466 l 1,5,-1
 1038 1466 l 1,6,-1
 1591 0 l 1,0,-1
EndSplineSet
EndChar
StartChar: Xi
Encoding: 926 926 432
Width: 1479
Flags: W
Fore
1335 1151 m 1,0,-1
 141 1151 l 1,1,-1
 141 1466 l 1,2,-1
 1335 1466 l 1,3,-1
 1335 1151 l 1,0,-1
1174 621 m 1,4,-1
 309 621 l 1,5,-1
 309 918 l 1,6,-1
 1174 918 l 1,7,-1
 1174 621 l 1,4,-1
1358 0 m 1,8,-1
 121 0 l 1,9,-1
 121 332 l 1,10,-1
 1358 332 l 1,11,-1
 1358 0 l 1,8,-1
EndSplineSet
EndChar
StartChar: Pi
Encoding: 928 928 434
Width: 1706
Flags: W
Fore
1554 0 m 1,0,-1
 1102 0 l 1,1,-1
 1102 1106 l 1,2,-1
 604 1106 l 1,3,-1
 604 0 l 1,4,-1
 152 0 l 1,5,-1
 152 1466 l 1,6,-1
 1554 1466 l 1,7,-1
 1554 0 l 1,0,-1
EndSplineSet
EndChar
StartChar: Sigma
Encoding: 931 931 436
Width: 1479
Flags: W
Fore
1389 0 m 1,0,-1
 152 0 l 1,1,-1
 152 317 l 1,2,-1
 586 758 l 1,3,-1
 152 1163 l 1,4,-1
 152 1466 l 1,5,-1
 1366 1466 l 1,6,-1
 1366 1151 l 1,7,-1
 641 1151 l 1,8,-1
 1071 758 l 1,9,-1
 641 332 l 1,10,-1
 1389 332 l 1,11,-1
 1389 0 l 1,0,-1
EndSplineSet
EndChar
StartChar: Phi
Encoding: 934 934 439
Width: 1892
Flags: W
Fore
1153 1354 m 1,0,1
 1821 1284 1821 1284 1821 754 c 0,2,3
 1821 213 1821 213 1153 152 c 1,4,-1
 1153 -20 l 1,5,-1
 741 -20 l 1,6,-1
 741 156 l 1,7,8
 74 213 74 213 74 754 c 0,9,10
 74 1285 74 1285 741 1354 c 1,11,-1
 741 1487 l 1,12,-1
 1153 1487 l 1,13,-1
 1153 1354 l 1,0,1
1153 459 m 1,14,15
 1260 490 1260 490 1319 569.5 c 128,-1,16
 1378 649 1378 649 1378 760 c 0,17,18
 1378 866 1378 866 1317.5 950.5 c 128,-1,19
 1257 1035 1257 1035 1153 1069 c 1,20,-1
 1153 459 l 1,14,15
741 455 m 1,21,-1
 741 1061 l 1,22,23
 640 1032 640 1032 578 946.5 c 128,-1,24
 516 861 516 861 516 752 c 0,25,26
 516 650 516 650 577.5 569 c 128,-1,27
 639 488 639 488 741 455 c 1,21,-1
EndSplineSet
EndChar
StartChar: Psi
Encoding: 936 936 441
Width: 1937
Flags: W
Fore
1853 1001 m 2,0,1
 1853 727 1853 727 1690.5 556 c 128,-1,2
 1528 385 1528 385 1194 385 c 1,3,-1
 1194 0 l 1,4,-1
 741 0 l 1,5,-1
 741 381 l 1,6,7
 407 381 407 381 244.5 552 c 128,-1,8
 82 723 82 723 82 997 c 2,9,-1
 82 1462 l 1,10,-1
 535 1462 l 1,11,-1
 535 977 l 2,12,13
 535 898 535 898 545.5 847.5 c 128,-1,14
 556 797 556 797 601 759 c 128,-1,15
 646 721 646 721 741 721 c 1,16,-1
 741 1466 l 1,17,-1
 1194 1466 l 1,18,-1
 1194 725 l 1,19,20
 1289 725 1289 725 1334.5 763 c 128,-1,21
 1380 801 1380 801 1390.5 851.5 c 128,-1,22
 1401 902 1401 902 1401 981 c 2,23,-1
 1401 1466 l 1,24,-1
 1853 1466 l 1,25,-1
 1853 1001 l 2,0,1
EndSplineSet
EndChar
StartChar: Omega
Encoding: 937 937 442
Width: 1706
Flags: W
Fore
324 319 m 1,0,1
 239 382 239 382 166.5 528.5 c 128,-1,2
 94 675 94 675 94 821 c 0,3,4
 94 1130 94 1130 290.5 1310.5 c 128,-1,5
 487 1491 487 1491 850 1491 c 0,6,7
 1225 1491 1225 1491 1418.5 1318 c 128,-1,8
 1612 1145 1612 1145 1612 821 c 0,9,10
 1612 675 1612 675 1539.5 528.5 c 128,-1,11
 1467 382 1467 382 1382 319 c 1,12,-1
 1599 319 l 1,13,-1
 1599 0 l 1,14,-1
 938 0 l 1,15,-1
 938 319 l 1,16,17
 1159 474 1159 474 1159 791 c 0,18,19
 1159 1151 1159 1151 850 1151 c 0,20,21
 701 1151 701 1151 624 1055 c 128,-1,22
 547 959 547 959 547 791 c 0,23,24
 547 494 547 494 768 319 c 1,25,-1
 768 0 l 1,26,-1
 106 0 l 1,27,-1
 106 319 l 1,28,-1
 324 319 l 1,0,1
EndSplineSet
EndChar
StartChar: alpha
Encoding: 945 945 450
Width: 1389
Flags: W
Fore
1352 1063 m 1,0,1
 1280 937 1280 937 1247 787.5 c 128,-1,2
 1214 638 1214 638 1214 518 c 0,3,4
 1214 431 1214 431 1244.5 281 c 128,-1,5
 1275 131 1275 131 1337 0 c 1,6,-1
 965 0 l 1,7,8
 939 52 939 52 918 119 c 1,9,10
 819 -25 819 -25 600 -25 c 0,11,12
 360 -25 360 -25 219 150.5 c 128,-1,13
 78 326 78 326 78 549 c 0,14,15
 78 784 78 784 223.5 934.5 c 128,-1,16
 369 1085 369 1085 604 1085 c 0,17,18
 797 1085 797 1085 928 948 c 1,19,20
 939 1001 939 1001 971 1063 c 1,21,-1
 1352 1063 l 1,0,1
653 240 m 0,22,23
 733 240 733 240 771 308.5 c 128,-1,24
 809 377 809 377 809 528 c 0,25,26
 809 821 809 821 649 821 c 0,27,28
 567 821 567 821 528 749.5 c 128,-1,29
 489 678 489 678 489 528 c 0,30,31
 489 240 489 240 653 240 c 0,22,23
EndSplineSet
EndChar
StartChar: beta
Encoding: 946 946 451
Width: 1319
Flags: W
Fore
942 838 m 1,0,1
 1072 808 1072 808 1156.5 689.5 c 128,-1,2
 1241 571 1241 571 1241 420 c 0,3,4
 1241 206 1241 206 1128.5 90.5 c 128,-1,5
 1016 -25 1016 -25 819 -25 c 0,6,7
 616 -25 616 -25 510 98 c 1,8,-1
 510 -406 l 1,9,-1
 119 -406 l 1,10,-1
 119 1016 l 2,11,12
 119 1248 119 1248 256.5 1369.5 c 128,-1,13
 394 1491 394 1491 637 1491 c 0,14,15
 870 1491 870 1491 1002.5 1393.5 c 128,-1,16
 1135 1296 1135 1296 1135 1116 c 0,17,18
 1135 1023 1135 1023 1082 950 c 128,-1,19
 1029 877 1029 877 942 838 c 1,0,1
592 891 m 1,20,21
 668 904 668 904 718 956.5 c 128,-1,22
 768 1009 768 1009 768 1085 c 0,23,24
 768 1235 768 1235 641 1235 c 0,25,26
 577 1235 577 1235 543.5 1182.5 c 128,-1,27
 510 1130 510 1130 510 1036 c 2,28,-1
 510 397 l 1,29,30
 578 242 578 242 711 242 c 0,31,32
 786 242 786 242 829 287.5 c 128,-1,33
 872 333 872 333 872 416 c 0,34,35
 872 518 872 518 806 590.5 c 128,-1,36
 740 663 740 663 592 676 c 1,37,-1
 592 891 l 1,20,21
EndSplineSet
EndChar
StartChar: gamma
Encoding: 947 947 452
Width: 1251
Flags: W
Fore
1253 1061 m 1,0,-1
 825 53 l 1,1,-1
 825 -406 l 1,2,-1
 418 -406 l 1,3,-1
 418 53 l 1,4,-1
 -2 1061 l 1,5,-1
 422 1061 l 1,6,-1
 625 389 l 1,7,-1
 842 1061 l 1,8,-1
 1253 1061 l 1,0,-1
EndSplineSet
EndChar
StartChar: delta
Encoding: 948 948 453
Width: 1366
Flags: W
Fore
655 1182 m 1,0,-1
 958 1016 l 2,1,2
 1121 928 1121 928 1206.5 800 c 128,-1,3
 1292 672 1292 672 1292 518 c 0,4,5
 1292 289 1292 289 1136.5 132 c 128,-1,6
 981 -25 981 -25 680 -25 c 0,7,8
 390 -25 390 -25 232 130 c 128,-1,9
 74 285 74 285 74 512 c 0,10,11
 74 688 74 688 168 823.5 c 128,-1,12
 262 959 262 959 442 1018 c 1,13,-1
 168 1180 l 1,14,-1
 168 1464 l 1,15,-1
 1149 1464 l 1,16,-1
 1149 1182 l 1,17,-1
 655 1182 l 1,0,-1
682 254 m 256,18,19
 780 254 780 254 832.5 321 c 128,-1,20
 885 388 885 388 885 516 c 0,21,22
 885 774 885 774 686 774 c 0,23,24
 585 774 585 774 533 702.5 c 128,-1,25
 481 631 481 631 481 512 c 0,26,27
 481 388 481 388 532.5 321 c 128,-1,28
 584 254 584 254 682 254 c 256,18,19
680 1086 m 0,29,-1
EndSplineSet
EndChar
StartChar: epsilon
Encoding: 949 949 454
Width: 1122
Flags: W
Fore
1114 104 m 1,0,1
 950 -25 950 -25 662 -25 c 0,2,3
 385 -25 385 -25 229.5 66.5 c 128,-1,4
 74 158 74 158 74 311 c 0,5,6
 74 469 74 469 262 551 c 1,7,8
 115 622 115 622 115 784 c 0,9,10
 115 925 115 925 260 1005 c 128,-1,11
 405 1085 405 1085 666 1085 c 0,12,13
 918 1085 918 1085 1071 1008 c 1,14,-1
 918 786 l 1,15,16
 807 844 807 844 676 844 c 0,17,18
 518 844 518 844 518 764 c 0,19,20
 518 712 518 712 571 687 c 128,-1,21
 624 662 624 662 764 662 c 1,22,-1
 764 434 l 1,23,24
 617 434 617 434 551 405 c 128,-1,25
 485 376 485 376 485 311 c 0,26,27
 485 217 485 217 678 217 c 0,28,29
 823 217 823 217 926 299 c 1,30,-1
 1114 104 l 1,0,1
EndSplineSet
EndChar
StartChar: zeta
Encoding: 950 950 455
Width: 942
Flags: W
Fore
924 1229 m 1,0,1
 686 970 686 970 579.5 808.5 c 128,-1,2
 473 647 473 647 473 500 c 0,3,4
 473 440 473 440 503.5 389.5 c 128,-1,5
 534 339 534 339 635 292 c 128,-1,6
 736 245 736 245 783.5 212 c 128,-1,7
 831 179 831 179 864 116.5 c 128,-1,8
 897 54 897 54 897 -47 c 0,9,10
 897 -213 897 -213 778.5 -321.5 c 128,-1,11
 660 -430 660 -430 471 -430 c 2,12,-1
 358 -430 l 1,13,-1
 428 -166 l 1,14,15
 598 -166 598 -166 598 -90 c 0,16,17
 598 -58 598 -58 573 -33 c 128,-1,18
 548 -8 548 -8 439.5 25 c 128,-1,19
 331 58 331 58 258.5 98 c 128,-1,20
 186 138 186 138 132 230 c 128,-1,21
 78 322 78 322 78 481 c 0,22,23
 78 641 78 641 187 809 c 128,-1,24
 296 977 296 977 535 1184 c 1,25,-1
 123 1184 l 1,26,-1
 123 1466 l 1,27,-1
 924 1466 l 1,28,-1
 924 1229 l 1,0,1
EndSplineSet
EndChar
StartChar: eta
Encoding: 951 951 456
Width: 1366
Flags: W
Fore
1247 -406 m 1,0,-1
 840 -406 l 1,1,-1
 840 584 l 2,2,3
 840 768 840 768 696 768 c 0,4,5
 617 768 617 768 573.5 709.5 c 128,-1,6
 530 651 530 651 530 510 c 2,7,-1
 530 0 l 1,8,-1
 123 0 l 1,9,-1
 123 1061 l 1,10,-1
 504 1061 l 1,11,-1
 504 889 l 1,12,-1
 508 889 l 1,13,14
 645 1085 645 1085 887 1085 c 0,15,16
 1065 1085 1065 1085 1156 979.5 c 128,-1,17
 1247 874 1247 874 1247 676 c 2,18,-1
 1247 -406 l 1,0,-1
EndSplineSet
EndChar
StartChar: theta
Encoding: 952 952 457
Width: 1366
Flags: W
Fore
692 1491 m 0,0,1
 964 1491 964 1491 1123 1298 c 128,-1,2
 1282 1105 1282 1105 1282 743 c 0,3,4
 1282 369 1282 369 1129.5 172 c 128,-1,5
 977 -25 977 -25 682 -25 c 0,6,7
 394 -25 394 -25 239 173.5 c 128,-1,8
 84 372 84 372 84 739 c 0,9,10
 84 1491 84 1491 692 1491 c 0,0,1
870 891 m 1,11,12
 860 1057 860 1057 816.5 1134.5 c 128,-1,13
 773 1212 773 1212 680 1212 c 0,14,15
 589 1212 589 1212 546 1136 c 128,-1,16
 503 1060 503 1060 496 891 c 1,17,-1
 870 891 l 1,11,12
872 594 m 1,18,-1
 496 594 l 1,19,20
 504 417 504 417 548.5 335.5 c 128,-1,21
 593 254 593 254 682 254 c 0,22,23
 859 254 859 254 872 594 c 1,18,-1
EndSplineSet
EndChar
StartChar: kappa
Encoding: 954 954 459
Width: 1366
Flags: W
Fore
1358 0 m 1,0,-1
 899 0 l 1,1,-1
 684 426 l 1,2,-1
 530 276 l 1,3,-1
 530 0 l 1,4,-1
 123 0 l 1,5,-1
 123 1061 l 1,6,-1
 530 1061 l 1,7,-1
 530 709 l 1,8,-1
 836 1061 l 1,9,-1
 1335 1061 l 1,10,-1
 956 690 l 1,11,-1
 1358 0 l 1,0,-1
EndSplineSet
EndChar
StartChar: lambda
Encoding: 955 955 460
Width: 1251
Flags: W
Fore
1249 0 m 1,0,-1
 850 0 l 1,1,-1
 629 662 l 1,2,-1
 426 0 l 1,3,-1
 -4 0 l 1,4,-1
 469 1083 l 1,5,-1
 305 1466 l 1,6,-1
 698 1466 l 1,7,-1
 1249 0 l 1,0,-1
EndSplineSet
EndChar
StartChar: mu
Encoding: 956 956 461
Width: 1366
Flags: W
Fore
1243 0 m 1,0,-1
 860 0 l 1,1,-1
 860 84 l 1,2,3
 795 -25 795 -25 696 -25 c 0,4,5
 575 -25 575 -25 526 76 c 1,6,-1
 526 -401 l 1,7,-1
 119 -401 l 1,8,-1
 119 1061 l 1,9,-1
 526 1061 l 1,10,-1
 526 528 l 2,11,12
 526 456 526 456 534.5 411 c 128,-1,13
 543 366 543 366 577.5 330.5 c 128,-1,14
 612 295 612 295 684 295 c 0,15,16
 759 295 759 295 797.5 342 c 128,-1,17
 836 389 836 389 836 539 c 2,18,-1
 836 1061 l 1,19,-1
 1243 1061 l 1,20,-1
 1243 0 l 1,0,-1
EndSplineSet
EndChar
StartChar: xi
Encoding: 958 958 463
Width: 942
Flags: W
Fore
829 745 m 1,0,1
 665 735 665 735 569 658 c 128,-1,2
 473 581 473 581 473 451 c 0,3,4
 473 400 473 400 502 358 c 128,-1,5
 531 316 531 316 629.5 273.5 c 128,-1,6
 728 231 728 231 777.5 199 c 128,-1,7
 827 167 827 167 862 104.5 c 128,-1,8
 897 42 897 42 897 -59 c 0,9,10
 897 -223 897 -223 779.5 -326.5 c 128,-1,11
 662 -430 662 -430 471 -430 c 2,12,-1
 358 -430 l 1,13,-1
 428 -166 l 1,14,15
 505 -166 505 -166 548.5 -145 c 128,-1,16
 592 -124 592 -124 592 -90 c 0,17,18
 592 -60 592 -60 567 -37 c 128,-1,19
 542 -14 542 -14 435 15.5 c 128,-1,20
 328 45 328 45 256 81 c 128,-1,21
 184 117 184 117 131 200 c 128,-1,22
 78 283 78 283 78 428 c 0,23,24
 78 587 78 587 172.5 695 c 128,-1,25
 267 803 267 803 430 838 c 1,26,27
 290 869 290 869 215.5 950 c 128,-1,28
 141 1031 141 1031 141 1149 c 0,29,30
 141 1305 141 1305 276 1394 c 128,-1,31
 411 1483 411 1483 666 1483 c 2,32,-1
 827 1483 l 1,33,-1
 827 1212 l 1,34,35
 748 1217 748 1217 694 1217 c 0,36,37
 492 1217 492 1217 492 1106 c 0,38,39
 492 1054 492 1054 554.5 1022.5 c 128,-1,40
 617 991 617 991 721 991 c 2,41,-1
 829 991 l 1,42,-1
 829 745 l 1,0,1
EndSplineSet
EndChar
StartChar: pi
Encoding: 960 960 465
Width: 1448
Flags: W
Fore
1430 764 m 1,0,-1
 1296 764 l 1,1,-1
 1296 0 l 1,2,-1
 889 0 l 1,3,-1
 889 764 l 1,4,-1
 580 764 l 1,5,-1
 580 0 l 1,6,-1
 172 0 l 1,7,-1
 172 764 l 1,8,-1
 20 764 l 1,9,-1
 20 1061 l 1,10,-1
 1430 1061 l 1,11,-1
 1430 764 l 1,0,-1
EndSplineSet
EndChar
StartChar: rho
Encoding: 961 961 466
Width: 1366
Flags: W
Fore
125 -406 m 1,0,-1
 125 512 l 2,1,2
 125 774 125 774 281.5 929.5 c 128,-1,3
 438 1085 438 1085 707 1085 c 0,4,5
 979 1085 979 1085 1134.5 928 c 128,-1,6
 1290 771 1290 771 1290 514 c 0,7,8
 1290 268 1290 268 1169 121.5 c 128,-1,9
 1048 -25 1048 -25 842 -25 c 0,10,11
 638 -25 638 -25 532 92 c 1,12,-1
 532 -406 l 1,13,-1
 125 -406 l 1,0,-1
717 276 m 0,14,15
 797 276 797 276 840 343 c 128,-1,16
 883 410 883 410 883 522 c 0,17,18
 883 784 883 784 711 784 c 0,19,20
 625 784 625 784 576.5 718.5 c 128,-1,21
 528 653 528 653 528 526 c 0,22,23
 528 419 528 419 576 347.5 c 128,-1,24
 624 276 624 276 717 276 c 0,14,15
EndSplineSet
EndChar
StartChar: sigma1
Encoding: 962 962 467
Width: 1081
Flags: W
Fore
1069 1044 m 1,0,-1
 983 750 l 1,1,2
 840 784 840 784 760 784 c 0,3,4
 641 784 641 784 557 704.5 c 128,-1,5
 473 625 473 625 473 508 c 0,6,7
 473 459 473 459 516 411 c 128,-1,8
 559 363 559 363 750.5 269 c 128,-1,9
 942 175 942 175 1000.5 102 c 128,-1,10
 1059 29 1059 29 1059 -51 c 0,11,12
 1059 -231 1059 -231 923 -330.5 c 128,-1,13
 787 -430 787 -430 549 -430 c 0,14,15
 467 -430 467 -430 334 -422 c 1,16,-1
 385 -156 l 1,17,18
 481 -166 481 -166 535 -166 c 0,19,20
 698 -166 698 -166 698 -98 c 0,21,22
 698 -64 698 -64 663.5 -32 c 128,-1,23
 629 0 629 0 494 53.5 c 128,-1,24
 359 107 359 107 278 152 c 128,-1,25
 197 197 197 197 137.5 276 c 128,-1,26
 78 355 78 355 78 473 c 0,27,28
 78 741 78 741 270 913 c 128,-1,29
 462 1085 462 1085 768 1085 c 0,30,31
 938 1085 938 1085 1069 1044 c 1,0,-1
EndSplineSet
EndChar
StartChar: sigma
Encoding: 963 963 468
Width: 1532
Flags: W
Fore
1487 764 m 1,0,-1
 1247 764 l 1,1,2
 1292 656 1292 656 1292 535 c 0,3,4
 1292 302 1292 302 1136.5 138.5 c 128,-1,5
 981 -25 981 -25 680 -25 c 0,6,7
 391 -25 391 -25 232.5 136.5 c 128,-1,8
 74 298 74 298 74 528 c 0,9,10
 74 766 74 766 233.5 925.5 c 128,-1,11
 393 1085 393 1085 680 1085 c 0,12,13
 748 1085 748 1085 826 1073 c 2,14,-1
 891 1061 l 1,15,-1
 1487 1061 l 1,16,-1
 1487 764 l 1,0,-1
682 254 m 256,17,18
 780 254 780 254 832.5 326 c 128,-1,19
 885 398 885 398 885 532 c 0,20,21
 885 665 885 665 831 736 c 128,-1,22
 777 807 777 807 686 807 c 0,23,24
 585 807 585 807 533 729.5 c 128,-1,25
 481 652 481 652 481 528 c 0,26,27
 481 399 481 399 532.5 326.5 c 128,-1,28
 584 254 584 254 682 254 c 256,17,18
EndSplineSet
EndChar
StartChar: tau
Encoding: 964 964 469
Width: 1040
Flags: W
Fore
1018 764 m 1,0,-1
 723 764 l 1,1,-1
 723 0 l 1,2,-1
 315 0 l 1,3,-1
 315 764 l 1,4,-1
 20 764 l 1,5,-1
 20 1061 l 1,6,-1
 1018 1061 l 1,7,-1
 1018 764 l 1,0,-1
EndSplineSet
EndChar
StartChar: upsilon
Encoding: 965 965 470
Width: 1366
Flags: W
Fore
1243 430 m 2,0,1
 1243 221 1243 221 1094 98 c 128,-1,2
 945 -25 945 -25 676 -25 c 0,3,4
 411 -25 411 -25 265 97.5 c 128,-1,5
 119 220 119 220 119 430 c 2,6,-1
 119 1061 l 1,7,-1
 526 1061 l 1,8,-1
 526 489 l 2,9,10
 526 293 526 293 680 293 c 0,11,12
 755 293 755 293 795.5 337 c 128,-1,13
 836 381 836 381 836 489 c 2,14,-1
 836 1061 l 1,15,-1
 1243 1061 l 1,16,-1
 1243 430 l 2,0,1
EndSplineSet
EndChar
StartChar: phi
Encoding: 966 966 471
Width: 1819
Flags: W
Fore
700 281 m 1,0,-1
 700 627 l 2,1,2
 700 885 700 885 808.5 985 c 128,-1,3
 917 1085 917 1085 1155 1085 c 0,4,5
 1433 1085 1433 1085 1584 941 c 128,-1,6
 1735 797 1735 797 1735 526 c 0,7,8
 1735 293 1735 293 1560 141 c 128,-1,9
 1385 -11 1385 -11 1092 -23 c 1,10,-1
 1092 -406 l 1,11,-1
 700 -406 l 1,12,-1
 700 -20 l 1,13,14
 422 -7 422 -7 247 144 c 128,-1,15
 72 295 72 295 72 526 c 0,16,17
 72 786 72 786 213.5 925.5 c 128,-1,18
 355 1065 355 1065 674 1085 c 1,19,-1
 610 784 l 1,20,21
 547 770 547 770 505 707 c 128,-1,22
 463 644 463 644 463 553 c 0,23,24
 463 436 463 436 531.5 364 c 128,-1,25
 600 292 600 292 700 281 c 1,0,-1
1092 276 m 1,26,27
 1200 290 1200 290 1271.5 356 c 128,-1,28
 1343 422 1343 422 1343 526 c 0,29,30
 1343 646 1343 646 1299 715 c 128,-1,31
 1255 784 1255 784 1196 784 c 0,32,33
 1140 784 1140 784 1116 739 c 128,-1,34
 1092 694 1092 694 1092 600 c 2,35,-1
 1092 276 l 1,26,27
EndSplineSet
EndChar
StartChar: chi
Encoding: 967 967 472
Width: 1327
Flags: W
Fore
1313 -406 m 1,0,-1
 868 -406 l 1,1,-1
 668 117 l 1,2,-1
 424 -406 l 1,3,-1
 14 -406 l 1,4,-1
 393 360 l 1,5,-1
 35 1061 l 1,6,-1
 483 1061 l 1,7,-1
 664 573 l 1,8,-1
 866 1061 l 1,9,-1
 1286 1061 l 1,10,-1
 932 360 l 1,11,-1
 1313 -406 l 1,0,-1
EndSplineSet
EndChar
StartChar: psi
Encoding: 968 968 473
Width: 1876
Flags: W
Fore
1757 596 m 2,0,1
 1757 299 1757 299 1602 139.5 c 128,-1,2
 1447 -20 1447 -20 1143 -20 c 1,3,-1
 1143 -406 l 1,4,-1
 735 -406 l 1,5,-1
 735 -23 l 1,6,7
 430 -23 430 -23 274.5 136.5 c 128,-1,8
 119 296 119 296 119 596 c 2,9,-1
 119 1061 l 1,10,-1
 526 1061 l 1,11,-1
 526 575 l 2,12,13
 526 293 526 293 735 293 c 1,14,-1
 735 1061 l 1,15,-1
 1143 1061 l 1,16,-1
 1143 293 l 1,17,18
 1350 293 1350 293 1350 575 c 2,19,-1
 1350 1061 l 1,20,-1
 1757 1061 l 1,21,-1
 1757 596 l 2,0,1
EndSplineSet
EndChar
StartChar: omega
Encoding: 969 969 474
Width: 1937
Flags: W
Fore
1743 1061 m 1,0,1
 1866 837 1866 837 1866 555 c 0,2,3
 1866 291 1866 291 1728 133 c 128,-1,4
 1590 -25 1590 -25 1350 -25 c 0,5,6
 1229 -25 1229 -25 1119 38.5 c 128,-1,7
 1009 102 1009 102 967 209 c 1,8,9
 927 101 927 101 822 38 c 128,-1,10
 717 -25 717 -25 588 -25 c 0,11,12
 348 -25 348 -25 210 133 c 128,-1,13
 72 291 72 291 72 555 c 0,14,15
 72 837 72 837 195 1061 c 1,16,-1
 604 1061 l 1,17,18
 568 969 568 969 536 814.5 c 128,-1,19
 504 660 504 660 504 547 c 0,20,21
 504 295 504 295 649 295 c 0,22,23
 691 295 691 295 728.5 351.5 c 128,-1,24
 766 408 766 408 766 498 c 2,25,-1
 766 834 l 1,26,-1
 1174 834 l 1,27,-1
 1174 498 l 2,28,29
 1174 408 1174 408 1210.5 351.5 c 128,-1,30
 1247 295 1247 295 1288 295 c 0,31,32
 1434 295 1434 295 1434 547 c 0,33,34
 1434 660 1434 660 1402 814.5 c 128,-1,35
 1370 969 1370 969 1333 1061 c 1,36,-1
 1743 1061 l 1,0,1
EndSplineSet
EndChar
StartChar: afii10051
Encoding: 1026 1026 481
Width: 2056
Flags: W
Fore
967 901 m 1,0,1
 1167 973 1167 973 1331 973 c 0,2,3
 1645 973 1645 973 1810.5 842 c 128,-1,4
 1976 711 1976 711 1976 467 c 0,5,6
 1976 234 1976 234 1814.5 111 c 128,-1,7
 1653 -12 1653 -12 1343 -12 c 0,8,9
 1286 -12 1286 -12 1171 4 c 1,10,-1
 1233 313 l 1,11,12
 1305 299 1305 299 1343 299 c 0,13,14
 1419 299 1419 299 1472.5 339.5 c 128,-1,15
 1526 380 1526 380 1526 451 c 0,16,17
 1526 526 1526 526 1464 566 c 128,-1,18
 1402 606 1402 606 1298 606 c 0,19,20
 1146 606 1146 606 967 532 c 1,21,-1
 967 0 l 1,22,-1
 514 0 l 1,23,-1
 514 1106 l 1,24,-1
 53 1106 l 1,25,-1
 53 1466 l 1,26,-1
 1427 1466 l 1,27,-1
 1427 1106 l 1,28,-1
 967 1106 l 1,29,-1
 967 901 l 1,0,1
EndSplineSet
EndChar
StartChar: afii10053
Encoding: 1028 1028 483
Width: 1630
Flags: W
Fore
1565 426 m 1,0,1
 1497 226 1497 226 1326.5 100.5 c 128,-1,2
 1156 -25 1156 -25 838 -25 c 0,3,4
 485 -25 485 -25 289.5 173.5 c 128,-1,5
 94 372 94 372 94 743 c 0,6,7
 94 1099 94 1099 291.5 1295 c 128,-1,8
 489 1491 489 1491 856 1491 c 0,9,10
 1350 1491 1350 1491 1532 1122 c 1,11,-1
 1124 967 l 1,12,13
 1057 1151 1057 1151 856 1151 c 0,14,15
 598 1151 598 1151 555 868 c 1,16,-1
 999 868 l 1,17,-1
 999 596 l 1,18,-1
 557 596 l 1,19,20
 594 315 594 315 854 315 c 0,21,22
 1077 315 1077 315 1139 541 c 1,23,-1
 1565 426 l 1,0,1
EndSplineSet
EndChar
StartChar: afii10058
Encoding: 1033 1033 488
Width: 2478
Flags: W
Fore
1497 901 m 1,0,-1
 1739 901 l 2,1,2
 2063 901 2063 901 2228.5 778 c 128,-1,3
 2394 655 2394 655 2394 418 c 0,4,5
 2394 269 2394 269 2301 155 c 128,-1,6
 2208 41 2208 41 2033 20.5 c 128,-1,7
 1858 0 1858 0 1823 0 c 2,8,-1
 1044 0 l 1,9,-1
 1044 1106 l 1,10,-1
 690 1106 l 1,11,-1
 690 655 l 2,12,13
 690 377 690 377 660.5 246.5 c 128,-1,14
 631 116 631 116 522.5 55 c 128,-1,15
 414 -6 414 -6 172 -6 c 0,16,17
 98 -6 98 -6 2 10 c 1,18,-1
 2 307 l 1,19,-1
 70 307 l 2,20,21
 162 307 162 307 200 347.5 c 128,-1,22
 238 388 238 388 238 496 c 2,23,-1
 238 1466 l 1,24,-1
 1497 1466 l 1,25,-1
 1497 901 l 1,0,-1
1497 315 m 1,26,-1
 1729 315 l 2,27,28
 1942 315 1942 315 1942 469 c 0,29,30
 1942 604 1942 604 1729 604 c 2,31,-1
 1497 604 l 1,32,-1
 1497 315 l 1,26,-1
EndSplineSet
EndChar
StartChar: afii10059
Encoding: 1034 1034 489
Width: 2478
Flags: W
Fore
1497 901 m 1,0,-1
 1739 901 l 2,1,2
 2063 901 2063 901 2228.5 778 c 128,-1,3
 2394 655 2394 655 2394 418 c 0,4,5
 2394 269 2394 269 2301 155 c 128,-1,6
 2208 41 2208 41 2033 20.5 c 128,-1,7
 1858 0 1858 0 1823 0 c 2,8,-1
 1044 0 l 1,9,-1
 1044 592 l 1,10,-1
 604 592 l 1,11,-1
 604 0 l 1,12,-1
 152 0 l 1,13,-1
 152 1466 l 1,14,-1
 604 1466 l 1,15,-1
 604 952 l 1,16,-1
 1044 952 l 1,17,-1
 1044 1466 l 1,18,-1
 1497 1466 l 1,19,-1
 1497 901 l 1,0,-1
1497 315 m 1,20,-1
 1729 315 l 2,21,22
 1942 315 1942 315 1942 469 c 0,23,24
 1942 604 1942 604 1729 604 c 2,25,-1
 1497 604 l 1,26,-1
 1497 315 l 1,20,-1
EndSplineSet
EndChar
StartChar: afii10060
Encoding: 1035 1035 490
Width: 1999
Flags: W
Fore
1878 0 m 1,0,-1
 1425 0 l 1,1,-1
 1425 389 l 2,2,3
 1425 612 1425 612 1227 612 c 0,4,5
 1080 612 1080 612 967 506 c 1,6,-1
 967 0 l 1,7,-1
 514 0 l 1,8,-1
 514 1106 l 1,9,-1
 53 1106 l 1,10,-1
 53 1466 l 1,11,-1
 1427 1466 l 1,12,-1
 1427 1106 l 1,13,-1
 967 1106 l 1,14,-1
 967 860 l 1,15,16
 1166 975 1166 975 1364 975 c 0,17,18
 1588 975 1588 975 1733 842 c 128,-1,19
 1878 709 1878 709 1878 479 c 2,20,-1
 1878 0 l 1,0,-1
EndSplineSet
EndChar
StartChar: afii10062
Encoding: 1038 1038 492
Width: 1376
Flags: W
Fore
12 1466 m 1,0,-1
 504 1466 l 1,1,-1
 707 862 l 1,2,-1
 907 1466 l 1,3,-1
 1368 1466 l 1,4,-1
 887 334 l 2,5,6
 828 197 828 197 784 129.5 c 128,-1,7
 740 62 740 62 653.5 18.5 c 128,-1,8
 567 -25 567 -25 416 -25 c 0,9,10
 336 -25 336 -25 141 -2 c 1,11,-1
 141 301 l 1,12,13
 256 289 256 289 309 289 c 0,14,15
 466 289 466 289 500 406 c 1,16,-1
 12 1466 l 1,0,-1
1030 1872 m 1,17,18
 1028 1727 1028 1727 929.5 1649 c 128,-1,19
 831 1571 831 1571 696 1571 c 0,20,21
 539 1571 539 1571 449.5 1650.5 c 128,-1,22
 360 1730 360 1730 348 1872 c 1,23,-1
 520 1872 l 1,24,25
 550 1765 550 1765 688 1765 c 0,26,27
 764 1765 764 1765 807.5 1786.5 c 128,-1,28
 851 1808 851 1808 866 1872 c 1,29,-1
 1030 1872 l 1,17,18
EndSplineSet
EndChar
StartChar: afii10145
Encoding: 1039 1039 493
Width: 1706
Flags: W
Fore
1554 0 m 1,0,-1
 1034 0 l 1,1,-1
 1034 -319 l 1,2,-1
 670 -319 l 1,3,-1
 670 0 l 1,4,-1
 152 0 l 1,5,-1
 152 1466 l 1,6,-1
 604 1466 l 1,7,-1
 604 360 l 1,8,-1
 1102 360 l 1,9,-1
 1102 1466 l 1,10,-1
 1554 1466 l 1,11,-1
 1554 0 l 1,0,-1
EndSplineSet
EndChar
StartChar: afii10018
Encoding: 1041 1041 495
Width: 1593
Flags: W
Fore
604 901 m 1,0,-1
 846 901 l 2,1,2
 1179 901 1179 901 1340 783.5 c 128,-1,3
 1501 666 1501 666 1501 418 c 0,4,5
 1501 215 1501 215 1353.5 107.5 c 128,-1,6
 1206 0 1206 0 930 0 c 2,7,-1
 152 0 l 1,8,-1
 152 1466 l 1,9,-1
 1386 1466 l 1,10,-1
 1386 1169 l 1,11,-1
 604 1169 l 1,12,-1
 604 901 l 1,0,-1
604 315 m 1,13,-1
 836 315 l 2,14,15
 1049 315 1049 315 1049 469 c 0,16,17
 1049 604 1049 604 836 604 c 2,18,-1
 604 604 l 1,19,-1
 604 315 l 1,13,-1
EndSplineSet
EndChar
StartChar: afii10020
Encoding: 1043 1043 497
Width: 1366
Flags: W
Fore
1311 1106 m 1,0,-1
 602 1106 l 1,1,-1
 602 0 l 1,2,-1
 150 0 l 1,3,-1
 150 1466 l 1,4,-1
 1311 1466 l 1,5,-1
 1311 1106 l 1,0,-1
EndSplineSet
EndChar
StartChar: afii10021
Encoding: 1044 1044 498
Width: 1716
Flags: W
Fore
1688 -319 m 1,0,-1
 1323 -319 l 1,1,-1
 1323 0 l 1,2,-1
 387 0 l 1,3,-1
 387 -319 l 1,4,-1
 23 -319 l 1,5,-1
 23 338 l 1,6,-1
 174 338 l 1,7,8
 301 693 301 693 301 1139 c 2,9,-1
 301 1466 l 1,10,-1
 1530 1466 l 1,11,-1
 1530 338 l 1,12,-1
 1688 338 l 1,13,-1
 1688 -319 l 1,0,-1
1077 338 m 1,14,-1
 1077 1106 l 1,15,-1
 713 1106 l 1,16,-1
 713 1087 l 2,17,18
 713 783 713 783 610 338 c 1,19,-1
 1077 338 l 1,14,-1
EndSplineSet
EndChar
StartChar: afii10024
Encoding: 1046 1046 500
Width: 2224
Flags: W
Fore
2210 0 m 1,0,-1
 1700 0 l 1,1,-1
 1524 379 l 2,2,3
 1461 513 1461 513 1426 546.5 c 128,-1,4
 1391 580 1391 580 1329 580 c 1,5,-1
 1329 0 l 1,6,-1
 877 0 l 1,7,-1
 877 580 l 1,8,9
 814 580 814 580 779 546.5 c 128,-1,10
 744 513 744 513 682 379 c 2,11,-1
 506 0 l 1,12,-1
 -4 0 l 1,13,-1
 195 401 l 2,14,15
 277 568 277 568 350.5 646.5 c 128,-1,16
 424 725 424 725 520 756 c 1,17,18
 449 785 449 785 407 833.5 c 128,-1,19
 365 882 365 882 329.5 980.5 c 128,-1,20
 294 1079 294 1079 238 1123 c 128,-1,21
 182 1167 182 1167 66 1167 c 2,22,-1
 43 1167 l 1,23,-1
 43 1477 l 1,24,25
 293 1477 293 1477 410 1451 c 128,-1,26
 527 1425 527 1425 578.5 1365.5 c 128,-1,27
 630 1306 630 1306 682 1169 c 0,28,29
 751 984 751 984 784 945 c 128,-1,30
 817 906 817 906 877 903 c 1,31,-1
 877 1466 l 1,32,-1
 1329 1466 l 1,33,-1
 1329 903 l 1,34,35
 1388 906 1388 906 1421 945 c 128,-1,36
 1454 984 1454 984 1524 1169 c 0,37,38
 1575 1306 1575 1306 1627 1365.5 c 128,-1,39
 1679 1425 1679 1425 1796 1451 c 128,-1,40
 1913 1477 1913 1477 2163 1477 c 1,41,-1
 2163 1167 l 1,42,-1
 2140 1167 l 2,43,44
 2024 1167 2024 1167 1968 1123 c 128,-1,45
 1912 1079 1912 1079 1876 980.5 c 128,-1,46
 1840 882 1840 882 1798.5 833.5 c 128,-1,47
 1757 785 1757 785 1686 756 c 1,48,49
 1783 724 1783 724 1856 645.5 c 128,-1,50
 1929 567 1929 567 2011 401 c 2,51,-1
 2210 0 l 1,0,-1
EndSplineSet
EndChar
StartChar: afii10025
Encoding: 1047 1047 501
Width: 1409
Flags: W
Fore
1069 797 m 1,0,1
 1333 726 1333 726 1333 465 c 0,2,3
 1333 250 1333 250 1167.5 112.5 c 128,-1,4
 1002 -25 1002 -25 700 -25 c 0,5,6
 184 -25 184 -25 59 408 c 1,7,-1
 487 440 l 1,8,9
 523 287 523 287 692 287 c 0,10,11
 786 287 786 287 834.5 334 c 128,-1,12
 883 381 883 381 883 465 c 0,13,14
 883 546 883 546 822 596.5 c 128,-1,15
 761 647 761 647 655 647 c 2,16,-1
 532 647 l 1,17,-1
 532 909 l 1,18,-1
 629 909 l 2,19,20
 716 909 716 909 765.5 954.5 c 128,-1,21
 815 1000 815 1000 815 1081 c 0,22,23
 815 1200 815 1200 666 1200 c 0,24,25
 512 1200 512 1200 487 1063 c 1,26,-1
 82 1110 l 1,27,28
 181 1491 181 1491 674 1491 c 0,29,30
 947 1491 947 1491 1102 1385 c 128,-1,31
 1257 1279 1257 1279 1257 1100 c 0,32,33
 1257 884 1257 884 1069 797 c 1,0,1
EndSplineSet
EndChar
StartChar: afii10026
Encoding: 1048 1048 502
Width: 1706
Flags: W
Fore
1553 1466 m 1,0,-1
 1553 0 l 1,1,-1
 1127 0 l 1,2,-1
 1127 805 l 1,3,-1
 578 0 l 1,4,-1
 151 0 l 1,5,-1
 151 1466 l 1,6,-1
 578 1466 l 1,7,-1
 578 655 l 1,8,-1
 1130 1466 l 1,9,-1
 1553 1466 l 1,0,-1
EndSplineSet
EndChar
StartChar: afii10027
Encoding: 1049 1049 503
Width: 1706
Flags: W
Fore
1553 1466 m 1,0,-1
 1553 0 l 1,1,-1
 1127 0 l 1,2,-1
 1127 805 l 1,3,-1
 578 0 l 1,4,-1
 151 0 l 1,5,-1
 151 1466 l 1,6,-1
 578 1466 l 1,7,-1
 578 655 l 1,8,-1
 1130 1466 l 1,9,-1
 1553 1466 l 1,0,-1
1221 1827 m 1,10,11
 1200 1701 1200 1701 1099.5 1623.5 c 128,-1,12
 999 1546 999 1546 860 1546 c 0,13,14
 722 1546 722 1546 621 1624 c 128,-1,15
 520 1702 520 1702 500 1827 c 1,16,-1
 674 1827 l 1,17,18
 716 1702 716 1702 856 1702 c 0,19,20
 1006 1702 1006 1702 1047 1827 c 1,21,-1
 1221 1827 l 1,10,11
EndSplineSet
EndChar
StartChar: afii10028
Encoding: 1050 1050 504
Width: 1495
Flags: W
Fore
1483 0 m 1,0,-1
 973 0 l 1,1,-1
 797 379 l 2,2,3
 734 513 734 513 699 546.5 c 128,-1,4
 664 580 664 580 602 580 c 1,5,-1
 602 0 l 1,6,-1
 150 0 l 1,7,-1
 150 1466 l 1,8,-1
 602 1466 l 1,9,-1
 602 903 l 1,10,11
 661 906 661 906 694 945 c 128,-1,12
 727 984 727 984 797 1169 c 0,13,14
 848 1306 848 1306 900 1365.5 c 128,-1,15
 952 1425 952 1425 1069 1451 c 128,-1,16
 1186 1477 1186 1477 1436 1477 c 1,17,-1
 1436 1167 l 1,18,-1
 1413 1167 l 2,19,20
 1297 1167 1297 1167 1241 1123 c 128,-1,21
 1185 1079 1185 1079 1149 980.5 c 128,-1,22
 1113 882 1113 882 1071.5 833.5 c 128,-1,23
 1030 785 1030 785 958 756 c 1,24,25
 1056 724 1056 724 1129 645.5 c 128,-1,26
 1202 567 1202 567 1284 401 c 2,27,-1
 1483 0 l 1,0,-1
EndSplineSet
EndChar
StartChar: afii10029
Encoding: 1051 1051 505
Width: 1647
Flags: W
Fore
1497 0 m 1,0,-1
 1044 0 l 1,1,-1
 1044 1106 l 1,2,-1
 690 1106 l 1,3,-1
 690 655 l 2,4,5
 690 377 690 377 660.5 246.5 c 128,-1,6
 631 116 631 116 522.5 55 c 128,-1,7
 414 -6 414 -6 172 -6 c 0,8,9
 98 -6 98 -6 2 10 c 1,10,-1
 2 307 l 1,11,-1
 70 307 l 2,12,13
 162 307 162 307 200 347.5 c 128,-1,14
 238 388 238 388 238 496 c 2,15,-1
 238 1466 l 1,16,-1
 1497 1466 l 1,17,-1
 1497 0 l 1,0,-1
EndSplineSet
EndChar
StartChar: afii10033
Encoding: 1055 1055 509
Width: 1706
Flags: W
Fore
1554 0 m 1,0,-1
 1102 0 l 1,1,-1
 1102 1106 l 1,2,-1
 604 1106 l 1,3,-1
 604 0 l 1,4,-1
 152 0 l 1,5,-1
 152 1466 l 1,6,-1
 1554 1466 l 1,7,-1
 1554 0 l 1,0,-1
EndSplineSet
EndChar
StartChar: afii10037
Encoding: 1059 1059 513
Width: 1376
Flags: W
Fore
12 1466 m 1,0,-1
 504 1466 l 1,1,-1
 707 862 l 1,2,-1
 907 1466 l 1,3,-1
 1368 1466 l 1,4,-1
 887 334 l 2,5,6
 828 197 828 197 784 129.5 c 128,-1,7
 740 62 740 62 653.5 18.5 c 128,-1,8
 567 -25 567 -25 416 -25 c 0,9,10
 336 -25 336 -25 141 -2 c 1,11,-1
 141 301 l 1,12,13
 256 289 256 289 309 289 c 0,14,15
 466 289 466 289 500 406 c 1,16,-1
 12 1466 l 1,0,-1
EndSplineSet
EndChar
StartChar: afii10038
Encoding: 1060 1060 514
Width: 1892
Flags: W
Fore
1153 1354 m 1,0,1
 1821 1284 1821 1284 1821 754 c 0,2,3
 1821 213 1821 213 1153 152 c 1,4,-1
 1153 0 l 1,5,-1
 741 0 l 1,6,-1
 741 156 l 1,7,8
 74 213 74 213 74 754 c 0,9,10
 74 1285 74 1285 741 1354 c 1,11,-1
 741 1466 l 1,12,-1
 1153 1466 l 1,13,-1
 1153 1354 l 1,0,1
1153 459 m 1,14,15
 1260 490 1260 490 1319 569.5 c 128,-1,16
 1378 649 1378 649 1378 760 c 0,17,18
 1378 866 1378 866 1317.5 950.5 c 128,-1,19
 1257 1035 1257 1035 1153 1069 c 1,20,-1
 1153 459 l 1,14,15
741 455 m 1,21,-1
 741 1061 l 1,22,23
 640 1032 640 1032 578 946.5 c 128,-1,24
 516 861 516 861 516 752 c 0,25,26
 516 650 516 650 577.5 569 c 128,-1,27
 639 488 639 488 741 455 c 1,21,-1
EndSplineSet
EndChar
StartChar: afii10040
Encoding: 1062 1062 516
Width: 1761
Flags: W
Fore
1712 -319 m 1,0,-1
 1348 -319 l 1,1,-1
 1348 0 l 1,2,-1
 152 0 l 1,3,-1
 152 1466 l 1,4,-1
 604 1466 l 1,5,-1
 604 360 l 1,6,-1
 1102 360 l 1,7,-1
 1102 1466 l 1,8,-1
 1554 1466 l 1,9,-1
 1554 338 l 1,10,-1
 1712 338 l 1,11,-1
 1712 -319 l 1,0,-1
EndSplineSet
EndChar
StartChar: afii10041
Encoding: 1063 1063 517
Width: 1647
Flags: W
Fore
1497 0 m 1,0,-1
 1044 0 l 1,1,-1
 1044 545 l 1,2,3
 836 430 836 430 649 430 c 0,4,5
 425 430 425 430 280 562.5 c 128,-1,6
 135 695 135 695 135 926 c 2,7,-1
 135 1466 l 1,8,-1
 588 1466 l 1,9,-1
 588 1016 l 2,10,11
 588 909 588 909 639 851 c 128,-1,12
 690 793 690 793 786 793 c 0,13,14
 964 793 964 793 1044 899 c 1,15,-1
 1044 1466 l 1,16,-1
 1497 1466 l 1,17,-1
 1497 0 l 1,0,-1
EndSplineSet
EndChar
StartChar: afii10042
Encoding: 1064 1064 518
Width: 2273
Flags: W
Fore
2124 0 m 1,0,-1
 152 0 l 1,1,-1
 152 1466 l 1,2,-1
 604 1466 l 1,3,-1
 604 360 l 1,4,-1
 909 360 l 1,5,-1
 909 1466 l 1,6,-1
 1362 1466 l 1,7,-1
 1362 360 l 1,8,-1
 1671 360 l 1,9,-1
 1671 1466 l 1,10,-1
 2124 1466 l 1,11,-1
 2124 0 l 1,0,-1
EndSplineSet
EndChar
StartChar: afii10043
Encoding: 1065 1065 519
Width: 2331
Flags: W
Fore
2281 -319 m 1,0,-1
 1917 -319 l 1,1,-1
 1917 0 l 1,2,-1
 152 0 l 1,3,-1
 152 1466 l 1,4,-1
 604 1466 l 1,5,-1
 604 360 l 1,6,-1
 909 360 l 1,7,-1
 909 1466 l 1,8,-1
 1362 1466 l 1,9,-1
 1362 360 l 1,10,-1
 1671 360 l 1,11,-1
 1671 1466 l 1,12,-1
 2124 1466 l 1,13,-1
 2124 338 l 1,14,-1
 2281 338 l 1,15,-1
 2281 -319 l 1,0,-1
EndSplineSet
EndChar
StartChar: afii10044
Encoding: 1066 1066 520
Width: 2052
Flags: W
Fore
1071 891 m 1,0,-1
 1313 891 l 2,1,2
 1968 891 1968 891 1968 418 c 0,3,4
 1968 269 1968 269 1875 155 c 128,-1,5
 1782 41 1782 41 1607 20.5 c 128,-1,6
 1432 0 1432 0 1397 0 c 2,7,-1
 618 0 l 1,8,-1
 618 1169 l 1,9,-1
 51 1169 l 1,10,-1
 51 1466 l 1,11,-1
 1071 1466 l 1,12,-1
 1071 891 l 1,0,-1
1071 315 m 1,13,-1
 1303 315 l 2,14,15
 1516 315 1516 315 1516 469 c 0,16,17
 1516 614 1516 614 1303 614 c 2,18,-1
 1071 614 l 1,19,-1
 1071 315 l 1,13,-1
EndSplineSet
EndChar
StartChar: afii10046
Encoding: 1068 1068 522
Width: 1585
Flags: W
Fore
604 901 m 1,0,-1
 846 901 l 2,1,2
 1179 901 1179 901 1340 783.5 c 128,-1,3
 1501 666 1501 666 1501 418 c 0,4,5
 1501 215 1501 215 1353.5 107.5 c 128,-1,6
 1206 0 1206 0 930 0 c 2,7,-1
 152 0 l 1,8,-1
 152 1466 l 1,9,-1
 604 1466 l 1,10,-1
 604 901 l 1,0,-1
604 315 m 1,11,-1
 836 315 l 2,12,13
 1049 315 1049 315 1049 469 c 0,14,15
 1049 604 1049 604 836 604 c 2,16,-1
 604 604 l 1,17,-1
 604 315 l 1,11,-1
EndSplineSet
EndChar
StartChar: afii10047
Encoding: 1069 1069 523
Width: 1630
Flags: W
Fore
96 1122 m 1,0,1
 278 1491 278 1491 772 1491 c 0,2,3
 1139 1491 1139 1491 1336.5 1295 c 128,-1,4
 1534 1099 1534 1099 1534 743 c 0,5,6
 1534 372 1534 372 1339 173.5 c 128,-1,7
 1144 -25 1144 -25 791 -25 c 0,8,9
 473 -25 473 -25 302 100.5 c 128,-1,10
 131 226 131 226 63 426 c 1,11,-1
 489 541 l 1,12,13
 551 315 551 315 774 315 c 0,14,15
 1034 315 1034 315 1071 596 c 1,16,-1
 629 596 l 1,17,-1
 629 868 l 1,18,-1
 1073 868 l 1,19,20
 1030 1151 1030 1151 772 1151 c 0,21,22
 571 1151 571 1151 504 967 c 1,23,-1
 96 1122 l 1,0,1
EndSplineSet
EndChar
StartChar: afii10048
Encoding: 1070 1070 524
Width: 2372
Flags: W
Fore
780 952 m 1,0,1
 839 1215 839 1215 1027 1353 c 128,-1,2
 1215 1491 1215 1491 1513 1491 c 0,3,4
 1880 1491 1880 1491 2077.5 1295 c 128,-1,5
 2275 1099 2275 1099 2275 743 c 0,6,7
 2275 372 2275 372 2080 173.5 c 128,-1,8
 1885 -25 1885 -25 1532 -25 c 0,9,10
 1161 -25 1161 -25 979 151.5 c 128,-1,11
 797 328 797 328 766 592 c 1,12,-1
 604 592 l 1,13,-1
 604 0 l 1,14,-1
 152 0 l 1,15,-1
 152 1466 l 1,16,-1
 604 1466 l 1,17,-1
 604 952 l 1,18,-1
 780 952 l 1,0,1
1516 315 m 0,19,20
 1667 315 1667 315 1745 412.5 c 128,-1,21
 1823 510 1823 510 1823 750 c 0,22,23
 1823 1151 1823 1151 1513 1151 c 0,24,25
 1210 1151 1210 1151 1210 729 c 0,26,27
 1210 315 1210 315 1516 315 c 0,19,20
EndSplineSet
EndChar
StartChar: afii10066
Encoding: 1073 1073 527
Width: 1366
Flags: W
Fore
479 1030 m 1,0,1
 552 1085 552 1085 680 1085 c 0,2,3
 979 1085 979 1085 1135.5 927.5 c 128,-1,4
 1292 770 1292 770 1292 535 c 0,5,6
 1292 302 1292 302 1136.5 138.5 c 128,-1,7
 981 -25 981 -25 680 -25 c 0,8,9
 380 -25 380 -25 227 139.5 c 128,-1,10
 74 304 74 304 74 676 c 0,11,12
 74 1020 74 1020 206 1232 c 128,-1,13
 338 1444 338 1444 586 1452 c 2,14,-1
 709 1456 l 2,15,16
 874 1463 874 1463 891 1499 c 1,17,-1
 1214 1499 l 1,18,19
 1214 1208 1214 1208 887 1196 c 0,20,21
 666 1188 666 1188 587 1152.5 c 128,-1,22
 508 1117 508 1117 479 1030 c 1,0,1
682 254 m 256,23,24
 780 254 780 254 832.5 326 c 128,-1,25
 885 398 885 398 885 532 c 0,26,27
 885 665 885 665 831 736 c 128,-1,28
 777 807 777 807 686 807 c 0,29,30
 585 807 585 807 533 729.5 c 128,-1,31
 481 652 481 652 481 528 c 0,32,33
 481 399 481 399 532.5 326.5 c 128,-1,34
 584 254 584 254 682 254 c 256,23,24
EndSplineSet
EndChar
StartChar: afii10067
Encoding: 1074 1074 528
Width: 1260
Flags: W
Fore
924 565 m 1,0,1
 1045 553 1045 553 1116.5 485 c 128,-1,2
 1188 417 1188 417 1188 303 c 0,3,4
 1188 151 1188 151 1088 75.5 c 128,-1,5
 988 0 988 0 729 0 c 2,6,-1
 123 0 l 1,7,-1
 123 1061 l 1,8,-1
 778 1061 l 2,9,10
 956 1061 956 1061 1049.5 993 c 128,-1,11
 1143 925 1143 925 1143 803 c 0,12,13
 1143 717 1143 717 1082 653.5 c 128,-1,14
 1021 590 1021 590 924 569 c 1,15,-1
 924 565 l 1,0,1
530 657 m 1,16,-1
 633 657 l 2,17,18
 735 657 735 657 735 750 c 0,19,20
 735 825 735 825 627 825 c 2,21,-1
 530 825 l 1,22,-1
 530 657 l 1,16,-1
530 250 m 1,23,-1
 664 250 l 2,24,25
 714 250 714 250 745 273 c 128,-1,26
 776 296 776 296 776 340 c 0,27,28
 776 436 776 436 664 436 c 2,29,-1
 530 436 l 1,30,-1
 530 250 l 1,23,-1
EndSplineSet
EndChar
StartChar: afii10068
Encoding: 1075 1075 529
Width: 1040
Flags: W
Fore
997 764 m 1,0,-1
 545 764 l 1,1,-1
 545 0 l 1,2,-1
 137 0 l 1,3,-1
 137 1061 l 1,4,-1
 997 1061 l 1,5,-1
 997 764 l 1,0,-1
EndSplineSet
EndChar
StartChar: afii10069
Encoding: 1076 1076 530
Width: 1356
Flags: W
Fore
1331 -303 m 1,0,-1
 1049 -303 l 1,1,-1
 1049 0 l 1,2,-1
 297 0 l 1,3,-1
 297 -303 l 1,4,-1
 14 -303 l 1,5,-1
 14 297 l 1,6,-1
 117 297 l 1,7,8
 229 497 229 497 229 821 c 2,9,-1
 229 1061 l 1,10,-1
 1219 1061 l 1,11,-1
 1219 297 l 1,12,-1
 1331 297 l 1,13,-1
 1331 -303 l 1,0,-1
811 297 m 1,14,-1
 811 764 l 1,15,-1
 616 764 l 1,16,-1
 616 752 l 2,17,18
 616 531 616 531 520 297 c 1,19,-1
 811 297 l 1,14,-1
EndSplineSet
EndChar
StartChar: afii10072
Encoding: 1078 1078 532
Width: 1892
Flags: W
Fore
1882 0 m 1,0,-1
 1423 0 l 1,1,-1
 1280 293 l 2,2,3
 1245 366 1245 366 1220.5 382.5 c 128,-1,4
 1196 399 1196 399 1149 399 c 1,5,-1
 1149 0 l 1,6,-1
 741 0 l 1,7,-1
 741 399 l 1,8,9
 695 399 695 399 670.5 383 c 128,-1,10
 646 367 646 367 610 293 c 2,11,-1
 467 0 l 1,12,-1
 8 0 l 1,13,-1
 188 319 l 2,14,15
 260 447 260 447 312 488.5 c 128,-1,16
 364 530 364 530 471 539 c 1,17,18
 418 549 418 549 382 579 c 128,-1,19
 346 609 346 609 307 681 c 128,-1,20
 268 753 268 753 225 769.5 c 128,-1,21
 182 786 182 786 94 786 c 2,22,-1
 76 786 l 1,23,-1
 76 1075 l 1,24,25
 285 1075 285 1075 375.5 1057.5 c 128,-1,26
 466 1040 466 1040 515.5 985.5 c 128,-1,27
 565 931 565 931 611 827 c 128,-1,28
 657 723 657 723 676 702.5 c 128,-1,29
 695 682 695 682 741 678 c 1,30,-1
 741 1061 l 1,31,-1
 1149 1061 l 1,32,-1
 1149 678 l 1,33,34
 1195 682 1195 682 1214 702.5 c 128,-1,35
 1233 723 1233 723 1279 827 c 128,-1,36
 1325 931 1325 931 1374.5 985.5 c 128,-1,37
 1424 1040 1424 1040 1515 1057.5 c 128,-1,38
 1606 1075 1606 1075 1815 1075 c 1,39,-1
 1815 786 l 1,40,-1
 1796 786 l 2,41,42
 1709 786 1709 786 1665.5 769.5 c 128,-1,43
 1622 753 1622 753 1583 681 c 128,-1,44
 1544 609 1544 609 1508 579 c 128,-1,45
 1472 549 1472 549 1419 539 c 1,46,47
 1521 530 1521 530 1573.5 492 c 128,-1,48
 1626 454 1626 454 1702 319 c 2,49,-1
 1882 0 l 1,0,-1
EndSplineSet
EndChar
StartChar: afii10073
Encoding: 1079 1079 533
Width: 1389
Flags: W
Fore
1106 549 m 1,0,1
 1201 519 1201 519 1257 455.5 c 128,-1,2
 1313 392 1313 392 1313 315 c 0,3,4
 1313 149 1313 149 1154 62 c 128,-1,5
 995 -25 995 -25 690 -25 c 0,6,7
 434 -25 434 -25 287.5 69.5 c 128,-1,8
 141 164 141 164 76 354 c 1,9,-1
 463 397 l 1,10,11
 483 341 483 341 545.5 297.5 c 128,-1,12
 608 254 608 254 688 254 c 0,13,14
 893 254 893 254 893 356 c 0,15,16
 893 391 893 391 854 412.5 c 128,-1,17
 815 434 815 434 752 434 c 2,18,-1
 575 434 l 1,19,-1
 575 643 l 1,20,-1
 756 643 l 2,21,22
 809 643 809 643 853 665 c 128,-1,23
 897 687 897 687 897 721 c 0,24,25
 897 759 897 759 845.5 783 c 128,-1,26
 794 807 794 807 702 807 c 0,27,28
 612 807 612 807 550 769.5 c 128,-1,29
 488 732 488 732 471 680 c 1,30,-1
 96 731 l 1,31,32
 151 912 151 912 297 998.5 c 128,-1,33
 443 1085 443 1085 700 1085 c 0,34,35
 967 1085 967 1085 1118.5 998 c 128,-1,36
 1270 911 1270 911 1270 778 c 0,37,38
 1270 618 1270 618 1106 549 c 1,0,1
EndSplineSet
EndChar
StartChar: afii10074
Encoding: 1080 1080 534
Width: 1446
Flags: W
Fore
1309 0 m 1,0,-1
 924 0 l 1,1,-1
 924 522 l 1,2,-1
 524 0 l 1,3,-1
 137 0 l 1,4,-1
 137 1061 l 1,5,-1
 522 1061 l 1,6,-1
 522 532 l 1,7,-1
 926 1061 l 1,8,-1
 1309 1061 l 1,9,-1
 1309 0 l 1,0,-1
EndSplineSet
EndChar
StartChar: afii10075
Encoding: 1081 1081 535
Width: 1446
Flags: W
Fore
1309 0 m 1,0,-1
 924 0 l 1,1,-1
 924 522 l 1,2,-1
 524 0 l 1,3,-1
 137 0 l 1,4,-1
 137 1061 l 1,5,-1
 522 1061 l 1,6,-1
 522 532 l 1,7,-1
 926 1061 l 1,8,-1
 1309 1061 l 1,9,-1
 1309 0 l 1,0,-1
1051 1491 m 1,10,11
 1048 1346 1048 1346 950 1268 c 128,-1,12
 852 1190 852 1190 717 1190 c 0,13,14
 559 1190 559 1190 470 1269.5 c 128,-1,15
 381 1349 381 1349 369 1491 c 1,16,-1
 541 1491 l 1,17,18
 571 1384 571 1384 709 1384 c 0,19,20
 785 1384 785 1384 828.5 1405.5 c 128,-1,21
 872 1427 872 1427 887 1491 c 1,22,-1
 1051 1491 l 1,10,11
EndSplineSet
EndChar
StartChar: afii10076
Encoding: 1082 1082 536
Width: 1315
Flags: W
Fore
1305 0 m 1,0,-1
 846 0 l 1,1,-1
 690 293 l 2,2,3
 653 363 653 363 617.5 381 c 128,-1,4
 582 399 582 399 530 399 c 1,5,-1
 530 0 l 1,6,-1
 123 0 l 1,7,-1
 123 1061 l 1,8,-1
 530 1061 l 1,9,-1
 530 678 l 1,10,11
 580 683 580 683 604 711 c 128,-1,12
 628 739 628 739 673.5 834 c 128,-1,13
 719 929 719 929 755 973 c 128,-1,14
 791 1017 791 1017 847 1039 c 128,-1,15
 903 1061 903 1061 987 1067 c 128,-1,16
 1071 1073 1071 1073 1237 1073 c 1,17,-1
 1237 784 l 1,18,-1
 1219 784 l 2,19,20
 1137 784 1137 784 1094 777.5 c 128,-1,21
 1051 771 1051 771 1025 750 c 128,-1,22
 999 729 999 729 965 664 c 128,-1,23
 931 599 931 599 908.5 573.5 c 128,-1,24
 886 548 886 548 842 539 c 1,25,26
 927 531 927 531 973 502.5 c 128,-1,27
 1019 474 1019 474 1112 319 c 2,28,-1
 1305 0 l 1,0,-1
EndSplineSet
EndChar
StartChar: afii10077
Encoding: 1083 1083 537
Width: 1466
Flags: W
Fore
1343 0 m 1,0,-1
 936 0 l 1,1,-1
 936 764 l 1,2,-1
 627 764 l 1,3,-1
 627 319 l 2,4,5
 627 141 627 141 554.5 55 c 128,-1,6
 482 -31 482 -31 332 -31 c 0,7,8
 162 -31 162 -31 27 0 c 1,9,-1
 27 301 l 1,10,11
 99 279 99 279 137 279 c 0,12,13
 219 279 219 279 219 401 c 2,14,-1
 219 1061 l 1,15,-1
 1343 1061 l 1,16,-1
 1343 0 l 1,0,-1
EndSplineSet
EndChar
StartChar: afii10078
Encoding: 1084 1084 538
Width: 1733
Flags: W
Fore
1595 0 m 1,0,-1
 1251 0 l 1,1,-1
 1251 666 l 1,2,-1
 999 0 l 1,3,-1
 754 0 l 1,4,-1
 481 666 l 1,5,-1
 481 0 l 1,6,-1
 137 0 l 1,7,-1
 137 1061 l 1,8,-1
 623 1061 l 1,9,-1
 877 451 l 1,10,-1
 1110 1061 l 1,11,-1
 1595 1061 l 1,12,-1
 1595 0 l 1,0,-1
EndSplineSet
EndChar
StartChar: afii10079
Encoding: 1085 1085 539
Width: 1460
Flags: W
Fore
1323 0 m 1,0,-1
 915 0 l 1,1,-1
 915 401 l 1,2,-1
 545 401 l 1,3,-1
 545 0 l 1,4,-1
 137 0 l 1,5,-1
 137 1061 l 1,6,-1
 545 1061 l 1,7,-1
 545 698 l 1,8,-1
 915 698 l 1,9,-1
 915 1061 l 1,10,-1
 1323 1061 l 1,11,-1
 1323 0 l 1,0,-1
EndSplineSet
EndChar
StartChar: afii10081
Encoding: 1087 1087 541
Width: 1366
Flags: W
Fore
1243 0 m 1,0,-1
 836 0 l 1,1,-1
 836 764 l 1,2,-1
 526 764 l 1,3,-1
 526 0 l 1,4,-1
 119 0 l 1,5,-1
 119 1061 l 1,6,-1
 1243 1061 l 1,7,-1
 1243 0 l 1,0,-1
EndSplineSet
EndChar
StartChar: afii10084
Encoding: 1090 1090 544
Width: 1040
Flags: W
Fore
1018 764 m 1,0,-1
 723 764 l 1,1,-1
 723 0 l 1,2,-1
 315 0 l 1,3,-1
 315 764 l 1,4,-1
 20 764 l 1,5,-1
 20 1061 l 1,6,-1
 1018 1061 l 1,7,-1
 1018 764 l 1,0,-1
EndSplineSet
EndChar
StartChar: afii10086
Encoding: 1092 1092 546
Width: 2075
Flags: W
Fore
1241 954 m 1,0,1
 1363 1085 1363 1085 1552 1085 c 0,2,3
 1757 1085 1757 1085 1878 926.5 c 128,-1,4
 1999 768 1999 768 1999 514 c 0,5,6
 1999 268 1999 268 1878 121.5 c 128,-1,7
 1757 -25 1757 -25 1550 -25 c 0,8,9
 1354 -25 1354 -25 1241 102 c 1,10,-1
 1241 -406 l 1,11,-1
 834 -406 l 1,12,-1
 834 100 l 1,13,14
 706 -25 706 -25 522 -25 c 0,15,16
 318 -25 318 -25 197 133.5 c 128,-1,17
 76 292 76 292 76 547 c 0,18,19
 76 793 76 793 197 939 c 128,-1,20
 318 1085 318 1085 524 1085 c 0,21,22
 719 1085 719 1085 834 950 c 1,23,-1
 834 1466 l 1,24,-1
 1241 1466 l 1,25,-1
 1241 954 l 1,0,1
1425 276 m 0,26,27
 1505 276 1505 276 1548 343 c 128,-1,28
 1591 410 1591 410 1591 522 c 0,29,30
 1591 784 1591 784 1419 784 c 0,31,32
 1344 784 1344 784 1290.5 727 c 128,-1,33
 1237 670 1237 670 1237 526 c 0,34,35
 1237 419 1237 419 1285 347.5 c 128,-1,36
 1333 276 1333 276 1425 276 c 0,26,27
655 276 m 0,37,38
 731 276 731 276 784.5 333.5 c 128,-1,39
 838 391 838 391 838 535 c 0,40,41
 838 642 838 642 790 713 c 128,-1,42
 742 784 742 784 649 784 c 0,43,44
 570 784 570 784 526.5 717.5 c 128,-1,45
 483 651 483 651 483 539 c 0,46,47
 483 276 483 276 655 276 c 0,37,38
EndSplineSet
EndChar
StartChar: afii10088
Encoding: 1094 1094 548
Width: 1413
Flags: W
Fore
1397 -303 m 1,0,-1
 1114 -303 l 1,1,-1
 1114 0 l 1,2,-1
 117 0 l 1,3,-1
 117 1061 l 1,4,-1
 524 1061 l 1,5,-1
 524 297 l 1,6,-1
 834 297 l 1,7,-1
 834 1061 l 1,8,-1
 1241 1061 l 1,9,-1
 1241 297 l 1,10,-1
 1397 297 l 1,11,-1
 1397 -303 l 1,0,-1
EndSplineSet
EndChar
StartChar: afii10089
Encoding: 1095 1095 549
Width: 1356
Flags: W
Fore
1239 0 m 1,0,-1
 831 0 l 1,1,-1
 831 391 l 1,2,3
 677 299 677 299 498 299 c 0,4,5
 115 299 115 299 115 707 c 2,6,-1
 115 1061 l 1,7,-1
 522 1061 l 1,8,-1
 522 770 l 2,9,10
 522 698 522 698 555 657 c 128,-1,11
 588 616 588 616 647 616 c 0,12,13
 761 616 761 616 831 709 c 1,14,-1
 831 1061 l 1,15,-1
 1239 1061 l 1,16,-1
 1239 0 l 1,0,-1
EndSplineSet
EndChar
StartChar: afii10090
Encoding: 1096 1096 550
Width: 1944
Flags: W
Fore
1794 0 m 1,0,-1
 117 0 l 1,1,-1
 117 1061 l 1,2,-1
 524 1061 l 1,3,-1
 524 297 l 1,4,-1
 752 297 l 1,5,-1
 752 1061 l 1,6,-1
 1159 1061 l 1,7,-1
 1159 297 l 1,8,-1
 1386 297 l 1,9,-1
 1386 1061 l 1,10,-1
 1794 1061 l 1,11,-1
 1794 0 l 1,0,-1
EndSplineSet
EndChar
StartChar: afii10091
Encoding: 1097 1097 551
Width: 1970
Flags: W
Fore
1950 -303 m 1,0,-1
 1667 -303 l 1,1,-1
 1667 0 l 1,2,-1
 117 0 l 1,3,-1
 117 1061 l 1,4,-1
 524 1061 l 1,5,-1
 524 297 l 1,6,-1
 752 297 l 1,7,-1
 752 1061 l 1,8,-1
 1159 1061 l 1,9,-1
 1159 297 l 1,10,-1
 1386 297 l 1,11,-1
 1386 1061 l 1,12,-1
 1794 1061 l 1,13,-1
 1794 297 l 1,14,-1
 1950 297 l 1,15,-1
 1950 -303 l 1,0,-1
EndSplineSet
EndChar
StartChar: afii10092
Encoding: 1098 1098 552
Width: 1579
Flags: W
Fore
848 684 m 1,0,-1
 1034 684 l 2,1,2
 1505 684 1505 684 1505 340 c 0,3,4
 1505 0 1505 0 1047 0 c 2,5,-1
 440 0 l 1,6,-1
 440 764 l 1,7,-1
 8 764 l 1,8,-1
 8 1061 l 1,9,-1
 848 1061 l 1,10,-1
 848 684 l 1,0,-1
848 250 m 1,11,-1
 981 250 l 2,12,13
 1031 250 1031 250 1062.5 273 c 128,-1,14
 1094 296 1094 296 1094 340 c 0,15,16
 1094 436 1094 436 981 436 c 2,17,-1
 848 436 l 1,18,-1
 848 250 l 1,11,-1
EndSplineSet
EndChar
StartChar: afii10094
Encoding: 1100 1100 554
Width: 1272
Flags: W
Fore
545 684 m 1,0,-1
 731 684 l 2,1,2
 1202 684 1202 684 1202 340 c 0,3,4
 1202 0 1202 0 743 0 c 2,5,-1
 137 0 l 1,6,-1
 137 1061 l 1,7,-1
 545 1061 l 1,8,-1
 545 684 l 1,0,-1
545 250 m 1,9,-1
 678 250 l 2,10,11
 728 250 728 250 759.5 273 c 128,-1,12
 791 296 791 296 791 340 c 0,13,14
 791 436 791 436 678 436 c 2,15,-1
 545 436 l 1,16,-1
 545 250 l 1,9,-1
EndSplineSet
EndChar
StartChar: afii10095
Encoding: 1101 1101 555
Width: 1366
Flags: W
Fore
84 721 m 1,0,1
 141 908 141 908 282 996.5 c 128,-1,2
 423 1085 423 1085 672 1085 c 0,3,4
 857 1085 857 1085 978 1036.5 c 128,-1,5
 1099 988 1099 988 1195.5 862.5 c 128,-1,6
 1292 737 1292 737 1292 526 c 0,7,8
 1292 277 1292 277 1140 126 c 128,-1,9
 988 -25 988 -25 643 -25 c 0,10,11
 172 -25 172 -25 63 375 c 1,12,-1
 451 418 l 1,13,14
 500 254 500 254 668 254 c 0,15,16
 839 254 839 254 877 424 c 1,17,-1
 563 424 l 1,18,-1
 563 633 l 1,19,-1
 870 633 l 1,20,21
 826 807 826 807 659 807 c 0,22,23
 499 807 499 807 467 670 c 1,24,-1
 84 721 l 1,0,1
EndSplineSet
EndChar
StartChar: afii10096
Encoding: 1102 1102 556
Width: 1997
Flags: W
Fore
729 698 m 1,0,1
 784 883 784 883 935 984 c 128,-1,2
 1086 1085 1086 1085 1311 1085 c 0,3,4
 1609 1085 1609 1085 1766 927.5 c 128,-1,5
 1923 770 1923 770 1923 535 c 0,6,7
 1923 302 1923 302 1767 138.5 c 128,-1,8
 1611 -25 1611 -25 1311 -25 c 0,9,10
 1074 -25 1074 -25 920 88 c 128,-1,11
 766 201 766 201 719 401 c 1,12,-1
 545 401 l 1,13,-1
 545 0 l 1,14,-1
 137 0 l 1,15,-1
 137 1061 l 1,16,-1
 545 1061 l 1,17,-1
 545 698 l 1,18,-1
 729 698 l 1,0,1
1313 254 m 0,19,20
 1411 254 1411 254 1463.5 326 c 128,-1,21
 1516 398 1516 398 1516 532 c 0,22,23
 1516 665 1516 665 1462 736 c 128,-1,24
 1408 807 1408 807 1317 807 c 0,25,26
 1216 807 1216 807 1164 729.5 c 128,-1,27
 1112 652 1112 652 1112 528 c 0,28,29
 1112 399 1112 399 1163 326.5 c 128,-1,30
 1214 254 1214 254 1313 254 c 0,19,20
EndSplineSet
EndChar
StartChar: afii10097
Encoding: 1103 1103 557
Width: 1278
Flags: W
Fore
1155 0 m 1,0,-1
 748 0 l 1,1,-1
 748 412 l 1,2,-1
 733 412 l 2,3,4
 690 412 690 412 665.5 388.5 c 128,-1,5
 641 365 641 365 616 317 c 2,6,-1
 453 0 l 1,7,-1
 2 0 l 1,8,-1
 160 307 l 2,9,10
 230 444 230 444 344 457 c 1,11,12
 215 477 215 477 147.5 564.5 c 128,-1,13
 80 652 80 652 80 756 c 0,14,15
 80 859 80 859 131.5 938.5 c 128,-1,16
 183 1018 183 1018 281.5 1039.5 c 128,-1,17
 380 1061 380 1061 530 1061 c 2,18,-1
 1155 1061 l 1,19,-1
 1155 0 l 1,0,-1
748 653 m 1,20,-1
 748 819 l 1,21,-1
 621 819 l 2,22,23
 531 819 531 819 509 797.5 c 128,-1,24
 487 776 487 776 487 737 c 0,25,26
 487 653 487 653 635 653 c 2,27,-1
 748 653 l 1,20,-1
EndSplineSet
EndChar
StartChar: afii10099
Encoding: 1106 1106 559
Width: 1384
Flags: W
Fore
1264 53 m 2,0,1
 1264 -113 1264 -113 1243 -202 c 128,-1,2
 1222 -291 1222 -291 1143.5 -350.5 c 128,-1,3
 1065 -410 1065 -410 909 -410 c 0,4,5
 785 -410 785 -410 616 -375 c 1,6,-1
 678 -80 l 1,7,8
 732 -90 732 -90 750 -90 c 0,9,10
 800 -90 800 -90 828 -54.5 c 128,-1,11
 856 -19 856 -19 856 88 c 2,12,-1
 856 584 l 2,13,14
 856 768 856 768 713 768 c 0,15,16
 634 768 634 768 590.5 709.5 c 128,-1,17
 547 651 547 651 547 510 c 2,18,-1
 547 0 l 1,19,-1
 139 0 l 1,20,-1
 139 1186 l 1,21,-1
 20 1186 l 1,22,-1
 20 1372 l 1,23,-1
 139 1372 l 1,24,-1
 139 1466 l 1,25,-1
 547 1466 l 1,26,-1
 547 1372 l 1,27,-1
 791 1372 l 1,28,-1
 791 1186 l 1,29,-1
 547 1186 l 1,30,-1
 547 926 l 1,31,32
 690 1085 690 1085 907 1085 c 0,33,34
 1084 1085 1084 1085 1174 978.5 c 128,-1,35
 1264 872 1264 872 1264 676 c 2,36,-1
 1264 53 l 2,0,1
EndSplineSet
EndChar
StartChar: afii10101
Encoding: 1108 1108 561
Width: 1366
Flags: W
Fore
1303 375 m 1,0,1
 1194 -25 1194 -25 723 -25 c 0,2,3
 378 -25 378 -25 226 126 c 128,-1,4
 74 277 74 277 74 526 c 0,5,6
 74 726 74 726 159 847 c 128,-1,7
 244 968 244 968 366.5 1026.5 c 128,-1,8
 489 1085 489 1085 694 1085 c 0,9,10
 943 1085 943 1085 1084 996.5 c 128,-1,11
 1225 908 1225 908 1282 721 c 1,12,-1
 899 670 l 1,13,14
 867 807 867 807 707 807 c 0,15,16
 540 807 540 807 496 633 c 1,17,-1
 803 633 l 1,18,-1
 803 424 l 1,19,-1
 489 424 l 1,20,21
 527 254 527 254 698 254 c 0,22,23
 866 254 866 254 915 418 c 1,24,-1
 1303 375 l 1,0,1
EndSplineSet
EndChar
StartChar: afii10106
Encoding: 1113 1113 566
Width: 2071
Flags: W
Fore
1343 684 m 1,0,-1
 1530 684 l 2,1,2
 2001 684 2001 684 2001 340 c 0,3,4
 2001 0 2001 0 1542 0 c 2,5,-1
 936 0 l 1,6,-1
 936 764 l 1,7,-1
 627 764 l 1,8,-1
 627 319 l 2,9,10
 627 141 627 141 554.5 55 c 128,-1,11
 482 -31 482 -31 332 -31 c 0,12,13
 162 -31 162 -31 27 0 c 1,14,-1
 27 301 l 1,15,16
 99 279 99 279 137 279 c 0,17,18
 219 279 219 279 219 401 c 2,19,-1
 219 1061 l 1,20,-1
 1343 1061 l 1,21,-1
 1343 684 l 1,0,-1
1343 250 m 1,22,-1
 1477 250 l 2,23,24
 1527 250 1527 250 1558 273 c 128,-1,25
 1589 296 1589 296 1589 340 c 0,26,27
 1589 436 1589 436 1477 436 c 2,28,-1
 1343 436 l 1,29,-1
 1343 250 l 1,22,-1
EndSplineSet
EndChar
StartChar: afii10107
Encoding: 1114 1114 567
Width: 2095
Flags: W
Fore
1364 684 m 1,0,-1
 1550 684 l 2,1,2
 2021 684 2021 684 2021 340 c 0,3,4
 2021 0 2021 0 1563 0 c 2,5,-1
 956 0 l 1,6,-1
 956 401 l 1,7,-1
 545 401 l 1,8,-1
 545 0 l 1,9,-1
 137 0 l 1,10,-1
 137 1061 l 1,11,-1
 545 1061 l 1,12,-1
 545 698 l 1,13,-1
 956 698 l 1,14,-1
 956 1061 l 1,15,-1
 1364 1061 l 1,16,-1
 1364 684 l 1,0,-1
1364 250 m 1,17,-1
 1497 250 l 2,18,19
 1547 250 1547 250 1578.5 273 c 128,-1,20
 1610 296 1610 296 1610 340 c 0,21,22
 1610 436 1610 436 1497 436 c 2,23,-1
 1364 436 l 1,24,-1
 1364 250 l 1,17,-1
EndSplineSet
EndChar
StartChar: afii10108
Encoding: 1115 1115 568
Width: 1384
Flags: W
Fore
1264 0 m 1,0,-1
 856 0 l 1,1,-1
 856 584 l 2,2,3
 856 768 856 768 713 768 c 0,4,5
 634 768 634 768 590.5 709.5 c 128,-1,6
 547 651 547 651 547 510 c 2,7,-1
 547 0 l 1,8,-1
 139 0 l 1,9,-1
 139 1186 l 1,10,-1
 20 1186 l 1,11,-1
 20 1372 l 1,12,-1
 139 1372 l 1,13,-1
 139 1466 l 1,14,-1
 547 1466 l 1,15,-1
 547 1372 l 1,16,-1
 791 1372 l 1,17,-1
 791 1186 l 1,18,-1
 547 1186 l 1,19,-1
 547 926 l 1,20,21
 690 1085 690 1085 907 1085 c 0,22,23
 1084 1085 1084 1085 1174 978.5 c 128,-1,24
 1264 872 1264 872 1264 676 c 2,25,-1
 1264 0 l 1,0,-1
EndSplineSet
EndChar
StartChar: afii10110
Encoding: 1118 1118 570
Width: 1251
Flags: W
Fore
5 1062 m 1,0,-1
 435 1062 l 1,1,-1
 654 355 l 1,2,-1
 857 1062 l 1,3,-1
 1258 1062 l 1,4,-1
 837 -73 l 2,5,6
 765 -267 765 -267 690 -335 c 0,7,8
 584 -431 584 -431 367 -431 c 0,9,10
 279 -431 279 -431 95 -407 c 1,11,-1
 63 -123 l 1,12,13
 151 -151 151 -151 259 -151 c 0,14,15
 331 -151 331 -151 375.5 -118 c 128,-1,16
 420 -85 420 -85 451 0 c 1,17,-1
 5 1062 l 1,0,-1
952 1491 m 1,18,19
 950 1346 950 1346 852 1268 c 128,-1,20
 754 1190 754 1190 618 1190 c 0,21,22
 461 1190 461 1190 371.5 1269.5 c 128,-1,23
 282 1349 282 1349 270 1491 c 1,24,-1
 442 1491 l 1,25,26
 472 1384 472 1384 610 1384 c 0,27,28
 687 1384 687 1384 730 1405.5 c 128,-1,29
 773 1427 773 1427 788 1491 c 1,30,-1
 952 1491 l 1,18,19
EndSplineSet
EndChar
StartChar: afii10193
Encoding: 1119 1119 571
Width: 1366
Flags: W
Fore
1243 0 m 1,0,-1
 821 0 l 1,1,-1
 821 -303 l 1,2,-1
 539 -303 l 1,3,-1
 539 0 l 1,4,-1
 119 0 l 1,5,-1
 119 1061 l 1,6,-1
 526 1061 l 1,7,-1
 526 297 l 1,8,-1
 836 297 l 1,9,-1
 836 1061 l 1,10,-1
 1243 1061 l 1,11,-1
 1243 0 l 1,0,-1
EndSplineSet
EndChar
StartChar: afii10050
Encoding: 1168 1168 572
Width: 1137
Flags: W
Fore
1102 1106 m 1,0,-1
 602 1106 l 1,1,-1
 602 0 l 1,2,-1
 150 0 l 1,3,-1
 150 1466 l 1,4,-1
 737 1466 l 1,5,-1
 737 1763 l 1,6,-1
 1102 1763 l 1,7,-1
 1102 1106 l 1,0,-1
EndSplineSet
EndChar
StartChar: afii10098
Encoding: 1169 1169 573
Width: 958
Flags: W
Fore
924 764 m 1,0,-1
 545 764 l 1,1,-1
 545 0 l 1,2,-1
 137 0 l 1,3,-1
 137 1061 l 1,4,-1
 662 1061 l 1,5,-1
 662 1364 l 1,6,-1
 924 1364 l 1,7,-1
 924 764 l 1,0,-1
EndSplineSet
EndChar
StartChar: afii00208
Encoding: 8213 8213 582
Width: 1536
Flags: W
Fore
-12 646 m 1,0,-1
 1547 646 l 1,1,-1
 1547 424 l 1,2,-1
 -12 424 l 1,3,-1
 -12 646 l 1,0,-1
EndSplineSet
EndChar
StartChar: quotereversed
Encoding: 8219 8219 583
Width: 569
Flags: W
Fore
505 1491 m 1,0,-1
 505 1087 l 1,1,-1
 297 1087 l 1,2,3
 302 1014 302 1014 345.5 960.5 c 128,-1,4
 389 907 389 907 505 853 c 1,5,-1
 410 675 l 1,6,7
 224 756 224 756 147 863.5 c 128,-1,8
 70 971 70 971 70 1156 c 2,9,-1
 70 1491 l 1,10,-1
 505 1491 l 1,0,-1
EndSplineSet
EndChar
StartChar: radicalex
Encoding: 8254 8254 584
Width: 1024
Flags: W
Fore
1036 1768 m 1,0,-1
 -12 1768 l 1,1,-1
 -12 1870 l 1,2,-1
 1036 1870 l 1,3,-1
 1036 1768 l 1,0,-1
EndSplineSet
EndChar
StartChar: afii08941
Encoding: 8356 8356 585
Width: 1366
Flags: W
Fore
1356 63 m 1,0,1
 1191 -25 1191 -25 1020 -25 c 0,2,3
 927 -25 927 -25 796 10.5 c 128,-1,4
 665 46 665 46 619.5 56 c 128,-1,5
 574 66 574 66 528 66 c 0,6,7
 393 66 393 66 242 -25 c 1,8,-1
 115 258 l 1,9,10
 270 372 270 372 313 502 c 1,11,-1
 104 502 l 1,12,-1
 104 641 l 1,13,-1
 311 641 l 1,14,15
 305 716 305 716 295 743 c 1,16,-1
 104 743 l 1,17,-1
 104 883 l 1,18,-1
 254 883 l 1,19,20
 213 982 213 982 213 1077 c 0,21,22
 213 1224 213 1224 295.5 1323 c 128,-1,23
 378 1422 378 1422 479 1456.5 c 128,-1,24
 580 1491 580 1491 748 1491 c 0,25,26
 859 1491 859 1491 958 1471 c 128,-1,27
 1057 1451 1057 1451 1153.5 1366.5 c 128,-1,28
 1250 1282 1250 1282 1286 1108 c 1,29,-1
 903 1049 l 1,30,31
 858 1225 858 1225 752 1225 c 0,32,33
 694 1225 694 1225 658.5 1186.5 c 128,-1,34
 623 1148 623 1148 623 1079 c 0,35,36
 623 995 623 995 666 883 c 1,37,-1
 971 883 l 1,38,-1
 971 743 l 1,39,-1
 711 743 l 1,40,41
 711 700 711 700 705 641 c 1,42,-1
 971 641 l 1,43,-1
 971 502 l 1,44,-1
 678 502 l 1,45,46
 653 397 653 397 610 348 c 1,47,-1
 614 344 l 1,48,49
 667 358 667 358 707 358 c 0,50,51
 758 358 758 358 784 351 c 128,-1,52
 810 344 810 344 885 327.5 c 128,-1,53
 960 311 960 311 1020 311 c 0,54,55
 1120 311 1120 311 1221 360 c 1,56,-1
 1356 63 l 1,0,1
EndSplineSet
EndChar
StartChar: afii61352
Encoding: 8470 8470 586
Width: 2755
Flags: W
Fore
1554 0 m 1,0,-1
 1126 0 l 1,1,-1
 578 805 l 1,2,-1
 578 0 l 1,3,-1
 152 0 l 1,4,-1
 152 1466 l 1,5,-1
 575 1466 l 1,6,-1
 1128 655 l 1,7,-1
 1128 1466 l 1,8,-1
 1554 1466 l 1,9,-1
 1554 0 l 1,0,-1
2154 1262 m 0,10,11
 2393 1262 2393 1262 2518.5 1135 c 128,-1,12
 2644 1008 2644 1008 2644 821 c 0,13,14
 2644 633 2644 633 2519.5 503 c 128,-1,15
 2395 373 2395 373 2154 373 c 0,16,17
 1923 373 1923 373 1796 502 c 128,-1,18
 1669 631 1669 631 1669 815 c 0,19,20
 1669 1005 1669 1005 1797 1133.5 c 128,-1,21
 1925 1262 1925 1262 2154 1262 c 0,10,11
2157 610 m 0,22,23
 2229 610 2229 610 2263.5 659 c 128,-1,24
 2298 708 2298 708 2298 819 c 0,25,26
 2298 928 2298 928 2265 976 c 128,-1,27
 2232 1024 2232 1024 2161 1024 c 0,28,29
 2086 1024 2086 1024 2051.5 976 c 128,-1,30
 2017 928 2017 928 2017 815 c 0,31,32
 2017 610 2017 610 2157 610 c 0,22,23
2607 45 m 1,33,-1
 1739 45 l 1,34,-1
 1739 287 l 1,35,-1
 2607 287 l 1,36,-1
 2607 45 l 1,33,-1
EndSplineSet
EndChar
StartChar: estimated
Encoding: 8494 8494 587
Width: 1229
Flags: W
Fore
321 531 m 1,0,-1
 321 160 l 1,1,2
 441 39 441 39 619 39 c 0,3,4
 873 39 873 39 1014 285 c 1,5,-1
 1086 242 l 1,6,7
 968 72 968 72 854.5 19 c 128,-1,8
 741 -34 741 -34 619 -34 c 0,9,10
 387 -34 387 -34 238.5 124.5 c 128,-1,11
 90 283 90 283 90 531 c 0,12,13
 90 783 90 783 239.5 939.5 c 128,-1,14
 389 1096 389 1096 619 1096 c 0,15,16
 833 1096 833 1096 985 954 c 128,-1,17
 1137 812 1137 812 1148 531 c 1,18,-1
 321 531 l 1,0,-1
917 605 m 1,19,-1
 917 902 l 1,20,21
 793 1023 793 1023 617 1023 c 0,22,23
 443 1023 443 1023 321 902 c 1,24,-1
 321 605 l 1,25,-1
 917 605 l 1,19,-1
EndSplineSet
EndChar
StartChar: house
Encoding: 8962 8962 592
Width: 1229
Flags: W
Fore
153 0 m 1,0,-1
 153 634 l 1,1,-1
 614 1153 l 1,2,-1
 1076 634 l 1,3,-1
 1076 0 l 1,4,-1
 153 0 l 1,0,-1
234 81 m 1,5,-1
 995 81 l 1,6,-1
 995 600 l 1,7,-1
 614 1027 l 1,8,-1
 234 600 l 1,9,-1
 234 81 l 1,5,-1
EndSplineSet
EndChar
StartChar: revlogicalnot
Encoding: 8976 8976 593
Width: 1352
Flags: W
Fore
1218 1133 m 1,0,-1
 1218 808 l 1,1,-1
 452 808 l 1,2,-1
 452 316 l 1,3,-1
 126 316 l 1,4,-1
 126 1133 l 1,5,-1
 1218 1133 l 1,0,-1
EndSplineSet
EndChar
StartChar: integraltp
Encoding: 8992 8992 594
Width: 1229
Flags: W
Fore
687 -515 m 1,0,-1
 542 -515 l 1,1,-1
 542 1298 l 2,2,3
 542 1504 542 1504 628 1620.5 c 128,-1,4
 714 1737 714 1737 834 1737 c 0,5,6
 893 1737 893 1737 932.5 1709 c 128,-1,7
 972 1681 972 1681 972 1628 c 0,8,9
 972 1587 972 1587 945.5 1561.5 c 128,-1,10
 919 1536 919 1536 884 1536 c 0,11,12
 850 1536 850 1536 828.5 1549.5 c 128,-1,13
 807 1563 807 1563 786 1597 c 0,14,15
 762 1634 762 1634 739 1634 c 0,16,17
 710 1634 710 1634 698.5 1609.5 c 128,-1,18
 687 1585 687 1585 687 1456 c 2,19,-1
 687 -515 l 1,0,-1
EndSplineSet
EndChar
StartChar: integralbt
Encoding: 8993 8993 595
Width: 1229
Flags: W
Fore
542 1737 m 1,0,-1
 687 1737 l 1,1,-1
 687 -74 l 2,2,3
 687 -281 687 -281 601 -398 c 128,-1,4
 515 -515 515 -515 395 -515 c 0,5,6
 321 -515 321 -515 289 -480.5 c 128,-1,7
 257 -446 257 -446 257 -406 c 0,8,9
 257 -365 257 -365 283.5 -339.5 c 128,-1,10
 310 -314 310 -314 344 -314 c 0,11,12
 379 -314 379 -314 400.5 -328 c 128,-1,13
 422 -342 422 -342 443 -375 c 0,14,15
 467 -412 467 -412 490 -412 c 0,16,17
 519 -412 519 -412 530.5 -388 c 128,-1,18
 542 -364 542 -364 542 -234 c 2,19,-1
 542 1737 l 1,0,-1
EndSplineSet
EndChar
StartChar: SF100000
Encoding: 9472 9472 596
Width: 1454
Flags: W
Fore
1475 534 m 1,0,-1
 -21 534 l 1,1,-1
 -21 709 l 1,2,-1
 1475 709 l 1,3,-1
 1475 534 l 1,0,-1
EndSplineSet
EndChar
StartChar: SF110000
Encoding: 9474 9474 597
Width: 1270
Flags: W
Fore
452 -621 m 1,0,-1
 452 1864 l 1,1,-1
 627 1864 l 1,2,-1
 627 -621 l 1,3,-1
 452 -621 l 1,0,-1
EndSplineSet
EndChar
StartChar: SF010000
Encoding: 9484 9484 598
Width: 1454
Flags: W
Fore
1476 709 m 1,0,-1
 1476 534 l 1,1,-1
 815 534 l 1,2,-1
 815 -621 l 1,3,-1
 640 -621 l 1,4,-1
 640 709 l 1,5,-1
 1476 709 l 1,0,-1
EndSplineSet
EndChar
StartChar: SF030000
Encoding: 9488 9488 599
Width: 1454
Flags: W
Fore
639 534 m 1,0,-1
 -21 534 l 1,1,-1
 -21 709 l 1,2,-1
 814 709 l 1,3,-1
 814 -621 l 1,4,-1
 639 -621 l 1,5,-1
 639 534 l 1,0,-1
EndSplineSet
EndChar
StartChar: SF020000
Encoding: 9492 9492 600
Width: 1454
Flags: W
Fore
640 534 m 1,0,-1
 640 1864 l 1,1,-1
 815 1864 l 1,2,-1
 815 709 l 1,3,-1
 1476 709 l 1,4,-1
 1476 534 l 1,5,-1
 640 534 l 1,0,-1
EndSplineSet
EndChar
StartChar: SF040000
Encoding: 9496 9496 601
Width: 1454
Flags: W
Fore
814 534 m 1,0,-1
 -21 534 l 1,1,-1
 -21 709 l 1,2,-1
 639 709 l 1,3,-1
 639 1864 l 1,4,-1
 814 1864 l 1,5,-1
 814 534 l 1,0,-1
EndSplineSet
EndChar
StartChar: SF080000
Encoding: 9500 9500 602
Width: 1454
Flags: W
Fore
640 -621 m 1,0,-1
 640 1864 l 1,1,-1
 815 1864 l 1,2,-1
 815 709 l 1,3,-1
 1476 709 l 1,4,-1
 1476 534 l 1,5,-1
 815 534 l 1,6,-1
 815 -621 l 1,7,-1
 640 -621 l 1,0,-1
EndSplineSet
EndChar
StartChar: SF090000
Encoding: 9508 9508 603
Width: 1454
Flags: W
Fore
639 -621 m 1,0,-1
 639 534 l 1,1,-1
 -21 534 l 1,2,-1
 -21 709 l 1,3,-1
 639 709 l 1,4,-1
 639 1864 l 1,5,-1
 814 1864 l 1,6,-1
 814 -621 l 1,7,-1
 639 -621 l 1,0,-1
EndSplineSet
EndChar
StartChar: SF060000
Encoding: 9516 9516 604
Width: 1454
Flags: W
Fore
639 534 m 1,0,-1
 -21 534 l 1,1,-1
 -21 709 l 1,2,-1
 1475 709 l 1,3,-1
 1475 534 l 1,4,-1
 814 534 l 1,5,-1
 814 -621 l 1,6,-1
 639 -621 l 1,7,-1
 639 534 l 1,0,-1
EndSplineSet
EndChar
StartChar: SF070000
Encoding: 9524 9524 605
Width: 1454
Flags: W
Fore
1475 534 m 1,0,-1
 -21 534 l 1,1,-1
 -21 709 l 1,2,-1
 639 709 l 1,3,-1
 639 1864 l 1,4,-1
 814 1864 l 1,5,-1
 814 709 l 1,6,-1
 1475 709 l 1,7,-1
 1475 534 l 1,0,-1
EndSplineSet
EndChar
StartChar: SF050000
Encoding: 9532 9532 606
Width: 1454
Flags: W
Fore
639 534 m 1,0,-1
 -21 534 l 1,1,-1
 -21 709 l 1,2,-1
 639 709 l 1,3,-1
 639 1864 l 1,4,-1
 814 1864 l 1,5,-1
 814 709 l 1,6,-1
 1475 709 l 1,7,-1
 1475 534 l 1,8,-1
 814 534 l 1,9,-1
 814 -621 l 1,10,-1
 639 -621 l 1,11,-1
 639 534 l 1,0,-1
EndSplineSet
EndChar
StartChar: SF430000
Encoding: 9552 9552 607
Width: 1454
Flags: W
Fore
1475 724 m 1,0,-1
 -21 724 l 1,1,-1
 -21 899 l 1,2,-1
 1475 899 l 1,3,-1
 1475 724 l 1,0,-1
1475 344 m 1,4,-1
 -21 344 l 1,5,-1
 -21 519 l 1,6,-1
 1475 519 l 1,7,-1
 1475 344 l 1,4,-1
EndSplineSet
EndChar
StartChar: SF240000
Encoding: 9553 9553 608
Width: 1454
Flags: W
Fore
830 -621 m 1,0,-1
 830 1864 l 1,1,-1
 1005 1864 l 1,2,-1
 1005 -621 l 1,3,-1
 830 -621 l 1,0,-1
450 -621 m 1,4,-1
 450 1864 l 1,5,-1
 625 1864 l 1,6,-1
 625 -621 l 1,7,-1
 450 -621 l 1,4,-1
EndSplineSet
EndChar
StartChar: SF510000
Encoding: 9554 9554 609
Width: 1454
Flags: W
Fore
640 -621 m 1,0,-1
 640 899 l 1,1,-1
 1476 899 l 1,2,-1
 1476 724 l 1,3,-1
 815 724 l 1,4,-1
 815 519 l 1,5,-1
 1476 519 l 1,6,-1
 1476 344 l 1,7,-1
 815 344 l 1,8,-1
 815 -621 l 1,9,-1
 640 -621 l 1,0,-1
EndSplineSet
EndChar
StartChar: SF520000
Encoding: 9555 9555 610
Width: 1454
Flags: W
Fore
450 -621 m 1,0,-1
 450 709 l 1,1,-1
 1476 709 l 1,2,-1
 1476 534 l 1,3,-1
 1005 534 l 1,4,-1
 1005 -621 l 1,5,-1
 830 -621 l 1,6,-1
 830 519 l 1,7,-1
 625 519 l 1,8,-1
 625 -621 l 1,9,-1
 450 -621 l 1,0,-1
EndSplineSet
EndChar
StartChar: SF390000
Encoding: 9556 9556 611
Width: 1454
Flags: W
Fore
625 -621 m 1,0,-1
 450 -621 l 1,1,-1
 450 899 l 1,2,-1
 1475 899 l 1,3,-1
 1475 724 l 1,4,-1
 625 724 l 1,5,-1
 625 -621 l 1,0,-1
1005 344 m 1,6,-1
 1005 -621 l 1,7,-1
 830 -621 l 1,8,-1
 830 519 l 1,9,-1
 1475 519 l 1,10,-1
 1475 344 l 1,11,-1
 1005 344 l 1,6,-1
EndSplineSet
EndChar
StartChar: SF220000
Encoding: 9557 9557 612
Width: 1454
Flags: W
Fore
639 344 m 1,0,-1
 -21 344 l 1,1,-1
 -21 519 l 1,2,-1
 639 519 l 1,3,-1
 639 724 l 1,4,-1
 -21 724 l 1,5,-1
 -21 899 l 1,6,-1
 814 899 l 1,7,-1
 814 -621 l 1,8,-1
 639 -621 l 1,9,-1
 639 344 l 1,0,-1
EndSplineSet
EndChar
StartChar: SF210000
Encoding: 9558 9558 613
Width: 1454
Flags: W
Fore
449 -621 m 1,0,-1
 449 534 l 1,1,-1
 -21 534 l 1,2,-1
 -21 709 l 1,3,-1
 1004 709 l 1,4,-1
 1004 -621 l 1,5,-1
 829 -621 l 1,6,-1
 829 534 l 1,7,-1
 624 534 l 1,8,-1
 624 -621 l 1,9,-1
 449 -621 l 1,0,-1
EndSplineSet
EndChar
StartChar: SF250000
Encoding: 9559 9559 614
Width: 1454
Flags: W
Fore
829 -621 m 1,0,-1
 829 724 l 1,1,-1
 -21 724 l 1,2,-1
 -21 899 l 1,3,-1
 1004 899 l 1,4,-1
 1004 -621 l 1,5,-1
 829 -621 l 1,0,-1
449 344 m 1,6,-1
 -21 344 l 1,7,-1
 -21 519 l 1,8,-1
 624 519 l 1,9,-1
 624 -621 l 1,10,-1
 449 -621 l 1,11,-1
 449 344 l 1,6,-1
EndSplineSet
EndChar
StartChar: SF500000
Encoding: 9560 9560 615
Width: 1454
Flags: W
Fore
640 344 m 1,0,-1
 640 1864 l 1,1,-1
 815 1864 l 1,2,-1
 815 899 l 1,3,-1
 1476 899 l 1,4,-1
 1476 724 l 1,5,-1
 815 724 l 1,6,-1
 815 519 l 1,7,-1
 1476 519 l 1,8,-1
 1476 344 l 1,9,-1
 640 344 l 1,0,-1
EndSplineSet
EndChar
StartChar: SF490000
Encoding: 9561 9561 616
Width: 1454
Flags: W
Fore
1475 534 m 1,0,-1
 450 534 l 1,1,-1
 450 1864 l 1,2,-1
 625 1864 l 1,3,-1
 625 709 l 1,4,-1
 830 709 l 1,5,-1
 830 1864 l 1,6,-1
 1005 1864 l 1,7,-1
 1005 709 l 1,8,-1
 1475 709 l 1,9,-1
 1475 534 l 1,0,-1
EndSplineSet
EndChar
